%TF.GenerationSoftware,KiCad,Pcbnew,9.0.2+dfsg-1*%
%TF.CreationDate,2026-10-02T13:14:14-04:00*%
%TF.ProjectId,macropad,6d616372-6f70-4616-942e-6b696361645f,rev?*%
%TF.SameCoordinates,Original*%
%TF.FileFunction,Other,User*%
%FSLAX46Y46*%
G04 Gerber Fmt 4.6, Leading zero omitted, Abs format (unit mm)*
G04 Created by KiCad (PCBNEW 9.0.2+dfsg-1) date 2026-10-02 13:14:14*
%MOMM*%
%LPD*%
G01*
G04 APERTURE LIST*
%ADD10C,0.050000*%
%ADD11C,0.100000*%
G04 APERTURE END LIST*
D10*
%TO.C,J3*%
X18230000Y-21230000D02*
X18230000Y-24770000D01*
X18230000Y-24770000D02*
X34470000Y-24770000D01*
X34470000Y-21230000D02*
X18230000Y-21230000D01*
X34470000Y-24770000D02*
X34470000Y-21230000D01*
%TO.C,H6*%
X101950000Y-111000000D02*
G75*
G02*
X96050000Y-111000000I-2950000J0D01*
G01*
X96050000Y-111000000D02*
G75*
G02*
X101950000Y-111000000I2950000J0D01*
G01*
%TO.C,H4*%
X101950000Y-63000000D02*
G75*
G02*
X96050000Y-63000000I-2950000J0D01*
G01*
X96050000Y-63000000D02*
G75*
G02*
X101950000Y-63000000I2950000J0D01*
G01*
%TO.C,H2*%
X101950000Y-9000000D02*
G75*
G02*
X96050000Y-9000000I-2950000J0D01*
G01*
X96050000Y-9000000D02*
G75*
G02*
X101950000Y-9000000I2950000J0D01*
G01*
%TO.C,ENC1*%
X15000000Y-29900000D02*
X15000000Y-44100000D01*
X15000000Y-29900000D02*
X32500000Y-29900000D01*
X32500000Y-44100000D02*
X15000000Y-44100000D01*
X32500000Y-44100000D02*
X32500000Y-29900000D01*
D11*
%TO.C,JOY1*%
X74600000Y-26500000D02*
X94200000Y-26500000D01*
X74600000Y-48800000D02*
X74600000Y-26500000D01*
X94200000Y-26500000D02*
X94200000Y-48800000D01*
X94200000Y-48800000D02*
X74600000Y-48800000D01*
D10*
%TO.C,J1*%
X89230000Y-92230000D02*
X89230000Y-95770000D01*
X89230000Y-95770000D02*
X100390000Y-95770000D01*
X100390000Y-92230000D02*
X89230000Y-92230000D01*
X100390000Y-95770000D02*
X100390000Y-92230000D01*
%TO.C,H3*%
X11950000Y-63000000D02*
G75*
G02*
X6050000Y-63000000I-2950000J0D01*
G01*
X6050000Y-63000000D02*
G75*
G02*
X11950000Y-63000000I2950000J0D01*
G01*
%TO.C,H1*%
X11950000Y-9000000D02*
G75*
G02*
X6050000Y-9000000I-2950000J0D01*
G01*
X6050000Y-9000000D02*
G75*
G02*
X11950000Y-9000000I2950000J0D01*
G01*
%TO.C,J2*%
X17230000Y-13230000D02*
X17230000Y-16770000D01*
X17230000Y-16770000D02*
X25850000Y-16770000D01*
X25850000Y-13230000D02*
X17230000Y-13230000D01*
X25850000Y-16770000D02*
X25850000Y-13230000D01*
%TO.C,H5*%
X11950000Y-111000000D02*
G75*
G02*
X6050000Y-111000000I-2950000J0D01*
G01*
X6050000Y-111000000D02*
G75*
G02*
X11950000Y-111000000I2950000J0D01*
G01*
%TD*%
M02*
