M48
; DRILL file {KiCad 9.0.2+dfsg-1} date 2026-10-02T13:14:15-0400
; FORMAT={-:-/ absolute / metric / decimal}
; #@! TF.CreationDate,2026-10-02T13:14:15-04:00
; #@! TF.GenerationSoftware,Kicad,Pcbnew,9.0.2+dfsg-1
; #@! TF.FileFunction,MixedPlating,1,2
FMAT,2
METRIC
; #@! TA.AperFunction,Plated,PTH,ViaDrill
T1C0.300
; #@! TA.AperFunction,Plated,PTH,ComponentDrill
T2C1.000
; #@! TA.AperFunction,Plated,PTH,ComponentDrill
T3C1.500
; #@! TA.AperFunction,Plated,PTH,ComponentDrill
T4C1.600
; #@! TA.AperFunction,NonPlated,NPTH,ComponentDrill
T5C1.700
; #@! TA.AperFunction,NonPlated,NPTH,ComponentDrill
T6C2.000
; #@! TA.AperFunction,NonPlated,NPTH,ComponentDrill
T7C2.700
; #@! TA.AperFunction,NonPlated,NPTH,ComponentDrill
T8C3.000
; #@! TA.AperFunction,NonPlated,NPTH,ComponentDrill
T9C4.000
%
G90
G05
T1
X16.615Y-58.244
X16.615Y-78.225
X16.615Y-94.678
X18.7Y-10.315
X25.625Y-24.5
X27.068Y-17.743
X29.186Y-66.164
X30.326Y-17.88
X30.824Y-95.704
X30.824Y-106.174
X31.059Y-75.972
X31.059Y-85.906
X31.65Y-56.27
X31.65Y-65.838
X33.747Y-81.603
X35.0Y-24.25
X35.57Y-94.68
X36.454Y-30.608
X36.615Y-54.668
X36.615Y-74.669
X37.28Y-61.619
X37.375Y-26.375
X37.375Y-30.25
X37.435Y-32.687
X37.625Y-39.5
X38.212Y-11.79
X40.2Y-6.61
X40.875Y-30.25
X46.625Y-39.5
X50.301Y-7.913
X50.824Y-45.826
X50.831Y-75.703
X50.831Y-86.181
X51.181Y-7.928
X51.299Y-33.672
X51.65Y-57.032
X51.65Y-65.888
X51.65Y-95.675
X51.65Y-105.875
X52.875Y-25.25
X53.53Y-27.292
X53.53Y-30.14
X53.977Y-7.935
X54.995Y-7.882
X56.152Y-58.226
X56.152Y-74.681
X56.152Y-94.632
X57.209Y-7.796
X60.216Y-7.926
X60.648Y-30.797
X60.907Y-23.045
X62.145Y-7.955
X62.776Y-29.487
X66.418Y-7.915
X67.301Y-7.963
X67.501Y-106.151
X70.98Y-55.672
X71.65Y-33.677
X71.65Y-43.881
X71.65Y-56.42
X71.65Y-65.861
X71.65Y-75.701
X71.65Y-85.879
X71.65Y-95.681
X71.65Y-105.884
X72.375Y-38.375
X72.516Y-7.737
X73.602Y-7.985
X74.819Y-56.46
X74.819Y-73.702
X75.375Y-7.25
X76.816Y-29.352
X78.684Y-7.983
X79.676Y-7.929
X80.044Y-23.179
X82.706Y-7.737
X84.0Y-32.298
X84.729Y-88.613
X84.78Y-91.002
X85.25Y-32.941
X85.255Y-7.68
X87.804Y-7.68
X88.292Y-27.301
X91.65Y-56.851
X91.65Y-65.844
X92.483Y-75.497
X92.483Y-86.167
T2
X16.5Y-34.5
X16.5Y-37.0
X16.5Y-39.5
X19.0Y-15.0
X20.0Y-23.0
X21.54Y-15.0
X22.54Y-23.0
X24.08Y-15.0
X25.08Y-23.0
X27.62Y-23.0
X30.16Y-23.0
X31.0Y-34.5
X31.0Y-39.5
X32.7Y-23.0
X81.5Y-28.27
X84.0Y-28.27
X86.5Y-28.27
X91.0Y-94.0
X92.73Y-34.5
X92.73Y-37.0
X92.73Y-39.5
X93.54Y-94.0
X96.08Y-94.0
X98.62Y-94.0
T3
X79.7Y-37.0
X88.3Y-37.0
T4
X77.675Y-32.0
X77.675Y-42.0
X90.325Y-32.0
X90.325Y-42.0
T5
X18.92Y-59.0
X18.92Y-79.0
X18.92Y-99.0
X29.08Y-59.0
X29.08Y-79.0
X29.08Y-99.0
X38.92Y-37.0
X38.92Y-59.0
X38.92Y-79.0
X38.92Y-99.0
X49.08Y-37.0
X49.08Y-59.0
X49.08Y-79.0
X49.08Y-99.0
X58.92Y-37.0
X58.92Y-59.0
X58.92Y-79.0
X58.92Y-99.0
X69.08Y-37.0
X69.08Y-59.0
X69.08Y-79.0
X69.08Y-99.0
X78.92Y-59.0
X78.92Y-79.0
X89.08Y-59.0
X89.08Y-79.0
T6
X43.5Y-12.775
X43.5Y-18.225
X46.53Y-13.075
X46.53Y-17.925
T7
X9.0Y-9.0
X9.0Y-63.0
X9.0Y-111.0
X99.0Y-9.0
X99.0Y-63.0
X99.0Y-111.0
T8
X20.19Y-56.46
X20.19Y-76.46
X20.19Y-96.46
X26.54Y-53.92
X26.54Y-73.92
X26.54Y-93.92
X40.19Y-34.46
X40.19Y-56.46
X40.19Y-76.46
X40.19Y-96.46
X46.54Y-31.92
X46.54Y-53.92
X46.54Y-73.92
X46.54Y-93.92
X60.19Y-34.46
X60.19Y-56.46
X60.19Y-76.46
X60.19Y-96.46
X66.54Y-31.92
X66.54Y-53.92
X66.54Y-73.92
X66.54Y-93.92
X80.19Y-56.46
X80.19Y-76.46
X86.54Y-53.92
X86.54Y-73.92
T9
X24.0Y-59.0
X24.0Y-79.0
X24.0Y-99.0
X44.0Y-37.0
X44.0Y-59.0
X44.0Y-79.0
X44.0Y-99.0
X64.0Y-37.0
X64.0Y-59.0
X64.0Y-79.0
X64.0Y-99.0
X84.0Y-59.0
X84.0Y-79.0
T3
X23.35Y-31.4G85X24.65Y-31.4
G05
X23.35Y-42.6G85X24.65Y-42.6
G05
M30
