%TF.GenerationSoftware,KiCad,Pcbnew,9.0.2+dfsg-1*%
%TF.CreationDate,2026-10-02T13:14:14-04:00*%
%TF.ProjectId,macropad,6d616372-6f70-4616-942e-6b696361645f,rev?*%
%TF.SameCoordinates,Original*%
%TF.FileFunction,Legend,Bot*%
%TF.FilePolarity,Positive*%
%FSLAX46Y46*%
G04 Gerber Fmt 4.6, Leading zero omitted, Abs format (unit mm)*
G04 Created by KiCad (PCBNEW 9.0.2+dfsg-1) date 2026-10-02 13:14:14*
%MOMM*%
%LPD*%
G01*
G04 APERTURE LIST*
%ADD10C,0.150000*%
G04 APERTURE END LIST*
D10*
X36190476Y-47454819D02*
X36190476Y-48264342D01*
X36190476Y-48264342D02*
X36142857Y-48359580D01*
X36142857Y-48359580D02*
X36095238Y-48407200D01*
X36095238Y-48407200D02*
X36000000Y-48454819D01*
X36000000Y-48454819D02*
X35809524Y-48454819D01*
X35809524Y-48454819D02*
X35714286Y-48407200D01*
X35714286Y-48407200D02*
X35666667Y-48359580D01*
X35666667Y-48359580D02*
X35619048Y-48264342D01*
X35619048Y-48264342D02*
X35619048Y-47454819D01*
X35190476Y-48407200D02*
X35047619Y-48454819D01*
X35047619Y-48454819D02*
X34809524Y-48454819D01*
X34809524Y-48454819D02*
X34714286Y-48407200D01*
X34714286Y-48407200D02*
X34666667Y-48359580D01*
X34666667Y-48359580D02*
X34619048Y-48264342D01*
X34619048Y-48264342D02*
X34619048Y-48169104D01*
X34619048Y-48169104D02*
X34666667Y-48073866D01*
X34666667Y-48073866D02*
X34714286Y-48026247D01*
X34714286Y-48026247D02*
X34809524Y-47978628D01*
X34809524Y-47978628D02*
X35000000Y-47931009D01*
X35000000Y-47931009D02*
X35095238Y-47883390D01*
X35095238Y-47883390D02*
X35142857Y-47835771D01*
X35142857Y-47835771D02*
X35190476Y-47740533D01*
X35190476Y-47740533D02*
X35190476Y-47645295D01*
X35190476Y-47645295D02*
X35142857Y-47550057D01*
X35142857Y-47550057D02*
X35095238Y-47502438D01*
X35095238Y-47502438D02*
X35000000Y-47454819D01*
X35000000Y-47454819D02*
X34761905Y-47454819D01*
X34761905Y-47454819D02*
X34619048Y-47502438D01*
X33857143Y-47931009D02*
X33714286Y-47978628D01*
X33714286Y-47978628D02*
X33666667Y-48026247D01*
X33666667Y-48026247D02*
X33619048Y-48121485D01*
X33619048Y-48121485D02*
X33619048Y-48264342D01*
X33619048Y-48264342D02*
X33666667Y-48359580D01*
X33666667Y-48359580D02*
X33714286Y-48407200D01*
X33714286Y-48407200D02*
X33809524Y-48454819D01*
X33809524Y-48454819D02*
X34190476Y-48454819D01*
X34190476Y-48454819D02*
X34190476Y-47454819D01*
X34190476Y-47454819D02*
X33857143Y-47454819D01*
X33857143Y-47454819D02*
X33761905Y-47502438D01*
X33761905Y-47502438D02*
X33714286Y-47550057D01*
X33714286Y-47550057D02*
X33666667Y-47645295D01*
X33666667Y-47645295D02*
X33666667Y-47740533D01*
X33666667Y-47740533D02*
X33714286Y-47835771D01*
X33714286Y-47835771D02*
X33761905Y-47883390D01*
X33761905Y-47883390D02*
X33857143Y-47931009D01*
X33857143Y-47931009D02*
X34190476Y-47931009D01*
X32238095Y-47454819D02*
X32047619Y-47454819D01*
X32047619Y-47454819D02*
X31952381Y-47502438D01*
X31952381Y-47502438D02*
X31857143Y-47597676D01*
X31857143Y-47597676D02*
X31809524Y-47788152D01*
X31809524Y-47788152D02*
X31809524Y-48121485D01*
X31809524Y-48121485D02*
X31857143Y-48311961D01*
X31857143Y-48311961D02*
X31952381Y-48407200D01*
X31952381Y-48407200D02*
X32047619Y-48454819D01*
X32047619Y-48454819D02*
X32238095Y-48454819D01*
X32238095Y-48454819D02*
X32333333Y-48407200D01*
X32333333Y-48407200D02*
X32428571Y-48311961D01*
X32428571Y-48311961D02*
X32476190Y-48121485D01*
X32476190Y-48121485D02*
X32476190Y-47788152D01*
X32476190Y-47788152D02*
X32428571Y-47597676D01*
X32428571Y-47597676D02*
X32333333Y-47502438D01*
X32333333Y-47502438D02*
X32238095Y-47454819D01*
X31380952Y-48454819D02*
X31380952Y-47454819D01*
X31380952Y-47454819D02*
X30809524Y-48454819D01*
X30809524Y-48454819D02*
X30809524Y-47454819D01*
X29857143Y-48454819D02*
X30333333Y-48454819D01*
X30333333Y-48454819D02*
X30333333Y-47454819D01*
X29333333Y-47978628D02*
X29333333Y-48454819D01*
X29666666Y-47454819D02*
X29333333Y-47978628D01*
X29333333Y-47978628D02*
X29000000Y-47454819D01*
X26476189Y-47454819D02*
X25857142Y-47454819D01*
X25857142Y-47454819D02*
X26190475Y-47835771D01*
X26190475Y-47835771D02*
X26047618Y-47835771D01*
X26047618Y-47835771D02*
X25952380Y-47883390D01*
X25952380Y-47883390D02*
X25904761Y-47931009D01*
X25904761Y-47931009D02*
X25857142Y-48026247D01*
X25857142Y-48026247D02*
X25857142Y-48264342D01*
X25857142Y-48264342D02*
X25904761Y-48359580D01*
X25904761Y-48359580D02*
X25952380Y-48407200D01*
X25952380Y-48407200D02*
X26047618Y-48454819D01*
X26047618Y-48454819D02*
X26333332Y-48454819D01*
X26333332Y-48454819D02*
X26428570Y-48407200D01*
X26428570Y-48407200D02*
X26476189Y-48359580D01*
X25571427Y-47454819D02*
X25238094Y-48454819D01*
X25238094Y-48454819D02*
X24904761Y-47454819D01*
X24666665Y-47454819D02*
X24047618Y-47454819D01*
X24047618Y-47454819D02*
X24380951Y-47835771D01*
X24380951Y-47835771D02*
X24238094Y-47835771D01*
X24238094Y-47835771D02*
X24142856Y-47883390D01*
X24142856Y-47883390D02*
X24095237Y-47931009D01*
X24095237Y-47931009D02*
X24047618Y-48026247D01*
X24047618Y-48026247D02*
X24047618Y-48264342D01*
X24047618Y-48264342D02*
X24095237Y-48359580D01*
X24095237Y-48359580D02*
X24142856Y-48407200D01*
X24142856Y-48407200D02*
X24238094Y-48454819D01*
X24238094Y-48454819D02*
X24523808Y-48454819D01*
X24523808Y-48454819D02*
X24619046Y-48407200D01*
X24619046Y-48407200D02*
X24666665Y-48359580D01*
X22333332Y-47502438D02*
X22428570Y-47454819D01*
X22428570Y-47454819D02*
X22571427Y-47454819D01*
X22571427Y-47454819D02*
X22714284Y-47502438D01*
X22714284Y-47502438D02*
X22809522Y-47597676D01*
X22809522Y-47597676D02*
X22857141Y-47692914D01*
X22857141Y-47692914D02*
X22904760Y-47883390D01*
X22904760Y-47883390D02*
X22904760Y-48026247D01*
X22904760Y-48026247D02*
X22857141Y-48216723D01*
X22857141Y-48216723D02*
X22809522Y-48311961D01*
X22809522Y-48311961D02*
X22714284Y-48407200D01*
X22714284Y-48407200D02*
X22571427Y-48454819D01*
X22571427Y-48454819D02*
X22476189Y-48454819D01*
X22476189Y-48454819D02*
X22333332Y-48407200D01*
X22333332Y-48407200D02*
X22285713Y-48359580D01*
X22285713Y-48359580D02*
X22285713Y-48026247D01*
X22285713Y-48026247D02*
X22476189Y-48026247D01*
X21857141Y-48454819D02*
X21857141Y-47454819D01*
X21857141Y-47454819D02*
X21476189Y-47454819D01*
X21476189Y-47454819D02*
X21380951Y-47502438D01*
X21380951Y-47502438D02*
X21333332Y-47550057D01*
X21333332Y-47550057D02*
X21285713Y-47645295D01*
X21285713Y-47645295D02*
X21285713Y-47788152D01*
X21285713Y-47788152D02*
X21333332Y-47883390D01*
X21333332Y-47883390D02*
X21380951Y-47931009D01*
X21380951Y-47931009D02*
X21476189Y-47978628D01*
X21476189Y-47978628D02*
X21857141Y-47978628D01*
X20857141Y-48454819D02*
X20857141Y-47454819D01*
X20190475Y-47454819D02*
X19999999Y-47454819D01*
X19999999Y-47454819D02*
X19904761Y-47502438D01*
X19904761Y-47502438D02*
X19809523Y-47597676D01*
X19809523Y-47597676D02*
X19761904Y-47788152D01*
X19761904Y-47788152D02*
X19761904Y-48121485D01*
X19761904Y-48121485D02*
X19809523Y-48311961D01*
X19809523Y-48311961D02*
X19904761Y-48407200D01*
X19904761Y-48407200D02*
X19999999Y-48454819D01*
X19999999Y-48454819D02*
X20190475Y-48454819D01*
X20190475Y-48454819D02*
X20285713Y-48407200D01*
X20285713Y-48407200D02*
X20380951Y-48311961D01*
X20380951Y-48311961D02*
X20428570Y-48121485D01*
X20428570Y-48121485D02*
X20428570Y-47788152D01*
X20428570Y-47788152D02*
X20380951Y-47597676D01*
X20380951Y-47597676D02*
X20285713Y-47502438D01*
X20285713Y-47502438D02*
X20190475Y-47454819D01*
M02*
