%TF.GenerationSoftware,KiCad,Pcbnew,9.0.2+dfsg-1*%
%TF.CreationDate,2026-10-02T13:14:14-04:00*%
%TF.ProjectId,macropad,6d616372-6f70-4616-942e-6b696361645f,rev?*%
%TF.SameCoordinates,Original*%
%TF.FileFunction,AssemblyDrawing,Top*%
%FSLAX46Y46*%
G04 Gerber Fmt 4.6, Leading zero omitted, Abs format (unit mm)*
G04 Created by KiCad (PCBNEW 9.0.2+dfsg-1) date 2026-10-02 13:14:14*
%MOMM*%
%LPD*%
G01*
G04 APERTURE LIST*
%ADD10C,0.130000*%
%ADD11C,0.150000*%
%ADD12C,0.100000*%
%ADD13C,0.120000*%
G04 APERTURE END LIST*
D10*
X19536467Y-20783332D02*
X20143610Y-20783332D01*
X20143610Y-20783332D02*
X20265038Y-20823809D01*
X20265038Y-20823809D02*
X20345991Y-20904761D01*
X20345991Y-20904761D02*
X20386467Y-21026190D01*
X20386467Y-21026190D02*
X20386467Y-21107142D01*
X19536467Y-20459523D02*
X19536467Y-19933332D01*
X19536467Y-19933332D02*
X19860276Y-20216666D01*
X19860276Y-20216666D02*
X19860276Y-20095237D01*
X19860276Y-20095237D02*
X19900752Y-20014285D01*
X19900752Y-20014285D02*
X19941229Y-19973809D01*
X19941229Y-19973809D02*
X20022181Y-19933332D01*
X20022181Y-19933332D02*
X20224562Y-19933332D01*
X20224562Y-19933332D02*
X20305514Y-19973809D01*
X20305514Y-19973809D02*
X20345991Y-20014285D01*
X20345991Y-20014285D02*
X20386467Y-20095237D01*
X20386467Y-20095237D02*
X20386467Y-20338094D01*
X20386467Y-20338094D02*
X20345991Y-20419047D01*
X20345991Y-20419047D02*
X20305514Y-20459523D01*
X19961467Y-21297194D02*
X19961467Y-19738332D01*
D11*
X26016666Y-22454819D02*
X26016666Y-23169104D01*
X26016666Y-23169104D02*
X25969047Y-23311961D01*
X25969047Y-23311961D02*
X25873809Y-23407200D01*
X25873809Y-23407200D02*
X25730952Y-23454819D01*
X25730952Y-23454819D02*
X25635714Y-23454819D01*
X26397619Y-22454819D02*
X27016666Y-22454819D01*
X27016666Y-22454819D02*
X26683333Y-22835771D01*
X26683333Y-22835771D02*
X26826190Y-22835771D01*
X26826190Y-22835771D02*
X26921428Y-22883390D01*
X26921428Y-22883390D02*
X26969047Y-22931009D01*
X26969047Y-22931009D02*
X27016666Y-23026247D01*
X27016666Y-23026247D02*
X27016666Y-23264342D01*
X27016666Y-23264342D02*
X26969047Y-23359580D01*
X26969047Y-23359580D02*
X26921428Y-23407200D01*
X26921428Y-23407200D02*
X26826190Y-23454819D01*
X26826190Y-23454819D02*
X26540476Y-23454819D01*
X26540476Y-23454819D02*
X26445238Y-23407200D01*
X26445238Y-23407200D02*
X26397619Y-23359580D01*
X25416423Y-22954819D02*
X27241666Y-22954819D01*
X98238095Y-111454819D02*
X98238095Y-110454819D01*
X98238095Y-110931009D02*
X98809523Y-110931009D01*
X98809523Y-111454819D02*
X98809523Y-110454819D01*
X99714285Y-110454819D02*
X99523809Y-110454819D01*
X99523809Y-110454819D02*
X99428571Y-110502438D01*
X99428571Y-110502438D02*
X99380952Y-110550057D01*
X99380952Y-110550057D02*
X99285714Y-110692914D01*
X99285714Y-110692914D02*
X99238095Y-110883390D01*
X99238095Y-110883390D02*
X99238095Y-111264342D01*
X99238095Y-111264342D02*
X99285714Y-111359580D01*
X99285714Y-111359580D02*
X99333333Y-111407200D01*
X99333333Y-111407200D02*
X99428571Y-111454819D01*
X99428571Y-111454819D02*
X99619047Y-111454819D01*
X99619047Y-111454819D02*
X99714285Y-111407200D01*
X99714285Y-111407200D02*
X99761904Y-111359580D01*
X99761904Y-111359580D02*
X99809523Y-111264342D01*
X99809523Y-111264342D02*
X99809523Y-111026247D01*
X99809523Y-111026247D02*
X99761904Y-110931009D01*
X99761904Y-110931009D02*
X99714285Y-110883390D01*
X99714285Y-110883390D02*
X99619047Y-110835771D01*
X99619047Y-110835771D02*
X99428571Y-110835771D01*
X99428571Y-110835771D02*
X99333333Y-110883390D01*
X99333333Y-110883390D02*
X99285714Y-110931009D01*
X99285714Y-110931009D02*
X99238095Y-111026247D01*
X98238095Y-63454819D02*
X98238095Y-62454819D01*
X98238095Y-62931009D02*
X98809523Y-62931009D01*
X98809523Y-63454819D02*
X98809523Y-62454819D01*
X99714285Y-62788152D02*
X99714285Y-63454819D01*
X99476190Y-62407200D02*
X99238095Y-63121485D01*
X99238095Y-63121485D02*
X99857142Y-63121485D01*
X98238095Y-9454819D02*
X98238095Y-8454819D01*
X98238095Y-8931009D02*
X98809523Y-8931009D01*
X98809523Y-9454819D02*
X98809523Y-8454819D01*
X99238095Y-8550057D02*
X99285714Y-8502438D01*
X99285714Y-8502438D02*
X99380952Y-8454819D01*
X99380952Y-8454819D02*
X99619047Y-8454819D01*
X99619047Y-8454819D02*
X99714285Y-8502438D01*
X99714285Y-8502438D02*
X99761904Y-8550057D01*
X99761904Y-8550057D02*
X99809523Y-8645295D01*
X99809523Y-8645295D02*
X99809523Y-8740533D01*
X99809523Y-8740533D02*
X99761904Y-8883390D01*
X99761904Y-8883390D02*
X99190476Y-9454819D01*
X99190476Y-9454819D02*
X99809523Y-9454819D01*
D10*
X15042856Y-31941229D02*
X15326190Y-31941229D01*
X15447618Y-32386467D02*
X15042856Y-32386467D01*
X15042856Y-32386467D02*
X15042856Y-31536467D01*
X15042856Y-31536467D02*
X15447618Y-31536467D01*
X15811904Y-32386467D02*
X15811904Y-31536467D01*
X15811904Y-31536467D02*
X16297619Y-32386467D01*
X16297619Y-32386467D02*
X16297619Y-31536467D01*
X17188095Y-32305514D02*
X17147619Y-32345991D01*
X17147619Y-32345991D02*
X17026190Y-32386467D01*
X17026190Y-32386467D02*
X16945238Y-32386467D01*
X16945238Y-32386467D02*
X16823809Y-32345991D01*
X16823809Y-32345991D02*
X16742857Y-32265038D01*
X16742857Y-32265038D02*
X16702380Y-32184086D01*
X16702380Y-32184086D02*
X16661904Y-32022181D01*
X16661904Y-32022181D02*
X16661904Y-31900752D01*
X16661904Y-31900752D02*
X16702380Y-31738848D01*
X16702380Y-31738848D02*
X16742857Y-31657895D01*
X16742857Y-31657895D02*
X16823809Y-31576943D01*
X16823809Y-31576943D02*
X16945238Y-31536467D01*
X16945238Y-31536467D02*
X17026190Y-31536467D01*
X17026190Y-31536467D02*
X17147619Y-31576943D01*
X17147619Y-31576943D02*
X17188095Y-31617419D01*
X17997619Y-32386467D02*
X17511904Y-32386467D01*
X17754761Y-32386467D02*
X17754761Y-31536467D01*
X17754761Y-31536467D02*
X17673809Y-31657895D01*
X17673809Y-31657895D02*
X17592857Y-31738848D01*
X17592857Y-31738848D02*
X17511904Y-31779324D01*
D11*
X25885714Y-40731009D02*
X26219047Y-40731009D01*
X26361904Y-41254819D02*
X25885714Y-41254819D01*
X25885714Y-41254819D02*
X25885714Y-40254819D01*
X25885714Y-40254819D02*
X26361904Y-40254819D01*
X26790476Y-41254819D02*
X26790476Y-40254819D01*
X26790476Y-40254819D02*
X27361904Y-41254819D01*
X27361904Y-41254819D02*
X27361904Y-40254819D01*
X28409523Y-41159580D02*
X28361904Y-41207200D01*
X28361904Y-41207200D02*
X28219047Y-41254819D01*
X28219047Y-41254819D02*
X28123809Y-41254819D01*
X28123809Y-41254819D02*
X27980952Y-41207200D01*
X27980952Y-41207200D02*
X27885714Y-41111961D01*
X27885714Y-41111961D02*
X27838095Y-41016723D01*
X27838095Y-41016723D02*
X27790476Y-40826247D01*
X27790476Y-40826247D02*
X27790476Y-40683390D01*
X27790476Y-40683390D02*
X27838095Y-40492914D01*
X27838095Y-40492914D02*
X27885714Y-40397676D01*
X27885714Y-40397676D02*
X27980952Y-40302438D01*
X27980952Y-40302438D02*
X28123809Y-40254819D01*
X28123809Y-40254819D02*
X28219047Y-40254819D01*
X28219047Y-40254819D02*
X28361904Y-40302438D01*
X28361904Y-40302438D02*
X28409523Y-40350057D01*
X29361904Y-41254819D02*
X28790476Y-41254819D01*
X29076190Y-41254819D02*
X29076190Y-40254819D01*
X29076190Y-40254819D02*
X28980952Y-40397676D01*
X28980952Y-40397676D02*
X28885714Y-40492914D01*
X28885714Y-40492914D02*
X28790476Y-40540533D01*
D10*
X82907143Y-34036467D02*
X82907143Y-34643610D01*
X82907143Y-34643610D02*
X82866666Y-34765038D01*
X82866666Y-34765038D02*
X82785714Y-34845991D01*
X82785714Y-34845991D02*
X82664285Y-34886467D01*
X82664285Y-34886467D02*
X82583333Y-34886467D01*
X83473809Y-34036467D02*
X83635714Y-34036467D01*
X83635714Y-34036467D02*
X83716666Y-34076943D01*
X83716666Y-34076943D02*
X83797619Y-34157895D01*
X83797619Y-34157895D02*
X83838095Y-34319800D01*
X83838095Y-34319800D02*
X83838095Y-34603133D01*
X83838095Y-34603133D02*
X83797619Y-34765038D01*
X83797619Y-34765038D02*
X83716666Y-34845991D01*
X83716666Y-34845991D02*
X83635714Y-34886467D01*
X83635714Y-34886467D02*
X83473809Y-34886467D01*
X83473809Y-34886467D02*
X83392857Y-34845991D01*
X83392857Y-34845991D02*
X83311904Y-34765038D01*
X83311904Y-34765038D02*
X83271428Y-34603133D01*
X83271428Y-34603133D02*
X83271428Y-34319800D01*
X83271428Y-34319800D02*
X83311904Y-34157895D01*
X83311904Y-34157895D02*
X83392857Y-34076943D01*
X83392857Y-34076943D02*
X83473809Y-34036467D01*
X84364285Y-34481705D02*
X84364285Y-34886467D01*
X84080952Y-34036467D02*
X84364285Y-34481705D01*
X84364285Y-34481705D02*
X84647619Y-34036467D01*
X85376190Y-34886467D02*
X84890475Y-34886467D01*
X85133332Y-34886467D02*
X85133332Y-34036467D01*
X85133332Y-34036467D02*
X85052380Y-34157895D01*
X85052380Y-34157895D02*
X84971428Y-34238848D01*
X84971428Y-34238848D02*
X84890475Y-34279324D01*
X90536467Y-91783332D02*
X91143610Y-91783332D01*
X91143610Y-91783332D02*
X91265038Y-91823809D01*
X91265038Y-91823809D02*
X91345991Y-91904761D01*
X91345991Y-91904761D02*
X91386467Y-92026190D01*
X91386467Y-92026190D02*
X91386467Y-92107142D01*
X91386467Y-90933332D02*
X91386467Y-91419047D01*
X91386467Y-91176190D02*
X90536467Y-91176190D01*
X90536467Y-91176190D02*
X90657895Y-91257142D01*
X90657895Y-91257142D02*
X90738848Y-91338094D01*
X90738848Y-91338094D02*
X90779324Y-91419047D01*
X90962085Y-92297194D02*
X90962085Y-90743280D01*
D11*
X94476666Y-93454819D02*
X94476666Y-94169104D01*
X94476666Y-94169104D02*
X94429047Y-94311961D01*
X94429047Y-94311961D02*
X94333809Y-94407200D01*
X94333809Y-94407200D02*
X94190952Y-94454819D01*
X94190952Y-94454819D02*
X94095714Y-94454819D01*
X95476666Y-94454819D02*
X94905238Y-94454819D01*
X95190952Y-94454819D02*
X95190952Y-93454819D01*
X95190952Y-93454819D02*
X95095714Y-93597676D01*
X95095714Y-93597676D02*
X95000476Y-93692914D01*
X95000476Y-93692914D02*
X94905238Y-93740533D01*
X93876423Y-93955532D02*
X95695957Y-93955532D01*
X8238095Y-63454819D02*
X8238095Y-62454819D01*
X8238095Y-62931009D02*
X8809523Y-62931009D01*
X8809523Y-63454819D02*
X8809523Y-62454819D01*
X9190476Y-62454819D02*
X9809523Y-62454819D01*
X9809523Y-62454819D02*
X9476190Y-62835771D01*
X9476190Y-62835771D02*
X9619047Y-62835771D01*
X9619047Y-62835771D02*
X9714285Y-62883390D01*
X9714285Y-62883390D02*
X9761904Y-62931009D01*
X9761904Y-62931009D02*
X9809523Y-63026247D01*
X9809523Y-63026247D02*
X9809523Y-63264342D01*
X9809523Y-63264342D02*
X9761904Y-63359580D01*
X9761904Y-63359580D02*
X9714285Y-63407200D01*
X9714285Y-63407200D02*
X9619047Y-63454819D01*
X9619047Y-63454819D02*
X9333333Y-63454819D01*
X9333333Y-63454819D02*
X9238095Y-63407200D01*
X9238095Y-63407200D02*
X9190476Y-63359580D01*
X8238095Y-9454819D02*
X8238095Y-8454819D01*
X8238095Y-8931009D02*
X8809523Y-8931009D01*
X8809523Y-9454819D02*
X8809523Y-8454819D01*
X9809523Y-9454819D02*
X9238095Y-9454819D01*
X9523809Y-9454819D02*
X9523809Y-8454819D01*
X9523809Y-8454819D02*
X9428571Y-8597676D01*
X9428571Y-8597676D02*
X9333333Y-8692914D01*
X9333333Y-8692914D02*
X9238095Y-8740533D01*
D10*
X18536467Y-12783332D02*
X19143610Y-12783332D01*
X19143610Y-12783332D02*
X19265038Y-12823809D01*
X19265038Y-12823809D02*
X19345991Y-12904761D01*
X19345991Y-12904761D02*
X19386467Y-13026190D01*
X19386467Y-13026190D02*
X19386467Y-13107142D01*
X18617419Y-12419047D02*
X18576943Y-12378571D01*
X18576943Y-12378571D02*
X18536467Y-12297618D01*
X18536467Y-12297618D02*
X18536467Y-12095237D01*
X18536467Y-12095237D02*
X18576943Y-12014285D01*
X18576943Y-12014285D02*
X18617419Y-11973809D01*
X18617419Y-11973809D02*
X18698371Y-11933332D01*
X18698371Y-11933332D02*
X18779324Y-11933332D01*
X18779324Y-11933332D02*
X18900752Y-11973809D01*
X18900752Y-11973809D02*
X19386467Y-12459523D01*
X19386467Y-12459523D02*
X19386467Y-11933332D01*
X18961467Y-13297194D02*
X18961467Y-11738332D01*
D11*
X21206666Y-14454819D02*
X21206666Y-15169104D01*
X21206666Y-15169104D02*
X21159047Y-15311961D01*
X21159047Y-15311961D02*
X21063809Y-15407200D01*
X21063809Y-15407200D02*
X20920952Y-15454819D01*
X20920952Y-15454819D02*
X20825714Y-15454819D01*
X21635238Y-14550057D02*
X21682857Y-14502438D01*
X21682857Y-14502438D02*
X21778095Y-14454819D01*
X21778095Y-14454819D02*
X22016190Y-14454819D01*
X22016190Y-14454819D02*
X22111428Y-14502438D01*
X22111428Y-14502438D02*
X22159047Y-14550057D01*
X22159047Y-14550057D02*
X22206666Y-14645295D01*
X22206666Y-14645295D02*
X22206666Y-14740533D01*
X22206666Y-14740533D02*
X22159047Y-14883390D01*
X22159047Y-14883390D02*
X21587619Y-15454819D01*
X21587619Y-15454819D02*
X22206666Y-15454819D01*
X20606423Y-14954819D02*
X22431666Y-14954819D01*
X8238095Y-111454819D02*
X8238095Y-110454819D01*
X8238095Y-110931009D02*
X8809523Y-110931009D01*
X8809523Y-111454819D02*
X8809523Y-110454819D01*
X9761904Y-110454819D02*
X9285714Y-110454819D01*
X9285714Y-110454819D02*
X9238095Y-110931009D01*
X9238095Y-110931009D02*
X9285714Y-110883390D01*
X9285714Y-110883390D02*
X9380952Y-110835771D01*
X9380952Y-110835771D02*
X9619047Y-110835771D01*
X9619047Y-110835771D02*
X9714285Y-110883390D01*
X9714285Y-110883390D02*
X9761904Y-110931009D01*
X9761904Y-110931009D02*
X9809523Y-111026247D01*
X9809523Y-111026247D02*
X9809523Y-111264342D01*
X9809523Y-111264342D02*
X9761904Y-111359580D01*
X9761904Y-111359580D02*
X9714285Y-111407200D01*
X9714285Y-111407200D02*
X9619047Y-111454819D01*
X9619047Y-111454819D02*
X9380952Y-111454819D01*
X9380952Y-111454819D02*
X9285714Y-111407200D01*
X9285714Y-111407200D02*
X9238095Y-111359580D01*
D12*
X18680000Y-24380000D02*
X18680000Y-23000000D01*
X18560000Y-23000000D02*
G75*
G02*
X18680000Y-23000000I60000J0D01*
G01*
X18560000Y-23000000D02*
X18560000Y-24380000D01*
X18560000Y-24380000D02*
G75*
G03*
X18680000Y-24380000I60000J0D01*
G01*
X18730000Y-21780000D02*
X33970000Y-21780000D01*
X33970000Y-21680000D02*
G75*
G02*
X33970000Y-21780000I0J-50000D01*
G01*
X33970000Y-21680000D02*
X18730000Y-21680000D01*
X18730000Y-21680000D02*
G75*
G03*
X18730000Y-21780000I0J-50000D01*
G01*
X18780000Y-23635000D02*
X18780000Y-21730000D01*
X18680000Y-21730000D02*
G75*
G02*
X18780000Y-21730000I50000J0D01*
G01*
X18680000Y-21730000D02*
X18680000Y-23635000D01*
X18680000Y-23635000D02*
G75*
G03*
X18780000Y-23635000I50000J0D01*
G01*
X19400355Y-24234645D02*
X18765355Y-23599645D01*
X18694645Y-23670355D02*
G75*
G02*
X18765355Y-23599645I35355J35355D01*
G01*
X18694645Y-23670355D02*
X19329645Y-24305355D01*
X19329645Y-24305355D02*
G75*
G03*
X19400355Y-24234645I35355J35355D01*
G01*
X20000000Y-24320000D02*
X18620000Y-24320000D01*
X18620000Y-24440000D02*
G75*
G02*
X18620000Y-24320000I0J60000D01*
G01*
X18620000Y-24440000D02*
X20000000Y-24440000D01*
X20000000Y-24440000D02*
G75*
G03*
X20000000Y-24320000I0J60000D01*
G01*
X21270000Y-21680000D02*
X34080000Y-21680000D01*
X34080000Y-21560000D02*
G75*
G02*
X34080000Y-21680000I0J-60000D01*
G01*
X34080000Y-21560000D02*
X21270000Y-21560000D01*
X21270000Y-21560000D02*
G75*
G03*
X21270000Y-21680000I0J-60000D01*
G01*
X21330000Y-24380000D02*
X21330000Y-21620000D01*
X21210000Y-21620000D02*
G75*
G02*
X21330000Y-21620000I60000J0D01*
G01*
X21210000Y-21620000D02*
X21210000Y-24380000D01*
X21210000Y-24380000D02*
G75*
G03*
X21330000Y-24380000I60000J0D01*
G01*
X21270000Y-24440000D02*
X34080000Y-24440000D01*
X34080000Y-24320000D02*
G75*
G02*
X34080000Y-24440000I0J-60000D01*
G01*
X34080000Y-24320000D02*
X21270000Y-24320000D01*
X21270000Y-24320000D02*
G75*
G03*
X21270000Y-24440000I0J-60000D01*
G01*
X33920000Y-21730000D02*
X33920000Y-24270000D01*
X34020000Y-24270000D02*
G75*
G02*
X33920000Y-24270000I-50000J0D01*
G01*
X34020000Y-24270000D02*
X34020000Y-21730000D01*
X34020000Y-21730000D02*
G75*
G03*
X33920000Y-21730000I-50000J0D01*
G01*
X33970000Y-24220000D02*
X19365000Y-24220000D01*
X19365000Y-24320000D02*
G75*
G02*
X19365000Y-24220000I0J50000D01*
G01*
X19365000Y-24320000D02*
X33970000Y-24320000D01*
X33970000Y-24320000D02*
G75*
G03*
X33970000Y-24220000I0J50000D01*
G01*
X34140000Y-24380000D02*
X34140000Y-21620000D01*
X34020000Y-21620000D02*
G75*
G02*
X34140000Y-21620000I60000J0D01*
G01*
X34020000Y-21620000D02*
X34020000Y-24380000D01*
X34020000Y-24380000D02*
G75*
G03*
X34140000Y-24380000I60000J0D01*
G01*
D13*
%TO.C,ENC1*%
X16200000Y-32900000D02*
X16800000Y-32900000D01*
X16500000Y-33200000D02*
X16200000Y-32900000D01*
X16800000Y-32900000D02*
X16500000Y-33200000D01*
X17900000Y-31100000D02*
X17900000Y-42900000D01*
X18000000Y-32300000D02*
X19000000Y-31200000D01*
X18000000Y-42800000D02*
X18000000Y-32300000D01*
X19000000Y-31200000D02*
X30000000Y-31200000D01*
X21000000Y-37000000D02*
X27000000Y-37000000D01*
X22000000Y-31100000D02*
X17900000Y-31100000D01*
X22000000Y-42900000D02*
X17900000Y-42900000D01*
X23500000Y-37000000D02*
X24500000Y-37000000D01*
X24000000Y-34000000D02*
X24000000Y-40000000D01*
X24000000Y-36500000D02*
X24000000Y-37500000D01*
X26000000Y-31100000D02*
X30100000Y-31100000D01*
X30000000Y-31200000D02*
X30000000Y-42800000D01*
X30000000Y-42800000D02*
X18000000Y-42800000D01*
X30100000Y-31100000D02*
X30100000Y-33500000D01*
X30100000Y-35700000D02*
X30100000Y-38300000D01*
X30100000Y-40500000D02*
X30100000Y-42900000D01*
X30100000Y-42900000D02*
X26000000Y-42900000D01*
X27000000Y-37000000D02*
G75*
G02*
X21000000Y-37000000I-3000000J0D01*
G01*
X21000000Y-37000000D02*
G75*
G02*
X27000000Y-37000000I3000000J0D01*
G01*
X27000000Y-37000000D02*
G75*
G02*
X21000000Y-37000000I-3000000J0D01*
G01*
X21000000Y-37000000D02*
G75*
G02*
X27000000Y-37000000I3000000J0D01*
G01*
D12*
%TO.C,JOY1*%
X75900000Y-27600000D02*
X93700000Y-27600000D01*
X75900000Y-48900000D02*
X75900000Y-27600000D01*
X77425000Y-30425000D02*
X90575000Y-30425000D01*
X77425000Y-43575000D02*
X77425000Y-30425000D01*
X90575000Y-30425000D02*
X90575000Y-43575000D01*
X90575000Y-43575000D02*
X77425000Y-43575000D01*
X93700000Y-27600000D02*
X93700000Y-48900000D01*
X93700000Y-48900000D02*
X75900000Y-48900000D01*
X89680000Y-95380000D02*
X89680000Y-94000000D01*
X89560000Y-94000000D02*
G75*
G02*
X89680000Y-94000000I60000J0D01*
G01*
X89560000Y-94000000D02*
X89560000Y-95380000D01*
X89560000Y-95380000D02*
G75*
G03*
X89680000Y-95380000I60000J0D01*
G01*
X89730000Y-92780000D02*
X99890000Y-92780000D01*
X99890000Y-92680000D02*
G75*
G02*
X99890000Y-92780000I0J-50000D01*
G01*
X99890000Y-92680000D02*
X89730000Y-92680000D01*
X89730000Y-92680000D02*
G75*
G03*
X89730000Y-92780000I0J-50000D01*
G01*
X89780000Y-94635000D02*
X89780000Y-92730000D01*
X89680000Y-92730000D02*
G75*
G02*
X89780000Y-92730000I50000J0D01*
G01*
X89680000Y-92730000D02*
X89680000Y-94635000D01*
X89680000Y-94635000D02*
G75*
G03*
X89780000Y-94635000I50000J0D01*
G01*
X90400355Y-95234645D02*
X89765355Y-94599645D01*
X89694645Y-94670355D02*
G75*
G02*
X89765355Y-94599645I35355J35355D01*
G01*
X89694645Y-94670355D02*
X90329645Y-95305355D01*
X90329645Y-95305355D02*
G75*
G03*
X90400355Y-95234645I35355J35355D01*
G01*
X91000000Y-95320000D02*
X89620000Y-95320000D01*
X89620000Y-95440000D02*
G75*
G02*
X89620000Y-95320000I0J60000D01*
G01*
X89620000Y-95440000D02*
X91000000Y-95440000D01*
X91000000Y-95440000D02*
G75*
G03*
X91000000Y-95320000I0J60000D01*
G01*
X92270000Y-92680000D02*
X100000000Y-92680000D01*
X100000000Y-92560000D02*
G75*
G02*
X100000000Y-92680000I0J-60000D01*
G01*
X100000000Y-92560000D02*
X92270000Y-92560000D01*
X92270000Y-92560000D02*
G75*
G03*
X92270000Y-92680000I0J-60000D01*
G01*
X92330000Y-95380000D02*
X92330000Y-92620000D01*
X92210000Y-92620000D02*
G75*
G02*
X92330000Y-92620000I60000J0D01*
G01*
X92210000Y-92620000D02*
X92210000Y-95380000D01*
X92210000Y-95380000D02*
G75*
G03*
X92330000Y-95380000I60000J0D01*
G01*
X92270000Y-95440000D02*
X100000000Y-95440000D01*
X100000000Y-95320000D02*
G75*
G02*
X100000000Y-95440000I0J-60000D01*
G01*
X100000000Y-95320000D02*
X92270000Y-95320000D01*
X92270000Y-95320000D02*
G75*
G03*
X92270000Y-95440000I0J-60000D01*
G01*
X99840000Y-92730000D02*
X99840000Y-95270000D01*
X99940000Y-95270000D02*
G75*
G02*
X99840000Y-95270000I-50000J0D01*
G01*
X99940000Y-95270000D02*
X99940000Y-92730000D01*
X99940000Y-92730000D02*
G75*
G03*
X99840000Y-92730000I-50000J0D01*
G01*
X99890000Y-95220000D02*
X90365000Y-95220000D01*
X90365000Y-95320000D02*
G75*
G02*
X90365000Y-95220000I0J50000D01*
G01*
X90365000Y-95320000D02*
X99890000Y-95320000D01*
X99890000Y-95320000D02*
G75*
G03*
X99890000Y-95220000I0J50000D01*
G01*
X100060000Y-95380000D02*
X100060000Y-92620000D01*
X99940000Y-92620000D02*
G75*
G02*
X100060000Y-92620000I60000J0D01*
G01*
X99940000Y-92620000D02*
X99940000Y-95380000D01*
X99940000Y-95380000D02*
G75*
G03*
X100060000Y-95380000I60000J0D01*
G01*
X17680000Y-16380000D02*
X17680000Y-15000000D01*
X17560000Y-15000000D02*
G75*
G02*
X17680000Y-15000000I60000J0D01*
G01*
X17560000Y-15000000D02*
X17560000Y-16380000D01*
X17560000Y-16380000D02*
G75*
G03*
X17680000Y-16380000I60000J0D01*
G01*
X17730000Y-13780000D02*
X25350000Y-13780000D01*
X25350000Y-13680000D02*
G75*
G02*
X25350000Y-13780000I0J-50000D01*
G01*
X25350000Y-13680000D02*
X17730000Y-13680000D01*
X17730000Y-13680000D02*
G75*
G03*
X17730000Y-13780000I0J-50000D01*
G01*
X17780000Y-15635000D02*
X17780000Y-13730000D01*
X17680000Y-13730000D02*
G75*
G02*
X17780000Y-13730000I50000J0D01*
G01*
X17680000Y-13730000D02*
X17680000Y-15635000D01*
X17680000Y-15635000D02*
G75*
G03*
X17780000Y-15635000I50000J0D01*
G01*
X18400355Y-16234645D02*
X17765355Y-15599645D01*
X17694645Y-15670355D02*
G75*
G02*
X17765355Y-15599645I35355J35355D01*
G01*
X17694645Y-15670355D02*
X18329645Y-16305355D01*
X18329645Y-16305355D02*
G75*
G03*
X18400355Y-16234645I35355J35355D01*
G01*
X19000000Y-16320000D02*
X17620000Y-16320000D01*
X17620000Y-16440000D02*
G75*
G02*
X17620000Y-16320000I0J60000D01*
G01*
X17620000Y-16440000D02*
X19000000Y-16440000D01*
X19000000Y-16440000D02*
G75*
G03*
X19000000Y-16320000I0J60000D01*
G01*
X20270000Y-13680000D02*
X25460000Y-13680000D01*
X25460000Y-13560000D02*
G75*
G02*
X25460000Y-13680000I0J-60000D01*
G01*
X25460000Y-13560000D02*
X20270000Y-13560000D01*
X20270000Y-13560000D02*
G75*
G03*
X20270000Y-13680000I0J-60000D01*
G01*
X20330000Y-16380000D02*
X20330000Y-13620000D01*
X20210000Y-13620000D02*
G75*
G02*
X20330000Y-13620000I60000J0D01*
G01*
X20210000Y-13620000D02*
X20210000Y-16380000D01*
X20210000Y-16380000D02*
G75*
G03*
X20330000Y-16380000I60000J0D01*
G01*
X20270000Y-16440000D02*
X25460000Y-16440000D01*
X25460000Y-16320000D02*
G75*
G02*
X25460000Y-16440000I0J-60000D01*
G01*
X25460000Y-16320000D02*
X20270000Y-16320000D01*
X20270000Y-16320000D02*
G75*
G03*
X20270000Y-16440000I0J-60000D01*
G01*
X25300000Y-13730000D02*
X25300000Y-16270000D01*
X25400000Y-16270000D02*
G75*
G02*
X25300000Y-16270000I-50000J0D01*
G01*
X25400000Y-16270000D02*
X25400000Y-13730000D01*
X25400000Y-13730000D02*
G75*
G03*
X25300000Y-13730000I-50000J0D01*
G01*
X25350000Y-16220000D02*
X18365000Y-16220000D01*
X18365000Y-16320000D02*
G75*
G02*
X18365000Y-16220000I0J50000D01*
G01*
X18365000Y-16320000D02*
X25350000Y-16320000D01*
X25350000Y-16320000D02*
G75*
G03*
X25350000Y-16220000I0J50000D01*
G01*
X25520000Y-16380000D02*
X25520000Y-13620000D01*
X25400000Y-13620000D02*
G75*
G02*
X25520000Y-13620000I60000J0D01*
G01*
X25400000Y-13620000D02*
X25400000Y-16380000D01*
X25400000Y-16380000D02*
G75*
G03*
X25520000Y-16380000I60000J0D01*
G01*
%TD*%
X18205000Y-21205000D02*
X34495000Y-24795000D01*
X18205000Y-24795000D02*
X34495000Y-21205000D01*
X89205000Y-92205000D02*
X100415000Y-95795000D01*
X89205000Y-95795000D02*
X100415000Y-92205000D01*
X17205000Y-13205000D02*
X25875000Y-16795000D01*
X17205000Y-16795000D02*
X25875000Y-13205000D01*
M02*
