%TF.GenerationSoftware,KiCad,Pcbnew,9.0.2+dfsg-1*%
%TF.CreationDate,2026-10-02T13:14:14-04:00*%
%TF.ProjectId,macropad,6d616372-6f70-4616-942e-6b696361645f,rev?*%
%TF.SameCoordinates,Original*%
%TF.FileFunction,AssemblyDrawing,Bot*%
%FSLAX46Y46*%
G04 Gerber Fmt 4.6, Leading zero omitted, Abs format (unit mm)*
G04 Created by KiCad (PCBNEW 9.0.2+dfsg-1) date 2026-10-02 13:14:14*
%MOMM*%
%LPD*%
G01*
G04 APERTURE LIST*
%ADD10C,0.130000*%
%ADD11C,0.150000*%
%ADD12C,0.060000*%
%ADD13C,0.100000*%
%ADD14C,0.120000*%
G04 APERTURE END LIST*
D10*
X45133333Y-46345991D02*
X45011904Y-46386467D01*
X45011904Y-46386467D02*
X44809523Y-46386467D01*
X44809523Y-46386467D02*
X44728571Y-46345991D01*
X44728571Y-46345991D02*
X44688095Y-46305514D01*
X44688095Y-46305514D02*
X44647618Y-46224562D01*
X44647618Y-46224562D02*
X44647618Y-46143610D01*
X44647618Y-46143610D02*
X44688095Y-46062657D01*
X44688095Y-46062657D02*
X44728571Y-46022181D01*
X44728571Y-46022181D02*
X44809523Y-45981705D01*
X44809523Y-45981705D02*
X44971428Y-45941229D01*
X44971428Y-45941229D02*
X45052380Y-45900752D01*
X45052380Y-45900752D02*
X45092857Y-45860276D01*
X45092857Y-45860276D02*
X45133333Y-45779324D01*
X45133333Y-45779324D02*
X45133333Y-45698371D01*
X45133333Y-45698371D02*
X45092857Y-45617419D01*
X45092857Y-45617419D02*
X45052380Y-45576943D01*
X45052380Y-45576943D02*
X44971428Y-45536467D01*
X44971428Y-45536467D02*
X44769047Y-45536467D01*
X44769047Y-45536467D02*
X44647618Y-45576943D01*
X44364285Y-45536467D02*
X44161904Y-46386467D01*
X44161904Y-46386467D02*
X43999999Y-45779324D01*
X43999999Y-45779324D02*
X43838094Y-46386467D01*
X43838094Y-46386467D02*
X43635714Y-45536467D01*
X42866665Y-46386467D02*
X43352380Y-46386467D01*
X43109523Y-46386467D02*
X43109523Y-45536467D01*
X43109523Y-45536467D02*
X43190475Y-45657895D01*
X43190475Y-45657895D02*
X43271427Y-45738848D01*
X43271427Y-45738848D02*
X43352380Y-45779324D01*
X85133333Y-68345991D02*
X85011904Y-68386467D01*
X85011904Y-68386467D02*
X84809523Y-68386467D01*
X84809523Y-68386467D02*
X84728571Y-68345991D01*
X84728571Y-68345991D02*
X84688095Y-68305514D01*
X84688095Y-68305514D02*
X84647618Y-68224562D01*
X84647618Y-68224562D02*
X84647618Y-68143610D01*
X84647618Y-68143610D02*
X84688095Y-68062657D01*
X84688095Y-68062657D02*
X84728571Y-68022181D01*
X84728571Y-68022181D02*
X84809523Y-67981705D01*
X84809523Y-67981705D02*
X84971428Y-67941229D01*
X84971428Y-67941229D02*
X85052380Y-67900752D01*
X85052380Y-67900752D02*
X85092857Y-67860276D01*
X85092857Y-67860276D02*
X85133333Y-67779324D01*
X85133333Y-67779324D02*
X85133333Y-67698371D01*
X85133333Y-67698371D02*
X85092857Y-67617419D01*
X85092857Y-67617419D02*
X85052380Y-67576943D01*
X85052380Y-67576943D02*
X84971428Y-67536467D01*
X84971428Y-67536467D02*
X84769047Y-67536467D01*
X84769047Y-67536467D02*
X84647618Y-67576943D01*
X84364285Y-67536467D02*
X84161904Y-68386467D01*
X84161904Y-68386467D02*
X83999999Y-67779324D01*
X83999999Y-67779324D02*
X83838094Y-68386467D01*
X83838094Y-68386467D02*
X83635714Y-67536467D01*
X82947618Y-67536467D02*
X83109523Y-67536467D01*
X83109523Y-67536467D02*
X83190475Y-67576943D01*
X83190475Y-67576943D02*
X83230951Y-67617419D01*
X83230951Y-67617419D02*
X83311904Y-67738848D01*
X83311904Y-67738848D02*
X83352380Y-67900752D01*
X83352380Y-67900752D02*
X83352380Y-68224562D01*
X83352380Y-68224562D02*
X83311904Y-68305514D01*
X83311904Y-68305514D02*
X83271427Y-68345991D01*
X83271427Y-68345991D02*
X83190475Y-68386467D01*
X83190475Y-68386467D02*
X83028570Y-68386467D01*
X83028570Y-68386467D02*
X82947618Y-68345991D01*
X82947618Y-68345991D02*
X82907142Y-68305514D01*
X82907142Y-68305514D02*
X82866665Y-68224562D01*
X82866665Y-68224562D02*
X82866665Y-68022181D01*
X82866665Y-68022181D02*
X82907142Y-67941229D01*
X82907142Y-67941229D02*
X82947618Y-67900752D01*
X82947618Y-67900752D02*
X83028570Y-67860276D01*
X83028570Y-67860276D02*
X83190475Y-67860276D01*
X83190475Y-67860276D02*
X83271427Y-67900752D01*
X83271427Y-67900752D02*
X83311904Y-67941229D01*
X83311904Y-67941229D02*
X83352380Y-68022181D01*
X71032143Y-104886467D02*
X71032143Y-104036467D01*
X71032143Y-104036467D02*
X70829762Y-104036467D01*
X70829762Y-104036467D02*
X70708333Y-104076943D01*
X70708333Y-104076943D02*
X70627381Y-104157895D01*
X70627381Y-104157895D02*
X70586904Y-104238848D01*
X70586904Y-104238848D02*
X70546428Y-104400752D01*
X70546428Y-104400752D02*
X70546428Y-104522181D01*
X70546428Y-104522181D02*
X70586904Y-104684086D01*
X70586904Y-104684086D02*
X70627381Y-104765038D01*
X70627381Y-104765038D02*
X70708333Y-104845991D01*
X70708333Y-104845991D02*
X70829762Y-104886467D01*
X70829762Y-104886467D02*
X71032143Y-104886467D01*
X69736904Y-104886467D02*
X70222619Y-104886467D01*
X69979762Y-104886467D02*
X69979762Y-104036467D01*
X69979762Y-104036467D02*
X70060714Y-104157895D01*
X70060714Y-104157895D02*
X70141666Y-104238848D01*
X70141666Y-104238848D02*
X70222619Y-104279324D01*
X69453571Y-104036467D02*
X68927380Y-104036467D01*
X68927380Y-104036467D02*
X69210714Y-104360276D01*
X69210714Y-104360276D02*
X69089285Y-104360276D01*
X69089285Y-104360276D02*
X69008333Y-104400752D01*
X69008333Y-104400752D02*
X68967857Y-104441229D01*
X68967857Y-104441229D02*
X68927380Y-104522181D01*
X68927380Y-104522181D02*
X68927380Y-104724562D01*
X68927380Y-104724562D02*
X68967857Y-104805514D01*
X68967857Y-104805514D02*
X69008333Y-104845991D01*
X69008333Y-104845991D02*
X69089285Y-104886467D01*
X69089285Y-104886467D02*
X69332142Y-104886467D01*
X69332142Y-104886467D02*
X69413095Y-104845991D01*
X69413095Y-104845991D02*
X69453571Y-104805514D01*
D11*
X71214285Y-109454819D02*
X71214285Y-108454819D01*
X71214285Y-108454819D02*
X70976190Y-108454819D01*
X70976190Y-108454819D02*
X70833333Y-108502438D01*
X70833333Y-108502438D02*
X70738095Y-108597676D01*
X70738095Y-108597676D02*
X70690476Y-108692914D01*
X70690476Y-108692914D02*
X70642857Y-108883390D01*
X70642857Y-108883390D02*
X70642857Y-109026247D01*
X70642857Y-109026247D02*
X70690476Y-109216723D01*
X70690476Y-109216723D02*
X70738095Y-109311961D01*
X70738095Y-109311961D02*
X70833333Y-109407200D01*
X70833333Y-109407200D02*
X70976190Y-109454819D01*
X70976190Y-109454819D02*
X71214285Y-109454819D01*
X69690476Y-109454819D02*
X70261904Y-109454819D01*
X69976190Y-109454819D02*
X69976190Y-108454819D01*
X69976190Y-108454819D02*
X70071428Y-108597676D01*
X70071428Y-108597676D02*
X70166666Y-108692914D01*
X70166666Y-108692914D02*
X70261904Y-108740533D01*
X69357142Y-108454819D02*
X68738095Y-108454819D01*
X68738095Y-108454819D02*
X69071428Y-108835771D01*
X69071428Y-108835771D02*
X68928571Y-108835771D01*
X68928571Y-108835771D02*
X68833333Y-108883390D01*
X68833333Y-108883390D02*
X68785714Y-108931009D01*
X68785714Y-108931009D02*
X68738095Y-109026247D01*
X68738095Y-109026247D02*
X68738095Y-109264342D01*
X68738095Y-109264342D02*
X68785714Y-109359580D01*
X68785714Y-109359580D02*
X68833333Y-109407200D01*
X68833333Y-109407200D02*
X68928571Y-109454819D01*
X68928571Y-109454819D02*
X69214285Y-109454819D01*
X69214285Y-109454819D02*
X69309523Y-109407200D01*
X69309523Y-109407200D02*
X69357142Y-109359580D01*
D10*
X65538095Y-108345991D02*
X65416666Y-108386467D01*
X65416666Y-108386467D02*
X65214285Y-108386467D01*
X65214285Y-108386467D02*
X65133333Y-108345991D01*
X65133333Y-108345991D02*
X65092857Y-108305514D01*
X65092857Y-108305514D02*
X65052380Y-108224562D01*
X65052380Y-108224562D02*
X65052380Y-108143610D01*
X65052380Y-108143610D02*
X65092857Y-108062657D01*
X65092857Y-108062657D02*
X65133333Y-108022181D01*
X65133333Y-108022181D02*
X65214285Y-107981705D01*
X65214285Y-107981705D02*
X65376190Y-107941229D01*
X65376190Y-107941229D02*
X65457142Y-107900752D01*
X65457142Y-107900752D02*
X65497619Y-107860276D01*
X65497619Y-107860276D02*
X65538095Y-107779324D01*
X65538095Y-107779324D02*
X65538095Y-107698371D01*
X65538095Y-107698371D02*
X65497619Y-107617419D01*
X65497619Y-107617419D02*
X65457142Y-107576943D01*
X65457142Y-107576943D02*
X65376190Y-107536467D01*
X65376190Y-107536467D02*
X65173809Y-107536467D01*
X65173809Y-107536467D02*
X65052380Y-107576943D01*
X64769047Y-107536467D02*
X64566666Y-108386467D01*
X64566666Y-108386467D02*
X64404761Y-107779324D01*
X64404761Y-107779324D02*
X64242856Y-108386467D01*
X64242856Y-108386467D02*
X64040476Y-107536467D01*
X63271427Y-108386467D02*
X63757142Y-108386467D01*
X63514285Y-108386467D02*
X63514285Y-107536467D01*
X63514285Y-107536467D02*
X63595237Y-107657895D01*
X63595237Y-107657895D02*
X63676189Y-107738848D01*
X63676189Y-107738848D02*
X63757142Y-107779324D01*
X62988094Y-107536467D02*
X62461903Y-107536467D01*
X62461903Y-107536467D02*
X62745237Y-107860276D01*
X62745237Y-107860276D02*
X62623808Y-107860276D01*
X62623808Y-107860276D02*
X62542856Y-107900752D01*
X62542856Y-107900752D02*
X62502380Y-107941229D01*
X62502380Y-107941229D02*
X62461903Y-108022181D01*
X62461903Y-108022181D02*
X62461903Y-108224562D01*
X62461903Y-108224562D02*
X62502380Y-108305514D01*
X62502380Y-108305514D02*
X62542856Y-108345991D01*
X62542856Y-108345991D02*
X62623808Y-108386467D01*
X62623808Y-108386467D02*
X62866665Y-108386467D01*
X62866665Y-108386467D02*
X62947618Y-108345991D01*
X62947618Y-108345991D02*
X62988094Y-108305514D01*
X30627381Y-64886467D02*
X30627381Y-64036467D01*
X30627381Y-64036467D02*
X30425000Y-64036467D01*
X30425000Y-64036467D02*
X30303571Y-64076943D01*
X30303571Y-64076943D02*
X30222619Y-64157895D01*
X30222619Y-64157895D02*
X30182142Y-64238848D01*
X30182142Y-64238848D02*
X30141666Y-64400752D01*
X30141666Y-64400752D02*
X30141666Y-64522181D01*
X30141666Y-64522181D02*
X30182142Y-64684086D01*
X30182142Y-64684086D02*
X30222619Y-64765038D01*
X30222619Y-64765038D02*
X30303571Y-64845991D01*
X30303571Y-64845991D02*
X30425000Y-64886467D01*
X30425000Y-64886467D02*
X30627381Y-64886467D01*
X29858333Y-64036467D02*
X29332142Y-64036467D01*
X29332142Y-64036467D02*
X29615476Y-64360276D01*
X29615476Y-64360276D02*
X29494047Y-64360276D01*
X29494047Y-64360276D02*
X29413095Y-64400752D01*
X29413095Y-64400752D02*
X29372619Y-64441229D01*
X29372619Y-64441229D02*
X29332142Y-64522181D01*
X29332142Y-64522181D02*
X29332142Y-64724562D01*
X29332142Y-64724562D02*
X29372619Y-64805514D01*
X29372619Y-64805514D02*
X29413095Y-64845991D01*
X29413095Y-64845991D02*
X29494047Y-64886467D01*
X29494047Y-64886467D02*
X29736904Y-64886467D01*
X29736904Y-64886467D02*
X29817857Y-64845991D01*
X29817857Y-64845991D02*
X29858333Y-64805514D01*
D11*
X30738094Y-69454819D02*
X30738094Y-68454819D01*
X30738094Y-68454819D02*
X30499999Y-68454819D01*
X30499999Y-68454819D02*
X30357142Y-68502438D01*
X30357142Y-68502438D02*
X30261904Y-68597676D01*
X30261904Y-68597676D02*
X30214285Y-68692914D01*
X30214285Y-68692914D02*
X30166666Y-68883390D01*
X30166666Y-68883390D02*
X30166666Y-69026247D01*
X30166666Y-69026247D02*
X30214285Y-69216723D01*
X30214285Y-69216723D02*
X30261904Y-69311961D01*
X30261904Y-69311961D02*
X30357142Y-69407200D01*
X30357142Y-69407200D02*
X30499999Y-69454819D01*
X30499999Y-69454819D02*
X30738094Y-69454819D01*
X29833332Y-68454819D02*
X29214285Y-68454819D01*
X29214285Y-68454819D02*
X29547618Y-68835771D01*
X29547618Y-68835771D02*
X29404761Y-68835771D01*
X29404761Y-68835771D02*
X29309523Y-68883390D01*
X29309523Y-68883390D02*
X29261904Y-68931009D01*
X29261904Y-68931009D02*
X29214285Y-69026247D01*
X29214285Y-69026247D02*
X29214285Y-69264342D01*
X29214285Y-69264342D02*
X29261904Y-69359580D01*
X29261904Y-69359580D02*
X29309523Y-69407200D01*
X29309523Y-69407200D02*
X29404761Y-69454819D01*
X29404761Y-69454819D02*
X29690475Y-69454819D01*
X29690475Y-69454819D02*
X29785713Y-69407200D01*
X29785713Y-69407200D02*
X29833332Y-69359580D01*
D10*
X70627381Y-42886467D02*
X70627381Y-42036467D01*
X70627381Y-42036467D02*
X70425000Y-42036467D01*
X70425000Y-42036467D02*
X70303571Y-42076943D01*
X70303571Y-42076943D02*
X70222619Y-42157895D01*
X70222619Y-42157895D02*
X70182142Y-42238848D01*
X70182142Y-42238848D02*
X70141666Y-42400752D01*
X70141666Y-42400752D02*
X70141666Y-42522181D01*
X70141666Y-42522181D02*
X70182142Y-42684086D01*
X70182142Y-42684086D02*
X70222619Y-42765038D01*
X70222619Y-42765038D02*
X70303571Y-42845991D01*
X70303571Y-42845991D02*
X70425000Y-42886467D01*
X70425000Y-42886467D02*
X70627381Y-42886467D01*
X69817857Y-42117419D02*
X69777381Y-42076943D01*
X69777381Y-42076943D02*
X69696428Y-42036467D01*
X69696428Y-42036467D02*
X69494047Y-42036467D01*
X69494047Y-42036467D02*
X69413095Y-42076943D01*
X69413095Y-42076943D02*
X69372619Y-42117419D01*
X69372619Y-42117419D02*
X69332142Y-42198371D01*
X69332142Y-42198371D02*
X69332142Y-42279324D01*
X69332142Y-42279324D02*
X69372619Y-42400752D01*
X69372619Y-42400752D02*
X69858333Y-42886467D01*
X69858333Y-42886467D02*
X69332142Y-42886467D01*
D11*
X70738094Y-47454819D02*
X70738094Y-46454819D01*
X70738094Y-46454819D02*
X70499999Y-46454819D01*
X70499999Y-46454819D02*
X70357142Y-46502438D01*
X70357142Y-46502438D02*
X70261904Y-46597676D01*
X70261904Y-46597676D02*
X70214285Y-46692914D01*
X70214285Y-46692914D02*
X70166666Y-46883390D01*
X70166666Y-46883390D02*
X70166666Y-47026247D01*
X70166666Y-47026247D02*
X70214285Y-47216723D01*
X70214285Y-47216723D02*
X70261904Y-47311961D01*
X70261904Y-47311961D02*
X70357142Y-47407200D01*
X70357142Y-47407200D02*
X70499999Y-47454819D01*
X70499999Y-47454819D02*
X70738094Y-47454819D01*
X69785713Y-46550057D02*
X69738094Y-46502438D01*
X69738094Y-46502438D02*
X69642856Y-46454819D01*
X69642856Y-46454819D02*
X69404761Y-46454819D01*
X69404761Y-46454819D02*
X69309523Y-46502438D01*
X69309523Y-46502438D02*
X69261904Y-46550057D01*
X69261904Y-46550057D02*
X69214285Y-46645295D01*
X69214285Y-46645295D02*
X69214285Y-46740533D01*
X69214285Y-46740533D02*
X69261904Y-46883390D01*
X69261904Y-46883390D02*
X69833332Y-47454819D01*
X69833332Y-47454819D02*
X69214285Y-47454819D01*
D10*
X65133333Y-88345991D02*
X65011904Y-88386467D01*
X65011904Y-88386467D02*
X64809523Y-88386467D01*
X64809523Y-88386467D02*
X64728571Y-88345991D01*
X64728571Y-88345991D02*
X64688095Y-88305514D01*
X64688095Y-88305514D02*
X64647618Y-88224562D01*
X64647618Y-88224562D02*
X64647618Y-88143610D01*
X64647618Y-88143610D02*
X64688095Y-88062657D01*
X64688095Y-88062657D02*
X64728571Y-88022181D01*
X64728571Y-88022181D02*
X64809523Y-87981705D01*
X64809523Y-87981705D02*
X64971428Y-87941229D01*
X64971428Y-87941229D02*
X65052380Y-87900752D01*
X65052380Y-87900752D02*
X65092857Y-87860276D01*
X65092857Y-87860276D02*
X65133333Y-87779324D01*
X65133333Y-87779324D02*
X65133333Y-87698371D01*
X65133333Y-87698371D02*
X65092857Y-87617419D01*
X65092857Y-87617419D02*
X65052380Y-87576943D01*
X65052380Y-87576943D02*
X64971428Y-87536467D01*
X64971428Y-87536467D02*
X64769047Y-87536467D01*
X64769047Y-87536467D02*
X64647618Y-87576943D01*
X64364285Y-87536467D02*
X64161904Y-88386467D01*
X64161904Y-88386467D02*
X63999999Y-87779324D01*
X63999999Y-87779324D02*
X63838094Y-88386467D01*
X63838094Y-88386467D02*
X63635714Y-87536467D01*
X63271427Y-88386467D02*
X63109523Y-88386467D01*
X63109523Y-88386467D02*
X63028570Y-88345991D01*
X63028570Y-88345991D02*
X62988094Y-88305514D01*
X62988094Y-88305514D02*
X62907142Y-88184086D01*
X62907142Y-88184086D02*
X62866665Y-88022181D01*
X62866665Y-88022181D02*
X62866665Y-87698371D01*
X62866665Y-87698371D02*
X62907142Y-87617419D01*
X62907142Y-87617419D02*
X62947618Y-87576943D01*
X62947618Y-87576943D02*
X63028570Y-87536467D01*
X63028570Y-87536467D02*
X63190475Y-87536467D01*
X63190475Y-87536467D02*
X63271427Y-87576943D01*
X63271427Y-87576943D02*
X63311904Y-87617419D01*
X63311904Y-87617419D02*
X63352380Y-87698371D01*
X63352380Y-87698371D02*
X63352380Y-87900752D01*
X63352380Y-87900752D02*
X63311904Y-87981705D01*
X63311904Y-87981705D02*
X63271427Y-88022181D01*
X63271427Y-88022181D02*
X63190475Y-88062657D01*
X63190475Y-88062657D02*
X63028570Y-88062657D01*
X63028570Y-88062657D02*
X62947618Y-88022181D01*
X62947618Y-88022181D02*
X62907142Y-87981705D01*
X62907142Y-87981705D02*
X62866665Y-87900752D01*
X31032143Y-104886467D02*
X31032143Y-104036467D01*
X31032143Y-104036467D02*
X30829762Y-104036467D01*
X30829762Y-104036467D02*
X30708333Y-104076943D01*
X30708333Y-104076943D02*
X30627381Y-104157895D01*
X30627381Y-104157895D02*
X30586904Y-104238848D01*
X30586904Y-104238848D02*
X30546428Y-104400752D01*
X30546428Y-104400752D02*
X30546428Y-104522181D01*
X30546428Y-104522181D02*
X30586904Y-104684086D01*
X30586904Y-104684086D02*
X30627381Y-104765038D01*
X30627381Y-104765038D02*
X30708333Y-104845991D01*
X30708333Y-104845991D02*
X30829762Y-104886467D01*
X30829762Y-104886467D02*
X31032143Y-104886467D01*
X29736904Y-104886467D02*
X30222619Y-104886467D01*
X29979762Y-104886467D02*
X29979762Y-104036467D01*
X29979762Y-104036467D02*
X30060714Y-104157895D01*
X30060714Y-104157895D02*
X30141666Y-104238848D01*
X30141666Y-104238848D02*
X30222619Y-104279324D01*
X28927380Y-104886467D02*
X29413095Y-104886467D01*
X29170238Y-104886467D02*
X29170238Y-104036467D01*
X29170238Y-104036467D02*
X29251190Y-104157895D01*
X29251190Y-104157895D02*
X29332142Y-104238848D01*
X29332142Y-104238848D02*
X29413095Y-104279324D01*
D11*
X31214285Y-109454819D02*
X31214285Y-108454819D01*
X31214285Y-108454819D02*
X30976190Y-108454819D01*
X30976190Y-108454819D02*
X30833333Y-108502438D01*
X30833333Y-108502438D02*
X30738095Y-108597676D01*
X30738095Y-108597676D02*
X30690476Y-108692914D01*
X30690476Y-108692914D02*
X30642857Y-108883390D01*
X30642857Y-108883390D02*
X30642857Y-109026247D01*
X30642857Y-109026247D02*
X30690476Y-109216723D01*
X30690476Y-109216723D02*
X30738095Y-109311961D01*
X30738095Y-109311961D02*
X30833333Y-109407200D01*
X30833333Y-109407200D02*
X30976190Y-109454819D01*
X30976190Y-109454819D02*
X31214285Y-109454819D01*
X29690476Y-109454819D02*
X30261904Y-109454819D01*
X29976190Y-109454819D02*
X29976190Y-108454819D01*
X29976190Y-108454819D02*
X30071428Y-108597676D01*
X30071428Y-108597676D02*
X30166666Y-108692914D01*
X30166666Y-108692914D02*
X30261904Y-108740533D01*
X28738095Y-109454819D02*
X29309523Y-109454819D01*
X29023809Y-109454819D02*
X29023809Y-108454819D01*
X29023809Y-108454819D02*
X29119047Y-108597676D01*
X29119047Y-108597676D02*
X29214285Y-108692914D01*
X29214285Y-108692914D02*
X29309523Y-108740533D01*
D10*
X68147619Y-12536467D02*
X68147619Y-13224562D01*
X68147619Y-13224562D02*
X68107142Y-13305514D01*
X68107142Y-13305514D02*
X68066666Y-13345991D01*
X68066666Y-13345991D02*
X67985714Y-13386467D01*
X67985714Y-13386467D02*
X67823809Y-13386467D01*
X67823809Y-13386467D02*
X67742857Y-13345991D01*
X67742857Y-13345991D02*
X67702380Y-13305514D01*
X67702380Y-13305514D02*
X67661904Y-13224562D01*
X67661904Y-13224562D02*
X67661904Y-12536467D01*
X66811904Y-13386467D02*
X67297619Y-13386467D01*
X67054762Y-13386467D02*
X67054762Y-12536467D01*
X67054762Y-12536467D02*
X67135714Y-12657895D01*
X67135714Y-12657895D02*
X67216666Y-12738848D01*
X67216666Y-12738848D02*
X67297619Y-12779324D01*
X83141666Y-86886467D02*
X83425000Y-86481705D01*
X83627381Y-86886467D02*
X83627381Y-86036467D01*
X83627381Y-86036467D02*
X83303571Y-86036467D01*
X83303571Y-86036467D02*
X83222619Y-86076943D01*
X83222619Y-86076943D02*
X83182142Y-86117419D01*
X83182142Y-86117419D02*
X83141666Y-86198371D01*
X83141666Y-86198371D02*
X83141666Y-86319800D01*
X83141666Y-86319800D02*
X83182142Y-86400752D01*
X83182142Y-86400752D02*
X83222619Y-86441229D01*
X83222619Y-86441229D02*
X83303571Y-86481705D01*
X83303571Y-86481705D02*
X83627381Y-86481705D01*
X82332142Y-86886467D02*
X82817857Y-86886467D01*
X82575000Y-86886467D02*
X82575000Y-86036467D01*
X82575000Y-86036467D02*
X82655952Y-86157895D01*
X82655952Y-86157895D02*
X82736904Y-86238848D01*
X82736904Y-86238848D02*
X82817857Y-86279324D01*
X82142090Y-86461467D02*
X83822381Y-86461467D01*
D12*
X83066666Y-89181927D02*
X83199999Y-88991451D01*
X83295237Y-89181927D02*
X83295237Y-88781927D01*
X83295237Y-88781927D02*
X83142856Y-88781927D01*
X83142856Y-88781927D02*
X83104761Y-88800975D01*
X83104761Y-88800975D02*
X83085714Y-88820022D01*
X83085714Y-88820022D02*
X83066666Y-88858118D01*
X83066666Y-88858118D02*
X83066666Y-88915260D01*
X83066666Y-88915260D02*
X83085714Y-88953356D01*
X83085714Y-88953356D02*
X83104761Y-88972403D01*
X83104761Y-88972403D02*
X83142856Y-88991451D01*
X83142856Y-88991451D02*
X83295237Y-88991451D01*
X82685714Y-89181927D02*
X82914285Y-89181927D01*
X82799999Y-89181927D02*
X82799999Y-88781927D01*
X82799999Y-88781927D02*
X82838095Y-88839070D01*
X82838095Y-88839070D02*
X82876190Y-88877165D01*
X82876190Y-88877165D02*
X82914285Y-88896213D01*
X82597998Y-88981927D02*
X83385237Y-88981927D01*
D10*
X25538095Y-108345991D02*
X25416666Y-108386467D01*
X25416666Y-108386467D02*
X25214285Y-108386467D01*
X25214285Y-108386467D02*
X25133333Y-108345991D01*
X25133333Y-108345991D02*
X25092857Y-108305514D01*
X25092857Y-108305514D02*
X25052380Y-108224562D01*
X25052380Y-108224562D02*
X25052380Y-108143610D01*
X25052380Y-108143610D02*
X25092857Y-108062657D01*
X25092857Y-108062657D02*
X25133333Y-108022181D01*
X25133333Y-108022181D02*
X25214285Y-107981705D01*
X25214285Y-107981705D02*
X25376190Y-107941229D01*
X25376190Y-107941229D02*
X25457142Y-107900752D01*
X25457142Y-107900752D02*
X25497619Y-107860276D01*
X25497619Y-107860276D02*
X25538095Y-107779324D01*
X25538095Y-107779324D02*
X25538095Y-107698371D01*
X25538095Y-107698371D02*
X25497619Y-107617419D01*
X25497619Y-107617419D02*
X25457142Y-107576943D01*
X25457142Y-107576943D02*
X25376190Y-107536467D01*
X25376190Y-107536467D02*
X25173809Y-107536467D01*
X25173809Y-107536467D02*
X25052380Y-107576943D01*
X24769047Y-107536467D02*
X24566666Y-108386467D01*
X24566666Y-108386467D02*
X24404761Y-107779324D01*
X24404761Y-107779324D02*
X24242856Y-108386467D01*
X24242856Y-108386467D02*
X24040476Y-107536467D01*
X23271427Y-108386467D02*
X23757142Y-108386467D01*
X23514285Y-108386467D02*
X23514285Y-107536467D01*
X23514285Y-107536467D02*
X23595237Y-107657895D01*
X23595237Y-107657895D02*
X23676189Y-107738848D01*
X23676189Y-107738848D02*
X23757142Y-107779324D01*
X22461903Y-108386467D02*
X22947618Y-108386467D01*
X22704761Y-108386467D02*
X22704761Y-107536467D01*
X22704761Y-107536467D02*
X22785713Y-107657895D01*
X22785713Y-107657895D02*
X22866665Y-107738848D01*
X22866665Y-107738848D02*
X22947618Y-107779324D01*
X90627381Y-64886467D02*
X90627381Y-64036467D01*
X90627381Y-64036467D02*
X90425000Y-64036467D01*
X90425000Y-64036467D02*
X90303571Y-64076943D01*
X90303571Y-64076943D02*
X90222619Y-64157895D01*
X90222619Y-64157895D02*
X90182142Y-64238848D01*
X90182142Y-64238848D02*
X90141666Y-64400752D01*
X90141666Y-64400752D02*
X90141666Y-64522181D01*
X90141666Y-64522181D02*
X90182142Y-64684086D01*
X90182142Y-64684086D02*
X90222619Y-64765038D01*
X90222619Y-64765038D02*
X90303571Y-64845991D01*
X90303571Y-64845991D02*
X90425000Y-64886467D01*
X90425000Y-64886467D02*
X90627381Y-64886467D01*
X89413095Y-64036467D02*
X89575000Y-64036467D01*
X89575000Y-64036467D02*
X89655952Y-64076943D01*
X89655952Y-64076943D02*
X89696428Y-64117419D01*
X89696428Y-64117419D02*
X89777381Y-64238848D01*
X89777381Y-64238848D02*
X89817857Y-64400752D01*
X89817857Y-64400752D02*
X89817857Y-64724562D01*
X89817857Y-64724562D02*
X89777381Y-64805514D01*
X89777381Y-64805514D02*
X89736904Y-64845991D01*
X89736904Y-64845991D02*
X89655952Y-64886467D01*
X89655952Y-64886467D02*
X89494047Y-64886467D01*
X89494047Y-64886467D02*
X89413095Y-64845991D01*
X89413095Y-64845991D02*
X89372619Y-64805514D01*
X89372619Y-64805514D02*
X89332142Y-64724562D01*
X89332142Y-64724562D02*
X89332142Y-64522181D01*
X89332142Y-64522181D02*
X89372619Y-64441229D01*
X89372619Y-64441229D02*
X89413095Y-64400752D01*
X89413095Y-64400752D02*
X89494047Y-64360276D01*
X89494047Y-64360276D02*
X89655952Y-64360276D01*
X89655952Y-64360276D02*
X89736904Y-64400752D01*
X89736904Y-64400752D02*
X89777381Y-64441229D01*
X89777381Y-64441229D02*
X89817857Y-64522181D01*
D11*
X90738094Y-69454819D02*
X90738094Y-68454819D01*
X90738094Y-68454819D02*
X90499999Y-68454819D01*
X90499999Y-68454819D02*
X90357142Y-68502438D01*
X90357142Y-68502438D02*
X90261904Y-68597676D01*
X90261904Y-68597676D02*
X90214285Y-68692914D01*
X90214285Y-68692914D02*
X90166666Y-68883390D01*
X90166666Y-68883390D02*
X90166666Y-69026247D01*
X90166666Y-69026247D02*
X90214285Y-69216723D01*
X90214285Y-69216723D02*
X90261904Y-69311961D01*
X90261904Y-69311961D02*
X90357142Y-69407200D01*
X90357142Y-69407200D02*
X90499999Y-69454819D01*
X90499999Y-69454819D02*
X90738094Y-69454819D01*
X89309523Y-68454819D02*
X89499999Y-68454819D01*
X89499999Y-68454819D02*
X89595237Y-68502438D01*
X89595237Y-68502438D02*
X89642856Y-68550057D01*
X89642856Y-68550057D02*
X89738094Y-68692914D01*
X89738094Y-68692914D02*
X89785713Y-68883390D01*
X89785713Y-68883390D02*
X89785713Y-69264342D01*
X89785713Y-69264342D02*
X89738094Y-69359580D01*
X89738094Y-69359580D02*
X89690475Y-69407200D01*
X89690475Y-69407200D02*
X89595237Y-69454819D01*
X89595237Y-69454819D02*
X89404761Y-69454819D01*
X89404761Y-69454819D02*
X89309523Y-69407200D01*
X89309523Y-69407200D02*
X89261904Y-69359580D01*
X89261904Y-69359580D02*
X89214285Y-69264342D01*
X89214285Y-69264342D02*
X89214285Y-69026247D01*
X89214285Y-69026247D02*
X89261904Y-68931009D01*
X89261904Y-68931009D02*
X89309523Y-68883390D01*
X89309523Y-68883390D02*
X89404761Y-68835771D01*
X89404761Y-68835771D02*
X89595237Y-68835771D01*
X89595237Y-68835771D02*
X89690475Y-68883390D01*
X89690475Y-68883390D02*
X89738094Y-68931009D01*
X89738094Y-68931009D02*
X89785713Y-69026247D01*
D10*
X50627381Y-84886467D02*
X50627381Y-84036467D01*
X50627381Y-84036467D02*
X50425000Y-84036467D01*
X50425000Y-84036467D02*
X50303571Y-84076943D01*
X50303571Y-84076943D02*
X50222619Y-84157895D01*
X50222619Y-84157895D02*
X50182142Y-84238848D01*
X50182142Y-84238848D02*
X50141666Y-84400752D01*
X50141666Y-84400752D02*
X50141666Y-84522181D01*
X50141666Y-84522181D02*
X50182142Y-84684086D01*
X50182142Y-84684086D02*
X50222619Y-84765038D01*
X50222619Y-84765038D02*
X50303571Y-84845991D01*
X50303571Y-84845991D02*
X50425000Y-84886467D01*
X50425000Y-84886467D02*
X50627381Y-84886467D01*
X49655952Y-84400752D02*
X49736904Y-84360276D01*
X49736904Y-84360276D02*
X49777381Y-84319800D01*
X49777381Y-84319800D02*
X49817857Y-84238848D01*
X49817857Y-84238848D02*
X49817857Y-84198371D01*
X49817857Y-84198371D02*
X49777381Y-84117419D01*
X49777381Y-84117419D02*
X49736904Y-84076943D01*
X49736904Y-84076943D02*
X49655952Y-84036467D01*
X49655952Y-84036467D02*
X49494047Y-84036467D01*
X49494047Y-84036467D02*
X49413095Y-84076943D01*
X49413095Y-84076943D02*
X49372619Y-84117419D01*
X49372619Y-84117419D02*
X49332142Y-84198371D01*
X49332142Y-84198371D02*
X49332142Y-84238848D01*
X49332142Y-84238848D02*
X49372619Y-84319800D01*
X49372619Y-84319800D02*
X49413095Y-84360276D01*
X49413095Y-84360276D02*
X49494047Y-84400752D01*
X49494047Y-84400752D02*
X49655952Y-84400752D01*
X49655952Y-84400752D02*
X49736904Y-84441229D01*
X49736904Y-84441229D02*
X49777381Y-84481705D01*
X49777381Y-84481705D02*
X49817857Y-84562657D01*
X49817857Y-84562657D02*
X49817857Y-84724562D01*
X49817857Y-84724562D02*
X49777381Y-84805514D01*
X49777381Y-84805514D02*
X49736904Y-84845991D01*
X49736904Y-84845991D02*
X49655952Y-84886467D01*
X49655952Y-84886467D02*
X49494047Y-84886467D01*
X49494047Y-84886467D02*
X49413095Y-84845991D01*
X49413095Y-84845991D02*
X49372619Y-84805514D01*
X49372619Y-84805514D02*
X49332142Y-84724562D01*
X49332142Y-84724562D02*
X49332142Y-84562657D01*
X49332142Y-84562657D02*
X49372619Y-84481705D01*
X49372619Y-84481705D02*
X49413095Y-84441229D01*
X49413095Y-84441229D02*
X49494047Y-84400752D01*
D11*
X50738094Y-89454819D02*
X50738094Y-88454819D01*
X50738094Y-88454819D02*
X50499999Y-88454819D01*
X50499999Y-88454819D02*
X50357142Y-88502438D01*
X50357142Y-88502438D02*
X50261904Y-88597676D01*
X50261904Y-88597676D02*
X50214285Y-88692914D01*
X50214285Y-88692914D02*
X50166666Y-88883390D01*
X50166666Y-88883390D02*
X50166666Y-89026247D01*
X50166666Y-89026247D02*
X50214285Y-89216723D01*
X50214285Y-89216723D02*
X50261904Y-89311961D01*
X50261904Y-89311961D02*
X50357142Y-89407200D01*
X50357142Y-89407200D02*
X50499999Y-89454819D01*
X50499999Y-89454819D02*
X50738094Y-89454819D01*
X49595237Y-88883390D02*
X49690475Y-88835771D01*
X49690475Y-88835771D02*
X49738094Y-88788152D01*
X49738094Y-88788152D02*
X49785713Y-88692914D01*
X49785713Y-88692914D02*
X49785713Y-88645295D01*
X49785713Y-88645295D02*
X49738094Y-88550057D01*
X49738094Y-88550057D02*
X49690475Y-88502438D01*
X49690475Y-88502438D02*
X49595237Y-88454819D01*
X49595237Y-88454819D02*
X49404761Y-88454819D01*
X49404761Y-88454819D02*
X49309523Y-88502438D01*
X49309523Y-88502438D02*
X49261904Y-88550057D01*
X49261904Y-88550057D02*
X49214285Y-88645295D01*
X49214285Y-88645295D02*
X49214285Y-88692914D01*
X49214285Y-88692914D02*
X49261904Y-88788152D01*
X49261904Y-88788152D02*
X49309523Y-88835771D01*
X49309523Y-88835771D02*
X49404761Y-88883390D01*
X49404761Y-88883390D02*
X49595237Y-88883390D01*
X49595237Y-88883390D02*
X49690475Y-88931009D01*
X49690475Y-88931009D02*
X49738094Y-88978628D01*
X49738094Y-88978628D02*
X49785713Y-89073866D01*
X49785713Y-89073866D02*
X49785713Y-89264342D01*
X49785713Y-89264342D02*
X49738094Y-89359580D01*
X49738094Y-89359580D02*
X49690475Y-89407200D01*
X49690475Y-89407200D02*
X49595237Y-89454819D01*
X49595237Y-89454819D02*
X49404761Y-89454819D01*
X49404761Y-89454819D02*
X49309523Y-89407200D01*
X49309523Y-89407200D02*
X49261904Y-89359580D01*
X49261904Y-89359580D02*
X49214285Y-89264342D01*
X49214285Y-89264342D02*
X49214285Y-89073866D01*
X49214285Y-89073866D02*
X49261904Y-88978628D01*
X49261904Y-88978628D02*
X49309523Y-88931009D01*
X49309523Y-88931009D02*
X49404761Y-88883390D01*
D10*
X25133333Y-88345991D02*
X25011904Y-88386467D01*
X25011904Y-88386467D02*
X24809523Y-88386467D01*
X24809523Y-88386467D02*
X24728571Y-88345991D01*
X24728571Y-88345991D02*
X24688095Y-88305514D01*
X24688095Y-88305514D02*
X24647618Y-88224562D01*
X24647618Y-88224562D02*
X24647618Y-88143610D01*
X24647618Y-88143610D02*
X24688095Y-88062657D01*
X24688095Y-88062657D02*
X24728571Y-88022181D01*
X24728571Y-88022181D02*
X24809523Y-87981705D01*
X24809523Y-87981705D02*
X24971428Y-87941229D01*
X24971428Y-87941229D02*
X25052380Y-87900752D01*
X25052380Y-87900752D02*
X25092857Y-87860276D01*
X25092857Y-87860276D02*
X25133333Y-87779324D01*
X25133333Y-87779324D02*
X25133333Y-87698371D01*
X25133333Y-87698371D02*
X25092857Y-87617419D01*
X25092857Y-87617419D02*
X25052380Y-87576943D01*
X25052380Y-87576943D02*
X24971428Y-87536467D01*
X24971428Y-87536467D02*
X24769047Y-87536467D01*
X24769047Y-87536467D02*
X24647618Y-87576943D01*
X24364285Y-87536467D02*
X24161904Y-88386467D01*
X24161904Y-88386467D02*
X23999999Y-87779324D01*
X23999999Y-87779324D02*
X23838094Y-88386467D01*
X23838094Y-88386467D02*
X23635714Y-87536467D01*
X23392856Y-87536467D02*
X22826189Y-87536467D01*
X22826189Y-87536467D02*
X23190475Y-88386467D01*
X45133333Y-88345991D02*
X45011904Y-88386467D01*
X45011904Y-88386467D02*
X44809523Y-88386467D01*
X44809523Y-88386467D02*
X44728571Y-88345991D01*
X44728571Y-88345991D02*
X44688095Y-88305514D01*
X44688095Y-88305514D02*
X44647618Y-88224562D01*
X44647618Y-88224562D02*
X44647618Y-88143610D01*
X44647618Y-88143610D02*
X44688095Y-88062657D01*
X44688095Y-88062657D02*
X44728571Y-88022181D01*
X44728571Y-88022181D02*
X44809523Y-87981705D01*
X44809523Y-87981705D02*
X44971428Y-87941229D01*
X44971428Y-87941229D02*
X45052380Y-87900752D01*
X45052380Y-87900752D02*
X45092857Y-87860276D01*
X45092857Y-87860276D02*
X45133333Y-87779324D01*
X45133333Y-87779324D02*
X45133333Y-87698371D01*
X45133333Y-87698371D02*
X45092857Y-87617419D01*
X45092857Y-87617419D02*
X45052380Y-87576943D01*
X45052380Y-87576943D02*
X44971428Y-87536467D01*
X44971428Y-87536467D02*
X44769047Y-87536467D01*
X44769047Y-87536467D02*
X44647618Y-87576943D01*
X44364285Y-87536467D02*
X44161904Y-88386467D01*
X44161904Y-88386467D02*
X43999999Y-87779324D01*
X43999999Y-87779324D02*
X43838094Y-88386467D01*
X43838094Y-88386467D02*
X43635714Y-87536467D01*
X43190475Y-87900752D02*
X43271427Y-87860276D01*
X43271427Y-87860276D02*
X43311904Y-87819800D01*
X43311904Y-87819800D02*
X43352380Y-87738848D01*
X43352380Y-87738848D02*
X43352380Y-87698371D01*
X43352380Y-87698371D02*
X43311904Y-87617419D01*
X43311904Y-87617419D02*
X43271427Y-87576943D01*
X43271427Y-87576943D02*
X43190475Y-87536467D01*
X43190475Y-87536467D02*
X43028570Y-87536467D01*
X43028570Y-87536467D02*
X42947618Y-87576943D01*
X42947618Y-87576943D02*
X42907142Y-87617419D01*
X42907142Y-87617419D02*
X42866665Y-87698371D01*
X42866665Y-87698371D02*
X42866665Y-87738848D01*
X42866665Y-87738848D02*
X42907142Y-87819800D01*
X42907142Y-87819800D02*
X42947618Y-87860276D01*
X42947618Y-87860276D02*
X43028570Y-87900752D01*
X43028570Y-87900752D02*
X43190475Y-87900752D01*
X43190475Y-87900752D02*
X43271427Y-87941229D01*
X43271427Y-87941229D02*
X43311904Y-87981705D01*
X43311904Y-87981705D02*
X43352380Y-88062657D01*
X43352380Y-88062657D02*
X43352380Y-88224562D01*
X43352380Y-88224562D02*
X43311904Y-88305514D01*
X43311904Y-88305514D02*
X43271427Y-88345991D01*
X43271427Y-88345991D02*
X43190475Y-88386467D01*
X43190475Y-88386467D02*
X43028570Y-88386467D01*
X43028570Y-88386467D02*
X42947618Y-88345991D01*
X42947618Y-88345991D02*
X42907142Y-88305514D01*
X42907142Y-88305514D02*
X42866665Y-88224562D01*
X42866665Y-88224562D02*
X42866665Y-88062657D01*
X42866665Y-88062657D02*
X42907142Y-87981705D01*
X42907142Y-87981705D02*
X42947618Y-87941229D01*
X42947618Y-87941229D02*
X43028570Y-87900752D01*
X25133333Y-68345991D02*
X25011904Y-68386467D01*
X25011904Y-68386467D02*
X24809523Y-68386467D01*
X24809523Y-68386467D02*
X24728571Y-68345991D01*
X24728571Y-68345991D02*
X24688095Y-68305514D01*
X24688095Y-68305514D02*
X24647618Y-68224562D01*
X24647618Y-68224562D02*
X24647618Y-68143610D01*
X24647618Y-68143610D02*
X24688095Y-68062657D01*
X24688095Y-68062657D02*
X24728571Y-68022181D01*
X24728571Y-68022181D02*
X24809523Y-67981705D01*
X24809523Y-67981705D02*
X24971428Y-67941229D01*
X24971428Y-67941229D02*
X25052380Y-67900752D01*
X25052380Y-67900752D02*
X25092857Y-67860276D01*
X25092857Y-67860276D02*
X25133333Y-67779324D01*
X25133333Y-67779324D02*
X25133333Y-67698371D01*
X25133333Y-67698371D02*
X25092857Y-67617419D01*
X25092857Y-67617419D02*
X25052380Y-67576943D01*
X25052380Y-67576943D02*
X24971428Y-67536467D01*
X24971428Y-67536467D02*
X24769047Y-67536467D01*
X24769047Y-67536467D02*
X24647618Y-67576943D01*
X24364285Y-67536467D02*
X24161904Y-68386467D01*
X24161904Y-68386467D02*
X23999999Y-67779324D01*
X23999999Y-67779324D02*
X23838094Y-68386467D01*
X23838094Y-68386467D02*
X23635714Y-67536467D01*
X23392856Y-67536467D02*
X22866665Y-67536467D01*
X22866665Y-67536467D02*
X23149999Y-67860276D01*
X23149999Y-67860276D02*
X23028570Y-67860276D01*
X23028570Y-67860276D02*
X22947618Y-67900752D01*
X22947618Y-67900752D02*
X22907142Y-67941229D01*
X22907142Y-67941229D02*
X22866665Y-68022181D01*
X22866665Y-68022181D02*
X22866665Y-68224562D01*
X22866665Y-68224562D02*
X22907142Y-68305514D01*
X22907142Y-68305514D02*
X22947618Y-68345991D01*
X22947618Y-68345991D02*
X23028570Y-68386467D01*
X23028570Y-68386467D02*
X23271427Y-68386467D01*
X23271427Y-68386467D02*
X23352380Y-68345991D01*
X23352380Y-68345991D02*
X23392856Y-68305514D01*
X45538095Y-108345991D02*
X45416666Y-108386467D01*
X45416666Y-108386467D02*
X45214285Y-108386467D01*
X45214285Y-108386467D02*
X45133333Y-108345991D01*
X45133333Y-108345991D02*
X45092857Y-108305514D01*
X45092857Y-108305514D02*
X45052380Y-108224562D01*
X45052380Y-108224562D02*
X45052380Y-108143610D01*
X45052380Y-108143610D02*
X45092857Y-108062657D01*
X45092857Y-108062657D02*
X45133333Y-108022181D01*
X45133333Y-108022181D02*
X45214285Y-107981705D01*
X45214285Y-107981705D02*
X45376190Y-107941229D01*
X45376190Y-107941229D02*
X45457142Y-107900752D01*
X45457142Y-107900752D02*
X45497619Y-107860276D01*
X45497619Y-107860276D02*
X45538095Y-107779324D01*
X45538095Y-107779324D02*
X45538095Y-107698371D01*
X45538095Y-107698371D02*
X45497619Y-107617419D01*
X45497619Y-107617419D02*
X45457142Y-107576943D01*
X45457142Y-107576943D02*
X45376190Y-107536467D01*
X45376190Y-107536467D02*
X45173809Y-107536467D01*
X45173809Y-107536467D02*
X45052380Y-107576943D01*
X44769047Y-107536467D02*
X44566666Y-108386467D01*
X44566666Y-108386467D02*
X44404761Y-107779324D01*
X44404761Y-107779324D02*
X44242856Y-108386467D01*
X44242856Y-108386467D02*
X44040476Y-107536467D01*
X43271427Y-108386467D02*
X43757142Y-108386467D01*
X43514285Y-108386467D02*
X43514285Y-107536467D01*
X43514285Y-107536467D02*
X43595237Y-107657895D01*
X43595237Y-107657895D02*
X43676189Y-107738848D01*
X43676189Y-107738848D02*
X43757142Y-107779324D01*
X42947618Y-107617419D02*
X42907142Y-107576943D01*
X42907142Y-107576943D02*
X42826189Y-107536467D01*
X42826189Y-107536467D02*
X42623808Y-107536467D01*
X42623808Y-107536467D02*
X42542856Y-107576943D01*
X42542856Y-107576943D02*
X42502380Y-107617419D01*
X42502380Y-107617419D02*
X42461903Y-107698371D01*
X42461903Y-107698371D02*
X42461903Y-107779324D01*
X42461903Y-107779324D02*
X42502380Y-107900752D01*
X42502380Y-107900752D02*
X42988094Y-108386467D01*
X42988094Y-108386467D02*
X42461903Y-108386467D01*
X32641666Y-16386467D02*
X32925000Y-15981705D01*
X33127381Y-16386467D02*
X33127381Y-15536467D01*
X33127381Y-15536467D02*
X32803571Y-15536467D01*
X32803571Y-15536467D02*
X32722619Y-15576943D01*
X32722619Y-15576943D02*
X32682142Y-15617419D01*
X32682142Y-15617419D02*
X32641666Y-15698371D01*
X32641666Y-15698371D02*
X32641666Y-15819800D01*
X32641666Y-15819800D02*
X32682142Y-15900752D01*
X32682142Y-15900752D02*
X32722619Y-15941229D01*
X32722619Y-15941229D02*
X32803571Y-15981705D01*
X32803571Y-15981705D02*
X33127381Y-15981705D01*
X31913095Y-15819800D02*
X31913095Y-16386467D01*
X32115476Y-15495991D02*
X32317857Y-16103133D01*
X32317857Y-16103133D02*
X31791666Y-16103133D01*
D12*
X32566666Y-18681927D02*
X32699999Y-18491451D01*
X32795237Y-18681927D02*
X32795237Y-18281927D01*
X32795237Y-18281927D02*
X32642856Y-18281927D01*
X32642856Y-18281927D02*
X32604761Y-18300975D01*
X32604761Y-18300975D02*
X32585714Y-18320022D01*
X32585714Y-18320022D02*
X32566666Y-18358118D01*
X32566666Y-18358118D02*
X32566666Y-18415260D01*
X32566666Y-18415260D02*
X32585714Y-18453356D01*
X32585714Y-18453356D02*
X32604761Y-18472403D01*
X32604761Y-18472403D02*
X32642856Y-18491451D01*
X32642856Y-18491451D02*
X32795237Y-18491451D01*
X32223809Y-18415260D02*
X32223809Y-18681927D01*
X32319047Y-18262880D02*
X32414285Y-18548594D01*
X32414285Y-18548594D02*
X32166666Y-18548594D01*
D10*
X31141666Y-9305514D02*
X31182142Y-9345991D01*
X31182142Y-9345991D02*
X31303571Y-9386467D01*
X31303571Y-9386467D02*
X31384523Y-9386467D01*
X31384523Y-9386467D02*
X31505952Y-9345991D01*
X31505952Y-9345991D02*
X31586904Y-9265038D01*
X31586904Y-9265038D02*
X31627381Y-9184086D01*
X31627381Y-9184086D02*
X31667857Y-9022181D01*
X31667857Y-9022181D02*
X31667857Y-8900752D01*
X31667857Y-8900752D02*
X31627381Y-8738848D01*
X31627381Y-8738848D02*
X31586904Y-8657895D01*
X31586904Y-8657895D02*
X31505952Y-8576943D01*
X31505952Y-8576943D02*
X31384523Y-8536467D01*
X31384523Y-8536467D02*
X31303571Y-8536467D01*
X31303571Y-8536467D02*
X31182142Y-8576943D01*
X31182142Y-8576943D02*
X31141666Y-8617419D01*
X30332142Y-9386467D02*
X30817857Y-9386467D01*
X30575000Y-9386467D02*
X30575000Y-8536467D01*
X30575000Y-8536467D02*
X30655952Y-8657895D01*
X30655952Y-8657895D02*
X30736904Y-8738848D01*
X30736904Y-8738848D02*
X30817857Y-8779324D01*
D12*
X31066666Y-11643832D02*
X31085714Y-11662880D01*
X31085714Y-11662880D02*
X31142856Y-11681927D01*
X31142856Y-11681927D02*
X31180952Y-11681927D01*
X31180952Y-11681927D02*
X31238095Y-11662880D01*
X31238095Y-11662880D02*
X31276190Y-11624784D01*
X31276190Y-11624784D02*
X31295237Y-11586689D01*
X31295237Y-11586689D02*
X31314285Y-11510499D01*
X31314285Y-11510499D02*
X31314285Y-11453356D01*
X31314285Y-11453356D02*
X31295237Y-11377165D01*
X31295237Y-11377165D02*
X31276190Y-11339070D01*
X31276190Y-11339070D02*
X31238095Y-11300975D01*
X31238095Y-11300975D02*
X31180952Y-11281927D01*
X31180952Y-11281927D02*
X31142856Y-11281927D01*
X31142856Y-11281927D02*
X31085714Y-11300975D01*
X31085714Y-11300975D02*
X31066666Y-11320022D01*
X30685714Y-11681927D02*
X30914285Y-11681927D01*
X30799999Y-11681927D02*
X30799999Y-11281927D01*
X30799999Y-11281927D02*
X30838095Y-11339070D01*
X30838095Y-11339070D02*
X30876190Y-11377165D01*
X30876190Y-11377165D02*
X30914285Y-11396213D01*
D10*
X45133333Y-68345991D02*
X45011904Y-68386467D01*
X45011904Y-68386467D02*
X44809523Y-68386467D01*
X44809523Y-68386467D02*
X44728571Y-68345991D01*
X44728571Y-68345991D02*
X44688095Y-68305514D01*
X44688095Y-68305514D02*
X44647618Y-68224562D01*
X44647618Y-68224562D02*
X44647618Y-68143610D01*
X44647618Y-68143610D02*
X44688095Y-68062657D01*
X44688095Y-68062657D02*
X44728571Y-68022181D01*
X44728571Y-68022181D02*
X44809523Y-67981705D01*
X44809523Y-67981705D02*
X44971428Y-67941229D01*
X44971428Y-67941229D02*
X45052380Y-67900752D01*
X45052380Y-67900752D02*
X45092857Y-67860276D01*
X45092857Y-67860276D02*
X45133333Y-67779324D01*
X45133333Y-67779324D02*
X45133333Y-67698371D01*
X45133333Y-67698371D02*
X45092857Y-67617419D01*
X45092857Y-67617419D02*
X45052380Y-67576943D01*
X45052380Y-67576943D02*
X44971428Y-67536467D01*
X44971428Y-67536467D02*
X44769047Y-67536467D01*
X44769047Y-67536467D02*
X44647618Y-67576943D01*
X44364285Y-67536467D02*
X44161904Y-68386467D01*
X44161904Y-68386467D02*
X43999999Y-67779324D01*
X43999999Y-67779324D02*
X43838094Y-68386467D01*
X43838094Y-68386467D02*
X43635714Y-67536467D01*
X42947618Y-67819800D02*
X42947618Y-68386467D01*
X43149999Y-67495991D02*
X43352380Y-68103133D01*
X43352380Y-68103133D02*
X42826189Y-68103133D01*
X51032143Y-104886467D02*
X51032143Y-104036467D01*
X51032143Y-104036467D02*
X50829762Y-104036467D01*
X50829762Y-104036467D02*
X50708333Y-104076943D01*
X50708333Y-104076943D02*
X50627381Y-104157895D01*
X50627381Y-104157895D02*
X50586904Y-104238848D01*
X50586904Y-104238848D02*
X50546428Y-104400752D01*
X50546428Y-104400752D02*
X50546428Y-104522181D01*
X50546428Y-104522181D02*
X50586904Y-104684086D01*
X50586904Y-104684086D02*
X50627381Y-104765038D01*
X50627381Y-104765038D02*
X50708333Y-104845991D01*
X50708333Y-104845991D02*
X50829762Y-104886467D01*
X50829762Y-104886467D02*
X51032143Y-104886467D01*
X49736904Y-104886467D02*
X50222619Y-104886467D01*
X49979762Y-104886467D02*
X49979762Y-104036467D01*
X49979762Y-104036467D02*
X50060714Y-104157895D01*
X50060714Y-104157895D02*
X50141666Y-104238848D01*
X50141666Y-104238848D02*
X50222619Y-104279324D01*
X49413095Y-104117419D02*
X49372619Y-104076943D01*
X49372619Y-104076943D02*
X49291666Y-104036467D01*
X49291666Y-104036467D02*
X49089285Y-104036467D01*
X49089285Y-104036467D02*
X49008333Y-104076943D01*
X49008333Y-104076943D02*
X48967857Y-104117419D01*
X48967857Y-104117419D02*
X48927380Y-104198371D01*
X48927380Y-104198371D02*
X48927380Y-104279324D01*
X48927380Y-104279324D02*
X48967857Y-104400752D01*
X48967857Y-104400752D02*
X49453571Y-104886467D01*
X49453571Y-104886467D02*
X48927380Y-104886467D01*
D11*
X51214285Y-109454819D02*
X51214285Y-108454819D01*
X51214285Y-108454819D02*
X50976190Y-108454819D01*
X50976190Y-108454819D02*
X50833333Y-108502438D01*
X50833333Y-108502438D02*
X50738095Y-108597676D01*
X50738095Y-108597676D02*
X50690476Y-108692914D01*
X50690476Y-108692914D02*
X50642857Y-108883390D01*
X50642857Y-108883390D02*
X50642857Y-109026247D01*
X50642857Y-109026247D02*
X50690476Y-109216723D01*
X50690476Y-109216723D02*
X50738095Y-109311961D01*
X50738095Y-109311961D02*
X50833333Y-109407200D01*
X50833333Y-109407200D02*
X50976190Y-109454819D01*
X50976190Y-109454819D02*
X51214285Y-109454819D01*
X49690476Y-109454819D02*
X50261904Y-109454819D01*
X49976190Y-109454819D02*
X49976190Y-108454819D01*
X49976190Y-108454819D02*
X50071428Y-108597676D01*
X50071428Y-108597676D02*
X50166666Y-108692914D01*
X50166666Y-108692914D02*
X50261904Y-108740533D01*
X49309523Y-108550057D02*
X49261904Y-108502438D01*
X49261904Y-108502438D02*
X49166666Y-108454819D01*
X49166666Y-108454819D02*
X48928571Y-108454819D01*
X48928571Y-108454819D02*
X48833333Y-108502438D01*
X48833333Y-108502438D02*
X48785714Y-108550057D01*
X48785714Y-108550057D02*
X48738095Y-108645295D01*
X48738095Y-108645295D02*
X48738095Y-108740533D01*
X48738095Y-108740533D02*
X48785714Y-108883390D01*
X48785714Y-108883390D02*
X49357142Y-109454819D01*
X49357142Y-109454819D02*
X48738095Y-109454819D01*
D10*
X31647619Y-12036467D02*
X31647619Y-12724562D01*
X31647619Y-12724562D02*
X31607142Y-12805514D01*
X31607142Y-12805514D02*
X31566666Y-12845991D01*
X31566666Y-12845991D02*
X31485714Y-12886467D01*
X31485714Y-12886467D02*
X31323809Y-12886467D01*
X31323809Y-12886467D02*
X31242857Y-12845991D01*
X31242857Y-12845991D02*
X31202380Y-12805514D01*
X31202380Y-12805514D02*
X31161904Y-12724562D01*
X31161904Y-12724562D02*
X31161904Y-12036467D01*
X30797619Y-12117419D02*
X30757143Y-12076943D01*
X30757143Y-12076943D02*
X30676190Y-12036467D01*
X30676190Y-12036467D02*
X30473809Y-12036467D01*
X30473809Y-12036467D02*
X30392857Y-12076943D01*
X30392857Y-12076943D02*
X30352381Y-12117419D01*
X30352381Y-12117419D02*
X30311904Y-12198371D01*
X30311904Y-12198371D02*
X30311904Y-12279324D01*
X30311904Y-12279324D02*
X30352381Y-12400752D01*
X30352381Y-12400752D02*
X30838095Y-12886467D01*
X30838095Y-12886467D02*
X30311904Y-12886467D01*
D12*
X31304761Y-14781927D02*
X31304761Y-15105737D01*
X31304761Y-15105737D02*
X31285714Y-15143832D01*
X31285714Y-15143832D02*
X31266666Y-15162880D01*
X31266666Y-15162880D02*
X31228571Y-15181927D01*
X31228571Y-15181927D02*
X31152380Y-15181927D01*
X31152380Y-15181927D02*
X31114285Y-15162880D01*
X31114285Y-15162880D02*
X31095238Y-15143832D01*
X31095238Y-15143832D02*
X31076190Y-15105737D01*
X31076190Y-15105737D02*
X31076190Y-14781927D01*
X30904761Y-14820022D02*
X30885713Y-14800975D01*
X30885713Y-14800975D02*
X30847618Y-14781927D01*
X30847618Y-14781927D02*
X30752380Y-14781927D01*
X30752380Y-14781927D02*
X30714285Y-14800975D01*
X30714285Y-14800975D02*
X30695237Y-14820022D01*
X30695237Y-14820022D02*
X30676190Y-14858118D01*
X30676190Y-14858118D02*
X30676190Y-14896213D01*
X30676190Y-14896213D02*
X30695237Y-14953356D01*
X30695237Y-14953356D02*
X30923809Y-15181927D01*
X30923809Y-15181927D02*
X30676190Y-15181927D01*
D10*
X65133333Y-68345991D02*
X65011904Y-68386467D01*
X65011904Y-68386467D02*
X64809523Y-68386467D01*
X64809523Y-68386467D02*
X64728571Y-68345991D01*
X64728571Y-68345991D02*
X64688095Y-68305514D01*
X64688095Y-68305514D02*
X64647618Y-68224562D01*
X64647618Y-68224562D02*
X64647618Y-68143610D01*
X64647618Y-68143610D02*
X64688095Y-68062657D01*
X64688095Y-68062657D02*
X64728571Y-68022181D01*
X64728571Y-68022181D02*
X64809523Y-67981705D01*
X64809523Y-67981705D02*
X64971428Y-67941229D01*
X64971428Y-67941229D02*
X65052380Y-67900752D01*
X65052380Y-67900752D02*
X65092857Y-67860276D01*
X65092857Y-67860276D02*
X65133333Y-67779324D01*
X65133333Y-67779324D02*
X65133333Y-67698371D01*
X65133333Y-67698371D02*
X65092857Y-67617419D01*
X65092857Y-67617419D02*
X65052380Y-67576943D01*
X65052380Y-67576943D02*
X64971428Y-67536467D01*
X64971428Y-67536467D02*
X64769047Y-67536467D01*
X64769047Y-67536467D02*
X64647618Y-67576943D01*
X64364285Y-67536467D02*
X64161904Y-68386467D01*
X64161904Y-68386467D02*
X63999999Y-67779324D01*
X63999999Y-67779324D02*
X63838094Y-68386467D01*
X63838094Y-68386467D02*
X63635714Y-67536467D01*
X62907142Y-67536467D02*
X63311904Y-67536467D01*
X63311904Y-67536467D02*
X63352380Y-67941229D01*
X63352380Y-67941229D02*
X63311904Y-67900752D01*
X63311904Y-67900752D02*
X63230951Y-67860276D01*
X63230951Y-67860276D02*
X63028570Y-67860276D01*
X63028570Y-67860276D02*
X62947618Y-67900752D01*
X62947618Y-67900752D02*
X62907142Y-67941229D01*
X62907142Y-67941229D02*
X62866665Y-68022181D01*
X62866665Y-68022181D02*
X62866665Y-68224562D01*
X62866665Y-68224562D02*
X62907142Y-68305514D01*
X62907142Y-68305514D02*
X62947618Y-68345991D01*
X62947618Y-68345991D02*
X63028570Y-68386467D01*
X63028570Y-68386467D02*
X63230951Y-68386467D01*
X63230951Y-68386467D02*
X63311904Y-68345991D01*
X63311904Y-68345991D02*
X63352380Y-68305514D01*
X70627381Y-64886467D02*
X70627381Y-64036467D01*
X70627381Y-64036467D02*
X70425000Y-64036467D01*
X70425000Y-64036467D02*
X70303571Y-64076943D01*
X70303571Y-64076943D02*
X70222619Y-64157895D01*
X70222619Y-64157895D02*
X70182142Y-64238848D01*
X70182142Y-64238848D02*
X70141666Y-64400752D01*
X70141666Y-64400752D02*
X70141666Y-64522181D01*
X70141666Y-64522181D02*
X70182142Y-64684086D01*
X70182142Y-64684086D02*
X70222619Y-64765038D01*
X70222619Y-64765038D02*
X70303571Y-64845991D01*
X70303571Y-64845991D02*
X70425000Y-64886467D01*
X70425000Y-64886467D02*
X70627381Y-64886467D01*
X69372619Y-64036467D02*
X69777381Y-64036467D01*
X69777381Y-64036467D02*
X69817857Y-64441229D01*
X69817857Y-64441229D02*
X69777381Y-64400752D01*
X69777381Y-64400752D02*
X69696428Y-64360276D01*
X69696428Y-64360276D02*
X69494047Y-64360276D01*
X69494047Y-64360276D02*
X69413095Y-64400752D01*
X69413095Y-64400752D02*
X69372619Y-64441229D01*
X69372619Y-64441229D02*
X69332142Y-64522181D01*
X69332142Y-64522181D02*
X69332142Y-64724562D01*
X69332142Y-64724562D02*
X69372619Y-64805514D01*
X69372619Y-64805514D02*
X69413095Y-64845991D01*
X69413095Y-64845991D02*
X69494047Y-64886467D01*
X69494047Y-64886467D02*
X69696428Y-64886467D01*
X69696428Y-64886467D02*
X69777381Y-64845991D01*
X69777381Y-64845991D02*
X69817857Y-64805514D01*
D11*
X70738094Y-69454819D02*
X70738094Y-68454819D01*
X70738094Y-68454819D02*
X70499999Y-68454819D01*
X70499999Y-68454819D02*
X70357142Y-68502438D01*
X70357142Y-68502438D02*
X70261904Y-68597676D01*
X70261904Y-68597676D02*
X70214285Y-68692914D01*
X70214285Y-68692914D02*
X70166666Y-68883390D01*
X70166666Y-68883390D02*
X70166666Y-69026247D01*
X70166666Y-69026247D02*
X70214285Y-69216723D01*
X70214285Y-69216723D02*
X70261904Y-69311961D01*
X70261904Y-69311961D02*
X70357142Y-69407200D01*
X70357142Y-69407200D02*
X70499999Y-69454819D01*
X70499999Y-69454819D02*
X70738094Y-69454819D01*
X69261904Y-68454819D02*
X69738094Y-68454819D01*
X69738094Y-68454819D02*
X69785713Y-68931009D01*
X69785713Y-68931009D02*
X69738094Y-68883390D01*
X69738094Y-68883390D02*
X69642856Y-68835771D01*
X69642856Y-68835771D02*
X69404761Y-68835771D01*
X69404761Y-68835771D02*
X69309523Y-68883390D01*
X69309523Y-68883390D02*
X69261904Y-68931009D01*
X69261904Y-68931009D02*
X69214285Y-69026247D01*
X69214285Y-69026247D02*
X69214285Y-69264342D01*
X69214285Y-69264342D02*
X69261904Y-69359580D01*
X69261904Y-69359580D02*
X69309523Y-69407200D01*
X69309523Y-69407200D02*
X69404761Y-69454819D01*
X69404761Y-69454819D02*
X69642856Y-69454819D01*
X69642856Y-69454819D02*
X69738094Y-69407200D01*
X69738094Y-69407200D02*
X69785713Y-69359580D01*
D10*
X85538095Y-88345991D02*
X85416666Y-88386467D01*
X85416666Y-88386467D02*
X85214285Y-88386467D01*
X85214285Y-88386467D02*
X85133333Y-88345991D01*
X85133333Y-88345991D02*
X85092857Y-88305514D01*
X85092857Y-88305514D02*
X85052380Y-88224562D01*
X85052380Y-88224562D02*
X85052380Y-88143610D01*
X85052380Y-88143610D02*
X85092857Y-88062657D01*
X85092857Y-88062657D02*
X85133333Y-88022181D01*
X85133333Y-88022181D02*
X85214285Y-87981705D01*
X85214285Y-87981705D02*
X85376190Y-87941229D01*
X85376190Y-87941229D02*
X85457142Y-87900752D01*
X85457142Y-87900752D02*
X85497619Y-87860276D01*
X85497619Y-87860276D02*
X85538095Y-87779324D01*
X85538095Y-87779324D02*
X85538095Y-87698371D01*
X85538095Y-87698371D02*
X85497619Y-87617419D01*
X85497619Y-87617419D02*
X85457142Y-87576943D01*
X85457142Y-87576943D02*
X85376190Y-87536467D01*
X85376190Y-87536467D02*
X85173809Y-87536467D01*
X85173809Y-87536467D02*
X85052380Y-87576943D01*
X84769047Y-87536467D02*
X84566666Y-88386467D01*
X84566666Y-88386467D02*
X84404761Y-87779324D01*
X84404761Y-87779324D02*
X84242856Y-88386467D01*
X84242856Y-88386467D02*
X84040476Y-87536467D01*
X83271427Y-88386467D02*
X83757142Y-88386467D01*
X83514285Y-88386467D02*
X83514285Y-87536467D01*
X83514285Y-87536467D02*
X83595237Y-87657895D01*
X83595237Y-87657895D02*
X83676189Y-87738848D01*
X83676189Y-87738848D02*
X83757142Y-87779324D01*
X82745237Y-87536467D02*
X82664284Y-87536467D01*
X82664284Y-87536467D02*
X82583332Y-87576943D01*
X82583332Y-87576943D02*
X82542856Y-87617419D01*
X82542856Y-87617419D02*
X82502380Y-87698371D01*
X82502380Y-87698371D02*
X82461903Y-87860276D01*
X82461903Y-87860276D02*
X82461903Y-88062657D01*
X82461903Y-88062657D02*
X82502380Y-88224562D01*
X82502380Y-88224562D02*
X82542856Y-88305514D01*
X82542856Y-88305514D02*
X82583332Y-88345991D01*
X82583332Y-88345991D02*
X82664284Y-88386467D01*
X82664284Y-88386467D02*
X82745237Y-88386467D01*
X82745237Y-88386467D02*
X82826189Y-88345991D01*
X82826189Y-88345991D02*
X82866665Y-88305514D01*
X82866665Y-88305514D02*
X82907142Y-88224562D01*
X82907142Y-88224562D02*
X82947618Y-88062657D01*
X82947618Y-88062657D02*
X82947618Y-87860276D01*
X82947618Y-87860276D02*
X82907142Y-87698371D01*
X82907142Y-87698371D02*
X82866665Y-87617419D01*
X82866665Y-87617419D02*
X82826189Y-87576943D01*
X82826189Y-87576943D02*
X82745237Y-87536467D01*
X83141666Y-88886467D02*
X83425000Y-88481705D01*
X83627381Y-88886467D02*
X83627381Y-88036467D01*
X83627381Y-88036467D02*
X83303571Y-88036467D01*
X83303571Y-88036467D02*
X83222619Y-88076943D01*
X83222619Y-88076943D02*
X83182142Y-88117419D01*
X83182142Y-88117419D02*
X83141666Y-88198371D01*
X83141666Y-88198371D02*
X83141666Y-88319800D01*
X83141666Y-88319800D02*
X83182142Y-88400752D01*
X83182142Y-88400752D02*
X83222619Y-88441229D01*
X83222619Y-88441229D02*
X83303571Y-88481705D01*
X83303571Y-88481705D02*
X83627381Y-88481705D01*
X82817857Y-88117419D02*
X82777381Y-88076943D01*
X82777381Y-88076943D02*
X82696428Y-88036467D01*
X82696428Y-88036467D02*
X82494047Y-88036467D01*
X82494047Y-88036467D02*
X82413095Y-88076943D01*
X82413095Y-88076943D02*
X82372619Y-88117419D01*
X82372619Y-88117419D02*
X82332142Y-88198371D01*
X82332142Y-88198371D02*
X82332142Y-88279324D01*
X82332142Y-88279324D02*
X82372619Y-88400752D01*
X82372619Y-88400752D02*
X82858333Y-88886467D01*
X82858333Y-88886467D02*
X82332142Y-88886467D01*
X82137142Y-88461467D02*
X83822381Y-88461467D01*
D12*
X83066666Y-91181927D02*
X83199999Y-90991451D01*
X83295237Y-91181927D02*
X83295237Y-90781927D01*
X83295237Y-90781927D02*
X83142856Y-90781927D01*
X83142856Y-90781927D02*
X83104761Y-90800975D01*
X83104761Y-90800975D02*
X83085714Y-90820022D01*
X83085714Y-90820022D02*
X83066666Y-90858118D01*
X83066666Y-90858118D02*
X83066666Y-90915260D01*
X83066666Y-90915260D02*
X83085714Y-90953356D01*
X83085714Y-90953356D02*
X83104761Y-90972403D01*
X83104761Y-90972403D02*
X83142856Y-90991451D01*
X83142856Y-90991451D02*
X83295237Y-90991451D01*
X82914285Y-90820022D02*
X82895237Y-90800975D01*
X82895237Y-90800975D02*
X82857142Y-90781927D01*
X82857142Y-90781927D02*
X82761904Y-90781927D01*
X82761904Y-90781927D02*
X82723809Y-90800975D01*
X82723809Y-90800975D02*
X82704761Y-90820022D01*
X82704761Y-90820022D02*
X82685714Y-90858118D01*
X82685714Y-90858118D02*
X82685714Y-90896213D01*
X82685714Y-90896213D02*
X82704761Y-90953356D01*
X82704761Y-90953356D02*
X82933333Y-91181927D01*
X82933333Y-91181927D02*
X82685714Y-91181927D01*
X82595714Y-90981927D02*
X83385237Y-90981927D01*
D10*
X65133333Y-46345991D02*
X65011904Y-46386467D01*
X65011904Y-46386467D02*
X64809523Y-46386467D01*
X64809523Y-46386467D02*
X64728571Y-46345991D01*
X64728571Y-46345991D02*
X64688095Y-46305514D01*
X64688095Y-46305514D02*
X64647618Y-46224562D01*
X64647618Y-46224562D02*
X64647618Y-46143610D01*
X64647618Y-46143610D02*
X64688095Y-46062657D01*
X64688095Y-46062657D02*
X64728571Y-46022181D01*
X64728571Y-46022181D02*
X64809523Y-45981705D01*
X64809523Y-45981705D02*
X64971428Y-45941229D01*
X64971428Y-45941229D02*
X65052380Y-45900752D01*
X65052380Y-45900752D02*
X65092857Y-45860276D01*
X65092857Y-45860276D02*
X65133333Y-45779324D01*
X65133333Y-45779324D02*
X65133333Y-45698371D01*
X65133333Y-45698371D02*
X65092857Y-45617419D01*
X65092857Y-45617419D02*
X65052380Y-45576943D01*
X65052380Y-45576943D02*
X64971428Y-45536467D01*
X64971428Y-45536467D02*
X64769047Y-45536467D01*
X64769047Y-45536467D02*
X64647618Y-45576943D01*
X64364285Y-45536467D02*
X64161904Y-46386467D01*
X64161904Y-46386467D02*
X63999999Y-45779324D01*
X63999999Y-45779324D02*
X63838094Y-46386467D01*
X63838094Y-46386467D02*
X63635714Y-45536467D01*
X63352380Y-45617419D02*
X63311904Y-45576943D01*
X63311904Y-45576943D02*
X63230951Y-45536467D01*
X63230951Y-45536467D02*
X63028570Y-45536467D01*
X63028570Y-45536467D02*
X62947618Y-45576943D01*
X62947618Y-45576943D02*
X62907142Y-45617419D01*
X62907142Y-45617419D02*
X62866665Y-45698371D01*
X62866665Y-45698371D02*
X62866665Y-45779324D01*
X62866665Y-45779324D02*
X62907142Y-45900752D01*
X62907142Y-45900752D02*
X63392856Y-46386467D01*
X63392856Y-46386467D02*
X62866665Y-46386467D01*
X91032143Y-84886467D02*
X91032143Y-84036467D01*
X91032143Y-84036467D02*
X90829762Y-84036467D01*
X90829762Y-84036467D02*
X90708333Y-84076943D01*
X90708333Y-84076943D02*
X90627381Y-84157895D01*
X90627381Y-84157895D02*
X90586904Y-84238848D01*
X90586904Y-84238848D02*
X90546428Y-84400752D01*
X90546428Y-84400752D02*
X90546428Y-84522181D01*
X90546428Y-84522181D02*
X90586904Y-84684086D01*
X90586904Y-84684086D02*
X90627381Y-84765038D01*
X90627381Y-84765038D02*
X90708333Y-84845991D01*
X90708333Y-84845991D02*
X90829762Y-84886467D01*
X90829762Y-84886467D02*
X91032143Y-84886467D01*
X89736904Y-84886467D02*
X90222619Y-84886467D01*
X89979762Y-84886467D02*
X89979762Y-84036467D01*
X89979762Y-84036467D02*
X90060714Y-84157895D01*
X90060714Y-84157895D02*
X90141666Y-84238848D01*
X90141666Y-84238848D02*
X90222619Y-84279324D01*
X89210714Y-84036467D02*
X89129761Y-84036467D01*
X89129761Y-84036467D02*
X89048809Y-84076943D01*
X89048809Y-84076943D02*
X89008333Y-84117419D01*
X89008333Y-84117419D02*
X88967857Y-84198371D01*
X88967857Y-84198371D02*
X88927380Y-84360276D01*
X88927380Y-84360276D02*
X88927380Y-84562657D01*
X88927380Y-84562657D02*
X88967857Y-84724562D01*
X88967857Y-84724562D02*
X89008333Y-84805514D01*
X89008333Y-84805514D02*
X89048809Y-84845991D01*
X89048809Y-84845991D02*
X89129761Y-84886467D01*
X89129761Y-84886467D02*
X89210714Y-84886467D01*
X89210714Y-84886467D02*
X89291666Y-84845991D01*
X89291666Y-84845991D02*
X89332142Y-84805514D01*
X89332142Y-84805514D02*
X89372619Y-84724562D01*
X89372619Y-84724562D02*
X89413095Y-84562657D01*
X89413095Y-84562657D02*
X89413095Y-84360276D01*
X89413095Y-84360276D02*
X89372619Y-84198371D01*
X89372619Y-84198371D02*
X89332142Y-84117419D01*
X89332142Y-84117419D02*
X89291666Y-84076943D01*
X89291666Y-84076943D02*
X89210714Y-84036467D01*
D11*
X91214285Y-89454819D02*
X91214285Y-88454819D01*
X91214285Y-88454819D02*
X90976190Y-88454819D01*
X90976190Y-88454819D02*
X90833333Y-88502438D01*
X90833333Y-88502438D02*
X90738095Y-88597676D01*
X90738095Y-88597676D02*
X90690476Y-88692914D01*
X90690476Y-88692914D02*
X90642857Y-88883390D01*
X90642857Y-88883390D02*
X90642857Y-89026247D01*
X90642857Y-89026247D02*
X90690476Y-89216723D01*
X90690476Y-89216723D02*
X90738095Y-89311961D01*
X90738095Y-89311961D02*
X90833333Y-89407200D01*
X90833333Y-89407200D02*
X90976190Y-89454819D01*
X90976190Y-89454819D02*
X91214285Y-89454819D01*
X89690476Y-89454819D02*
X90261904Y-89454819D01*
X89976190Y-89454819D02*
X89976190Y-88454819D01*
X89976190Y-88454819D02*
X90071428Y-88597676D01*
X90071428Y-88597676D02*
X90166666Y-88692914D01*
X90166666Y-88692914D02*
X90261904Y-88740533D01*
X89071428Y-88454819D02*
X88976190Y-88454819D01*
X88976190Y-88454819D02*
X88880952Y-88502438D01*
X88880952Y-88502438D02*
X88833333Y-88550057D01*
X88833333Y-88550057D02*
X88785714Y-88645295D01*
X88785714Y-88645295D02*
X88738095Y-88835771D01*
X88738095Y-88835771D02*
X88738095Y-89073866D01*
X88738095Y-89073866D02*
X88785714Y-89264342D01*
X88785714Y-89264342D02*
X88833333Y-89359580D01*
X88833333Y-89359580D02*
X88880952Y-89407200D01*
X88880952Y-89407200D02*
X88976190Y-89454819D01*
X88976190Y-89454819D02*
X89071428Y-89454819D01*
X89071428Y-89454819D02*
X89166666Y-89407200D01*
X89166666Y-89407200D02*
X89214285Y-89359580D01*
X89214285Y-89359580D02*
X89261904Y-89264342D01*
X89261904Y-89264342D02*
X89309523Y-89073866D01*
X89309523Y-89073866D02*
X89309523Y-88835771D01*
X89309523Y-88835771D02*
X89261904Y-88645295D01*
X89261904Y-88645295D02*
X89214285Y-88550057D01*
X89214285Y-88550057D02*
X89166666Y-88502438D01*
X89166666Y-88502438D02*
X89071428Y-88454819D01*
D10*
X27141666Y-16386467D02*
X27425000Y-15981705D01*
X27627381Y-16386467D02*
X27627381Y-15536467D01*
X27627381Y-15536467D02*
X27303571Y-15536467D01*
X27303571Y-15536467D02*
X27222619Y-15576943D01*
X27222619Y-15576943D02*
X27182142Y-15617419D01*
X27182142Y-15617419D02*
X27141666Y-15698371D01*
X27141666Y-15698371D02*
X27141666Y-15819800D01*
X27141666Y-15819800D02*
X27182142Y-15900752D01*
X27182142Y-15900752D02*
X27222619Y-15941229D01*
X27222619Y-15941229D02*
X27303571Y-15981705D01*
X27303571Y-15981705D02*
X27627381Y-15981705D01*
X26858333Y-15536467D02*
X26332142Y-15536467D01*
X26332142Y-15536467D02*
X26615476Y-15860276D01*
X26615476Y-15860276D02*
X26494047Y-15860276D01*
X26494047Y-15860276D02*
X26413095Y-15900752D01*
X26413095Y-15900752D02*
X26372619Y-15941229D01*
X26372619Y-15941229D02*
X26332142Y-16022181D01*
X26332142Y-16022181D02*
X26332142Y-16224562D01*
X26332142Y-16224562D02*
X26372619Y-16305514D01*
X26372619Y-16305514D02*
X26413095Y-16345991D01*
X26413095Y-16345991D02*
X26494047Y-16386467D01*
X26494047Y-16386467D02*
X26736904Y-16386467D01*
X26736904Y-16386467D02*
X26817857Y-16345991D01*
X26817857Y-16345991D02*
X26858333Y-16305514D01*
D12*
X27066666Y-18681927D02*
X27199999Y-18491451D01*
X27295237Y-18681927D02*
X27295237Y-18281927D01*
X27295237Y-18281927D02*
X27142856Y-18281927D01*
X27142856Y-18281927D02*
X27104761Y-18300975D01*
X27104761Y-18300975D02*
X27085714Y-18320022D01*
X27085714Y-18320022D02*
X27066666Y-18358118D01*
X27066666Y-18358118D02*
X27066666Y-18415260D01*
X27066666Y-18415260D02*
X27085714Y-18453356D01*
X27085714Y-18453356D02*
X27104761Y-18472403D01*
X27104761Y-18472403D02*
X27142856Y-18491451D01*
X27142856Y-18491451D02*
X27295237Y-18491451D01*
X26933333Y-18281927D02*
X26685714Y-18281927D01*
X26685714Y-18281927D02*
X26819047Y-18434308D01*
X26819047Y-18434308D02*
X26761904Y-18434308D01*
X26761904Y-18434308D02*
X26723809Y-18453356D01*
X26723809Y-18453356D02*
X26704761Y-18472403D01*
X26704761Y-18472403D02*
X26685714Y-18510499D01*
X26685714Y-18510499D02*
X26685714Y-18605737D01*
X26685714Y-18605737D02*
X26704761Y-18643832D01*
X26704761Y-18643832D02*
X26723809Y-18662880D01*
X26723809Y-18662880D02*
X26761904Y-18681927D01*
X26761904Y-18681927D02*
X26876190Y-18681927D01*
X26876190Y-18681927D02*
X26914285Y-18662880D01*
X26914285Y-18662880D02*
X26933333Y-18643832D01*
D10*
X30627381Y-84886467D02*
X30627381Y-84036467D01*
X30627381Y-84036467D02*
X30425000Y-84036467D01*
X30425000Y-84036467D02*
X30303571Y-84076943D01*
X30303571Y-84076943D02*
X30222619Y-84157895D01*
X30222619Y-84157895D02*
X30182142Y-84238848D01*
X30182142Y-84238848D02*
X30141666Y-84400752D01*
X30141666Y-84400752D02*
X30141666Y-84522181D01*
X30141666Y-84522181D02*
X30182142Y-84684086D01*
X30182142Y-84684086D02*
X30222619Y-84765038D01*
X30222619Y-84765038D02*
X30303571Y-84845991D01*
X30303571Y-84845991D02*
X30425000Y-84886467D01*
X30425000Y-84886467D02*
X30627381Y-84886467D01*
X29858333Y-84036467D02*
X29291666Y-84036467D01*
X29291666Y-84036467D02*
X29655952Y-84886467D01*
D11*
X30738094Y-89454819D02*
X30738094Y-88454819D01*
X30738094Y-88454819D02*
X30499999Y-88454819D01*
X30499999Y-88454819D02*
X30357142Y-88502438D01*
X30357142Y-88502438D02*
X30261904Y-88597676D01*
X30261904Y-88597676D02*
X30214285Y-88692914D01*
X30214285Y-88692914D02*
X30166666Y-88883390D01*
X30166666Y-88883390D02*
X30166666Y-89026247D01*
X30166666Y-89026247D02*
X30214285Y-89216723D01*
X30214285Y-89216723D02*
X30261904Y-89311961D01*
X30261904Y-89311961D02*
X30357142Y-89407200D01*
X30357142Y-89407200D02*
X30499999Y-89454819D01*
X30499999Y-89454819D02*
X30738094Y-89454819D01*
X29833332Y-88454819D02*
X29166666Y-88454819D01*
X29166666Y-88454819D02*
X29595237Y-89454819D01*
D10*
X70627381Y-84886467D02*
X70627381Y-84036467D01*
X70627381Y-84036467D02*
X70425000Y-84036467D01*
X70425000Y-84036467D02*
X70303571Y-84076943D01*
X70303571Y-84076943D02*
X70222619Y-84157895D01*
X70222619Y-84157895D02*
X70182142Y-84238848D01*
X70182142Y-84238848D02*
X70141666Y-84400752D01*
X70141666Y-84400752D02*
X70141666Y-84522181D01*
X70141666Y-84522181D02*
X70182142Y-84684086D01*
X70182142Y-84684086D02*
X70222619Y-84765038D01*
X70222619Y-84765038D02*
X70303571Y-84845991D01*
X70303571Y-84845991D02*
X70425000Y-84886467D01*
X70425000Y-84886467D02*
X70627381Y-84886467D01*
X69736904Y-84886467D02*
X69575000Y-84886467D01*
X69575000Y-84886467D02*
X69494047Y-84845991D01*
X69494047Y-84845991D02*
X69453571Y-84805514D01*
X69453571Y-84805514D02*
X69372619Y-84684086D01*
X69372619Y-84684086D02*
X69332142Y-84522181D01*
X69332142Y-84522181D02*
X69332142Y-84198371D01*
X69332142Y-84198371D02*
X69372619Y-84117419D01*
X69372619Y-84117419D02*
X69413095Y-84076943D01*
X69413095Y-84076943D02*
X69494047Y-84036467D01*
X69494047Y-84036467D02*
X69655952Y-84036467D01*
X69655952Y-84036467D02*
X69736904Y-84076943D01*
X69736904Y-84076943D02*
X69777381Y-84117419D01*
X69777381Y-84117419D02*
X69817857Y-84198371D01*
X69817857Y-84198371D02*
X69817857Y-84400752D01*
X69817857Y-84400752D02*
X69777381Y-84481705D01*
X69777381Y-84481705D02*
X69736904Y-84522181D01*
X69736904Y-84522181D02*
X69655952Y-84562657D01*
X69655952Y-84562657D02*
X69494047Y-84562657D01*
X69494047Y-84562657D02*
X69413095Y-84522181D01*
X69413095Y-84522181D02*
X69372619Y-84481705D01*
X69372619Y-84481705D02*
X69332142Y-84400752D01*
D11*
X70738094Y-89454819D02*
X70738094Y-88454819D01*
X70738094Y-88454819D02*
X70499999Y-88454819D01*
X70499999Y-88454819D02*
X70357142Y-88502438D01*
X70357142Y-88502438D02*
X70261904Y-88597676D01*
X70261904Y-88597676D02*
X70214285Y-88692914D01*
X70214285Y-88692914D02*
X70166666Y-88883390D01*
X70166666Y-88883390D02*
X70166666Y-89026247D01*
X70166666Y-89026247D02*
X70214285Y-89216723D01*
X70214285Y-89216723D02*
X70261904Y-89311961D01*
X70261904Y-89311961D02*
X70357142Y-89407200D01*
X70357142Y-89407200D02*
X70499999Y-89454819D01*
X70499999Y-89454819D02*
X70738094Y-89454819D01*
X69690475Y-89454819D02*
X69499999Y-89454819D01*
X69499999Y-89454819D02*
X69404761Y-89407200D01*
X69404761Y-89407200D02*
X69357142Y-89359580D01*
X69357142Y-89359580D02*
X69261904Y-89216723D01*
X69261904Y-89216723D02*
X69214285Y-89026247D01*
X69214285Y-89026247D02*
X69214285Y-88645295D01*
X69214285Y-88645295D02*
X69261904Y-88550057D01*
X69261904Y-88550057D02*
X69309523Y-88502438D01*
X69309523Y-88502438D02*
X69404761Y-88454819D01*
X69404761Y-88454819D02*
X69595237Y-88454819D01*
X69595237Y-88454819D02*
X69690475Y-88502438D01*
X69690475Y-88502438D02*
X69738094Y-88550057D01*
X69738094Y-88550057D02*
X69785713Y-88645295D01*
X69785713Y-88645295D02*
X69785713Y-88883390D01*
X69785713Y-88883390D02*
X69738094Y-88978628D01*
X69738094Y-88978628D02*
X69690475Y-89026247D01*
X69690475Y-89026247D02*
X69595237Y-89073866D01*
X69595237Y-89073866D02*
X69404761Y-89073866D01*
X69404761Y-89073866D02*
X69309523Y-89026247D01*
X69309523Y-89026247D02*
X69261904Y-88978628D01*
X69261904Y-88978628D02*
X69214285Y-88883390D01*
D10*
X50627381Y-64886467D02*
X50627381Y-64036467D01*
X50627381Y-64036467D02*
X50425000Y-64036467D01*
X50425000Y-64036467D02*
X50303571Y-64076943D01*
X50303571Y-64076943D02*
X50222619Y-64157895D01*
X50222619Y-64157895D02*
X50182142Y-64238848D01*
X50182142Y-64238848D02*
X50141666Y-64400752D01*
X50141666Y-64400752D02*
X50141666Y-64522181D01*
X50141666Y-64522181D02*
X50182142Y-64684086D01*
X50182142Y-64684086D02*
X50222619Y-64765038D01*
X50222619Y-64765038D02*
X50303571Y-64845991D01*
X50303571Y-64845991D02*
X50425000Y-64886467D01*
X50425000Y-64886467D02*
X50627381Y-64886467D01*
X49413095Y-64319800D02*
X49413095Y-64886467D01*
X49615476Y-63995991D02*
X49817857Y-64603133D01*
X49817857Y-64603133D02*
X49291666Y-64603133D01*
D11*
X50738094Y-69454819D02*
X50738094Y-68454819D01*
X50738094Y-68454819D02*
X50499999Y-68454819D01*
X50499999Y-68454819D02*
X50357142Y-68502438D01*
X50357142Y-68502438D02*
X50261904Y-68597676D01*
X50261904Y-68597676D02*
X50214285Y-68692914D01*
X50214285Y-68692914D02*
X50166666Y-68883390D01*
X50166666Y-68883390D02*
X50166666Y-69026247D01*
X50166666Y-69026247D02*
X50214285Y-69216723D01*
X50214285Y-69216723D02*
X50261904Y-69311961D01*
X50261904Y-69311961D02*
X50357142Y-69407200D01*
X50357142Y-69407200D02*
X50499999Y-69454819D01*
X50499999Y-69454819D02*
X50738094Y-69454819D01*
X49309523Y-68788152D02*
X49309523Y-69454819D01*
X49547618Y-68407200D02*
X49785713Y-69121485D01*
X49785713Y-69121485D02*
X49166666Y-69121485D01*
D10*
X50627381Y-42886467D02*
X50627381Y-42036467D01*
X50627381Y-42036467D02*
X50425000Y-42036467D01*
X50425000Y-42036467D02*
X50303571Y-42076943D01*
X50303571Y-42076943D02*
X50222619Y-42157895D01*
X50222619Y-42157895D02*
X50182142Y-42238848D01*
X50182142Y-42238848D02*
X50141666Y-42400752D01*
X50141666Y-42400752D02*
X50141666Y-42522181D01*
X50141666Y-42522181D02*
X50182142Y-42684086D01*
X50182142Y-42684086D02*
X50222619Y-42765038D01*
X50222619Y-42765038D02*
X50303571Y-42845991D01*
X50303571Y-42845991D02*
X50425000Y-42886467D01*
X50425000Y-42886467D02*
X50627381Y-42886467D01*
X49332142Y-42886467D02*
X49817857Y-42886467D01*
X49575000Y-42886467D02*
X49575000Y-42036467D01*
X49575000Y-42036467D02*
X49655952Y-42157895D01*
X49655952Y-42157895D02*
X49736904Y-42238848D01*
X49736904Y-42238848D02*
X49817857Y-42279324D01*
D11*
X50738094Y-47454819D02*
X50738094Y-46454819D01*
X50738094Y-46454819D02*
X50499999Y-46454819D01*
X50499999Y-46454819D02*
X50357142Y-46502438D01*
X50357142Y-46502438D02*
X50261904Y-46597676D01*
X50261904Y-46597676D02*
X50214285Y-46692914D01*
X50214285Y-46692914D02*
X50166666Y-46883390D01*
X50166666Y-46883390D02*
X50166666Y-47026247D01*
X50166666Y-47026247D02*
X50214285Y-47216723D01*
X50214285Y-47216723D02*
X50261904Y-47311961D01*
X50261904Y-47311961D02*
X50357142Y-47407200D01*
X50357142Y-47407200D02*
X50499999Y-47454819D01*
X50499999Y-47454819D02*
X50738094Y-47454819D01*
X49214285Y-47454819D02*
X49785713Y-47454819D01*
X49499999Y-47454819D02*
X49499999Y-46454819D01*
X49499999Y-46454819D02*
X49595237Y-46597676D01*
X49595237Y-46597676D02*
X49690475Y-46692914D01*
X49690475Y-46692914D02*
X49785713Y-46740533D01*
D10*
X16141666Y-6805514D02*
X16182142Y-6845991D01*
X16182142Y-6845991D02*
X16303571Y-6886467D01*
X16303571Y-6886467D02*
X16384523Y-6886467D01*
X16384523Y-6886467D02*
X16505952Y-6845991D01*
X16505952Y-6845991D02*
X16586904Y-6765038D01*
X16586904Y-6765038D02*
X16627381Y-6684086D01*
X16627381Y-6684086D02*
X16667857Y-6522181D01*
X16667857Y-6522181D02*
X16667857Y-6400752D01*
X16667857Y-6400752D02*
X16627381Y-6238848D01*
X16627381Y-6238848D02*
X16586904Y-6157895D01*
X16586904Y-6157895D02*
X16505952Y-6076943D01*
X16505952Y-6076943D02*
X16384523Y-6036467D01*
X16384523Y-6036467D02*
X16303571Y-6036467D01*
X16303571Y-6036467D02*
X16182142Y-6076943D01*
X16182142Y-6076943D02*
X16141666Y-6117419D01*
X15817857Y-6117419D02*
X15777381Y-6076943D01*
X15777381Y-6076943D02*
X15696428Y-6036467D01*
X15696428Y-6036467D02*
X15494047Y-6036467D01*
X15494047Y-6036467D02*
X15413095Y-6076943D01*
X15413095Y-6076943D02*
X15372619Y-6117419D01*
X15372619Y-6117419D02*
X15332142Y-6198371D01*
X15332142Y-6198371D02*
X15332142Y-6279324D01*
X15332142Y-6279324D02*
X15372619Y-6400752D01*
X15372619Y-6400752D02*
X15858333Y-6886467D01*
X15858333Y-6886467D02*
X15332142Y-6886467D01*
X15137142Y-6461467D02*
X16862857Y-6461467D01*
D11*
X16166666Y-9359580D02*
X16214285Y-9407200D01*
X16214285Y-9407200D02*
X16357142Y-9454819D01*
X16357142Y-9454819D02*
X16452380Y-9454819D01*
X16452380Y-9454819D02*
X16595237Y-9407200D01*
X16595237Y-9407200D02*
X16690475Y-9311961D01*
X16690475Y-9311961D02*
X16738094Y-9216723D01*
X16738094Y-9216723D02*
X16785713Y-9026247D01*
X16785713Y-9026247D02*
X16785713Y-8883390D01*
X16785713Y-8883390D02*
X16738094Y-8692914D01*
X16738094Y-8692914D02*
X16690475Y-8597676D01*
X16690475Y-8597676D02*
X16595237Y-8502438D01*
X16595237Y-8502438D02*
X16452380Y-8454819D01*
X16452380Y-8454819D02*
X16357142Y-8454819D01*
X16357142Y-8454819D02*
X16214285Y-8502438D01*
X16214285Y-8502438D02*
X16166666Y-8550057D01*
X15785713Y-8550057D02*
X15738094Y-8502438D01*
X15738094Y-8502438D02*
X15642856Y-8454819D01*
X15642856Y-8454819D02*
X15404761Y-8454819D01*
X15404761Y-8454819D02*
X15309523Y-8502438D01*
X15309523Y-8502438D02*
X15261904Y-8550057D01*
X15261904Y-8550057D02*
X15214285Y-8645295D01*
X15214285Y-8645295D02*
X15214285Y-8740533D01*
X15214285Y-8740533D02*
X15261904Y-8883390D01*
X15261904Y-8883390D02*
X15833332Y-9454819D01*
X15833332Y-9454819D02*
X15214285Y-9454819D01*
X14989285Y-8954819D02*
X17010713Y-8954819D01*
D13*
%TO.C,SW1*%
X37000000Y-30000000D02*
X37000000Y-44000000D01*
X37000000Y-44000000D02*
X51000000Y-44000000D01*
X38190000Y-30400000D02*
X38190000Y-36000000D01*
X38190000Y-36000000D02*
X48540000Y-36000000D01*
X48540000Y-30400000D02*
X38190000Y-30400000D01*
X48540000Y-36000000D02*
X48540000Y-30400000D01*
X51000000Y-30000000D02*
X37000000Y-30000000D01*
X51000000Y-44000000D02*
X51000000Y-30000000D01*
%TO.C,SW6*%
X77000000Y-52000000D02*
X77000000Y-66000000D01*
X77000000Y-66000000D02*
X91000000Y-66000000D01*
X78190000Y-52400000D02*
X78190000Y-58000000D01*
X78190000Y-58000000D02*
X88540000Y-58000000D01*
X88540000Y-52400000D02*
X78190000Y-52400000D01*
X88540000Y-58000000D02*
X88540000Y-52400000D01*
X91000000Y-52000000D02*
X77000000Y-52000000D01*
X91000000Y-66000000D02*
X91000000Y-52000000D01*
D14*
%TO.C,D13*%
X67640000Y-106000000D02*
X71650000Y-106000000D01*
X67640000Y-108000000D02*
X67640000Y-106000000D01*
X67640000Y-108000000D02*
X71650000Y-108000000D01*
D13*
X68600000Y-106100000D02*
X68600000Y-107900000D01*
X68600000Y-107900000D02*
X71400000Y-107900000D01*
X69250000Y-107000000D02*
X69650000Y-107000000D01*
X69650000Y-107000000D02*
X69650000Y-106450000D01*
X69650000Y-107000000D02*
X69650000Y-107550000D01*
X69650000Y-107000000D02*
X70250000Y-107400000D01*
X70250000Y-106600000D02*
X69650000Y-107000000D01*
X70250000Y-107000000D02*
X70750000Y-107000000D01*
X70250000Y-107400000D02*
X70250000Y-106600000D01*
X71400000Y-106100000D02*
X68600000Y-106100000D01*
X71400000Y-107900000D02*
X71400000Y-106100000D01*
%TO.C,SW13*%
X57000000Y-92000000D02*
X57000000Y-106000000D01*
X57000000Y-106000000D02*
X71000000Y-106000000D01*
X58190000Y-92400000D02*
X58190000Y-98000000D01*
X58190000Y-98000000D02*
X68540000Y-98000000D01*
X68540000Y-92400000D02*
X58190000Y-92400000D01*
X68540000Y-98000000D02*
X68540000Y-92400000D01*
X71000000Y-92000000D02*
X57000000Y-92000000D01*
X71000000Y-106000000D02*
X71000000Y-92000000D01*
D14*
%TO.C,D3*%
X27640000Y-66000000D02*
X31650000Y-66000000D01*
X27640000Y-68000000D02*
X27640000Y-66000000D01*
X27640000Y-68000000D02*
X31650000Y-68000000D01*
D13*
X28600000Y-66100000D02*
X28600000Y-67900000D01*
X28600000Y-67900000D02*
X31400000Y-67900000D01*
X29250000Y-67000000D02*
X29650000Y-67000000D01*
X29650000Y-67000000D02*
X29650000Y-66450000D01*
X29650000Y-67000000D02*
X29650000Y-67550000D01*
X29650000Y-67000000D02*
X30250000Y-67400000D01*
X30250000Y-66600000D02*
X29650000Y-67000000D01*
X30250000Y-67000000D02*
X30750000Y-67000000D01*
X30250000Y-67400000D02*
X30250000Y-66600000D01*
X31400000Y-66100000D02*
X28600000Y-66100000D01*
X31400000Y-67900000D02*
X31400000Y-66100000D01*
D14*
%TO.C,D2*%
X67640000Y-44000000D02*
X71650000Y-44000000D01*
X67640000Y-46000000D02*
X67640000Y-44000000D01*
X67640000Y-46000000D02*
X71650000Y-46000000D01*
D13*
X68600000Y-44100000D02*
X68600000Y-45900000D01*
X68600000Y-45900000D02*
X71400000Y-45900000D01*
X69250000Y-45000000D02*
X69650000Y-45000000D01*
X69650000Y-45000000D02*
X69650000Y-44450000D01*
X69650000Y-45000000D02*
X69650000Y-45550000D01*
X69650000Y-45000000D02*
X70250000Y-45400000D01*
X70250000Y-44600000D02*
X69650000Y-45000000D01*
X70250000Y-45000000D02*
X70750000Y-45000000D01*
X70250000Y-45400000D02*
X70250000Y-44600000D01*
X71400000Y-44100000D02*
X68600000Y-44100000D01*
X71400000Y-45900000D02*
X71400000Y-44100000D01*
%TO.C,SW9*%
X57000000Y-72000000D02*
X57000000Y-86000000D01*
X57000000Y-86000000D02*
X71000000Y-86000000D01*
X58190000Y-72400000D02*
X58190000Y-78000000D01*
X58190000Y-78000000D02*
X68540000Y-78000000D01*
X68540000Y-72400000D02*
X58190000Y-72400000D01*
X68540000Y-78000000D02*
X68540000Y-72400000D01*
X71000000Y-72000000D02*
X57000000Y-72000000D01*
X71000000Y-86000000D02*
X71000000Y-72000000D01*
D14*
%TO.C,D11*%
X27640000Y-106000000D02*
X31650000Y-106000000D01*
X27640000Y-108000000D02*
X27640000Y-106000000D01*
X27640000Y-108000000D02*
X31650000Y-108000000D01*
D13*
X28600000Y-106100000D02*
X28600000Y-107900000D01*
X28600000Y-107900000D02*
X31400000Y-107900000D01*
X29250000Y-107000000D02*
X29650000Y-107000000D01*
X29650000Y-107000000D02*
X29650000Y-106450000D01*
X29650000Y-107000000D02*
X29650000Y-107550000D01*
X29650000Y-107000000D02*
X30250000Y-107400000D01*
X30250000Y-106600000D02*
X29650000Y-107000000D01*
X30250000Y-107000000D02*
X30750000Y-107000000D01*
X30250000Y-107400000D02*
X30250000Y-106600000D01*
X31400000Y-106100000D02*
X28600000Y-106100000D01*
X31400000Y-107900000D02*
X31400000Y-106100000D01*
%TO.C,U1*%
X42000000Y-5000000D02*
X42000000Y-26000000D01*
X42000000Y-11500000D02*
X42000000Y-19500000D01*
X42000000Y-19500000D02*
X47000000Y-19500000D01*
X42000000Y-26000000D02*
X93000000Y-26000000D01*
X47000000Y-11500000D02*
X42000000Y-11500000D01*
X47000000Y-19500000D02*
X47000000Y-11500000D01*
D11*
X84000000Y-8500000D02*
X93000000Y-8500000D01*
X84000000Y-22500000D02*
X84000000Y-8500000D01*
X84000000Y-22500000D02*
X93000000Y-22500000D01*
D13*
X93000000Y-5000000D02*
X42000000Y-5000000D01*
X93000000Y-26000000D02*
X93000000Y-5000000D01*
X82150000Y-88587500D02*
X82150000Y-89412500D01*
X82250000Y-89412500D02*
G75*
G02*
X82150000Y-89412500I-50000J0D01*
G01*
X82250000Y-89412500D02*
X82250000Y-88587500D01*
X82250000Y-88587500D02*
G75*
G03*
X82150000Y-88587500I-50000J0D01*
G01*
X82200000Y-89462500D02*
X83800000Y-89462500D01*
X83800000Y-89362500D02*
G75*
G02*
X83800000Y-89462500I0J-50000D01*
G01*
X83800000Y-89362500D02*
X82200000Y-89362500D01*
X82200000Y-89362500D02*
G75*
G03*
X82200000Y-89462500I0J-50000D01*
G01*
X82762742Y-88537500D02*
X83237258Y-88537500D01*
X83237258Y-88417500D02*
G75*
G02*
X83237258Y-88537500I0J-60000D01*
G01*
X83237258Y-88417500D02*
X82762742Y-88417500D01*
X82762742Y-88417500D02*
G75*
G03*
X82762742Y-88537500I0J-60000D01*
G01*
X82762742Y-89582500D02*
X83237258Y-89582500D01*
X83237258Y-89462500D02*
G75*
G02*
X83237258Y-89582500I0J-60000D01*
G01*
X83237258Y-89462500D02*
X82762742Y-89462500D01*
X82762742Y-89462500D02*
G75*
G03*
X82762742Y-89582500I0J-60000D01*
G01*
X83800000Y-88537500D02*
X82200000Y-88537500D01*
X82200000Y-88637500D02*
G75*
G02*
X82200000Y-88537500I0J50000D01*
G01*
X82200000Y-88637500D02*
X83800000Y-88637500D01*
X83800000Y-88637500D02*
G75*
G03*
X83800000Y-88537500I0J50000D01*
G01*
X83850000Y-89412500D02*
X83850000Y-88587500D01*
X83750000Y-88587500D02*
G75*
G02*
X83850000Y-88587500I50000J0D01*
G01*
X83750000Y-88587500D02*
X83750000Y-89412500D01*
X83750000Y-89412500D02*
G75*
G03*
X83850000Y-89412500I50000J0D01*
G01*
%TO.C,SW11*%
X17000000Y-92000000D02*
X17000000Y-106000000D01*
X17000000Y-106000000D02*
X31000000Y-106000000D01*
X18190000Y-92400000D02*
X18190000Y-98000000D01*
X18190000Y-98000000D02*
X28540000Y-98000000D01*
X28540000Y-92400000D02*
X18190000Y-92400000D01*
X28540000Y-98000000D02*
X28540000Y-92400000D01*
X31000000Y-92000000D02*
X17000000Y-92000000D01*
X31000000Y-106000000D02*
X31000000Y-92000000D01*
D14*
%TO.C,D6*%
X87640000Y-66000000D02*
X91650000Y-66000000D01*
X87640000Y-68000000D02*
X87640000Y-66000000D01*
X87640000Y-68000000D02*
X91650000Y-68000000D01*
D13*
X88600000Y-66100000D02*
X88600000Y-67900000D01*
X88600000Y-67900000D02*
X91400000Y-67900000D01*
X89250000Y-67000000D02*
X89650000Y-67000000D01*
X89650000Y-67000000D02*
X89650000Y-66450000D01*
X89650000Y-67000000D02*
X89650000Y-67550000D01*
X89650000Y-67000000D02*
X90250000Y-67400000D01*
X90250000Y-66600000D02*
X89650000Y-67000000D01*
X90250000Y-67000000D02*
X90750000Y-67000000D01*
X90250000Y-67400000D02*
X90250000Y-66600000D01*
X91400000Y-66100000D02*
X88600000Y-66100000D01*
X91400000Y-67900000D02*
X91400000Y-66100000D01*
D14*
%TO.C,D8*%
X47640000Y-86000000D02*
X51650000Y-86000000D01*
X47640000Y-88000000D02*
X47640000Y-86000000D01*
X47640000Y-88000000D02*
X51650000Y-88000000D01*
D13*
X48600000Y-86100000D02*
X48600000Y-87900000D01*
X48600000Y-87900000D02*
X51400000Y-87900000D01*
X49250000Y-87000000D02*
X49650000Y-87000000D01*
X49650000Y-87000000D02*
X49650000Y-86450000D01*
X49650000Y-87000000D02*
X49650000Y-87550000D01*
X49650000Y-87000000D02*
X50250000Y-87400000D01*
X50250000Y-86600000D02*
X49650000Y-87000000D01*
X50250000Y-87000000D02*
X50750000Y-87000000D01*
X50250000Y-87400000D02*
X50250000Y-86600000D01*
X51400000Y-86100000D02*
X48600000Y-86100000D01*
X51400000Y-87900000D02*
X51400000Y-86100000D01*
%TO.C,SW7*%
X17000000Y-72000000D02*
X17000000Y-86000000D01*
X17000000Y-86000000D02*
X31000000Y-86000000D01*
X18190000Y-72400000D02*
X18190000Y-78000000D01*
X18190000Y-78000000D02*
X28540000Y-78000000D01*
X28540000Y-72400000D02*
X18190000Y-72400000D01*
X28540000Y-78000000D02*
X28540000Y-72400000D01*
X31000000Y-72000000D02*
X17000000Y-72000000D01*
X31000000Y-86000000D02*
X31000000Y-72000000D01*
%TO.C,SW8*%
X37000000Y-72000000D02*
X37000000Y-86000000D01*
X37000000Y-86000000D02*
X51000000Y-86000000D01*
X38190000Y-72400000D02*
X38190000Y-78000000D01*
X38190000Y-78000000D02*
X48540000Y-78000000D01*
X48540000Y-72400000D02*
X38190000Y-72400000D01*
X48540000Y-78000000D02*
X48540000Y-72400000D01*
X51000000Y-72000000D02*
X37000000Y-72000000D01*
X51000000Y-86000000D02*
X51000000Y-72000000D01*
%TO.C,SW3*%
X17000000Y-52000000D02*
X17000000Y-66000000D01*
X17000000Y-66000000D02*
X31000000Y-66000000D01*
X18190000Y-52400000D02*
X18190000Y-58000000D01*
X18190000Y-58000000D02*
X28540000Y-58000000D01*
X28540000Y-52400000D02*
X18190000Y-52400000D01*
X28540000Y-58000000D02*
X28540000Y-52400000D01*
X31000000Y-52000000D02*
X17000000Y-52000000D01*
X31000000Y-66000000D02*
X31000000Y-52000000D01*
%TO.C,SW12*%
X37000000Y-92000000D02*
X37000000Y-106000000D01*
X37000000Y-106000000D02*
X51000000Y-106000000D01*
X38190000Y-92400000D02*
X38190000Y-98000000D01*
X38190000Y-98000000D02*
X48540000Y-98000000D01*
X48540000Y-92400000D02*
X38190000Y-92400000D01*
X48540000Y-98000000D02*
X48540000Y-92400000D01*
X51000000Y-92000000D02*
X37000000Y-92000000D01*
X51000000Y-106000000D02*
X51000000Y-92000000D01*
%TO.C,R4*%
X31700000Y-18087500D02*
X31700000Y-18912500D01*
X31700000Y-18912500D02*
X33300000Y-18912500D01*
D14*
X32262742Y-17977500D02*
X32737258Y-17977500D01*
X32262742Y-19022500D02*
X32737258Y-19022500D01*
D13*
X33300000Y-18087500D02*
X31700000Y-18087500D01*
X33300000Y-18912500D02*
X33300000Y-18087500D01*
%TO.C,C1*%
X30200000Y-11100000D02*
X30200000Y-11900000D01*
X30200000Y-11900000D02*
X31800000Y-11900000D01*
D14*
X30859420Y-10990000D02*
X31140580Y-10990000D01*
X30859420Y-12010000D02*
X31140580Y-12010000D01*
D13*
X31800000Y-11100000D02*
X30200000Y-11100000D01*
X31800000Y-11900000D02*
X31800000Y-11100000D01*
%TO.C,SW4*%
X37000000Y-52000000D02*
X37000000Y-66000000D01*
X37000000Y-66000000D02*
X51000000Y-66000000D01*
X38190000Y-52400000D02*
X38190000Y-58000000D01*
X38190000Y-58000000D02*
X48540000Y-58000000D01*
X48540000Y-52400000D02*
X38190000Y-52400000D01*
X48540000Y-58000000D02*
X48540000Y-52400000D01*
X51000000Y-52000000D02*
X37000000Y-52000000D01*
X51000000Y-66000000D02*
X51000000Y-52000000D01*
D14*
%TO.C,D12*%
X47640000Y-106000000D02*
X51650000Y-106000000D01*
X47640000Y-108000000D02*
X47640000Y-106000000D01*
X47640000Y-108000000D02*
X51650000Y-108000000D01*
D13*
X48600000Y-106100000D02*
X48600000Y-107900000D01*
X48600000Y-107900000D02*
X51400000Y-107900000D01*
X49250000Y-107000000D02*
X49650000Y-107000000D01*
X49650000Y-107000000D02*
X49650000Y-106450000D01*
X49650000Y-107000000D02*
X49650000Y-107550000D01*
X49650000Y-107000000D02*
X50250000Y-107400000D01*
X50250000Y-106600000D02*
X49650000Y-107000000D01*
X50250000Y-107000000D02*
X50750000Y-107000000D01*
X50250000Y-107400000D02*
X50250000Y-106600000D01*
X51400000Y-106100000D02*
X48600000Y-106100000D01*
X51400000Y-107900000D02*
X51400000Y-106100000D01*
%TO.C,U2*%
X30200000Y-13550000D02*
X30200000Y-16050000D01*
X30200000Y-16050000D02*
X30600000Y-16450000D01*
X30600000Y-16450000D02*
X31800000Y-16450000D01*
D14*
X31000000Y-13440000D02*
X30200000Y-13440000D01*
X31000000Y-13440000D02*
X31800000Y-13440000D01*
X31000000Y-16560000D02*
X30200000Y-16560000D01*
X31000000Y-16560000D02*
X31800000Y-16560000D01*
D13*
X31800000Y-13550000D02*
X30200000Y-13550000D01*
X31800000Y-16450000D02*
X31800000Y-13550000D01*
D14*
X29940000Y-16840000D02*
X29460000Y-16840000D01*
X29700000Y-16510000D01*
X29940000Y-16840000D01*
G36*
X29940000Y-16840000D02*
G01*
X29460000Y-16840000D01*
X29700000Y-16510000D01*
X29940000Y-16840000D01*
G37*
D13*
%TO.C,SW5*%
X57000000Y-52000000D02*
X57000000Y-66000000D01*
X57000000Y-66000000D02*
X71000000Y-66000000D01*
X58190000Y-52400000D02*
X58190000Y-58000000D01*
X58190000Y-58000000D02*
X68540000Y-58000000D01*
X68540000Y-52400000D02*
X58190000Y-52400000D01*
X68540000Y-58000000D02*
X68540000Y-52400000D01*
X71000000Y-52000000D02*
X57000000Y-52000000D01*
X71000000Y-66000000D02*
X71000000Y-52000000D01*
D14*
%TO.C,D5*%
X67640000Y-66000000D02*
X71650000Y-66000000D01*
X67640000Y-68000000D02*
X67640000Y-66000000D01*
X67640000Y-68000000D02*
X71650000Y-68000000D01*
D13*
X68600000Y-66100000D02*
X68600000Y-67900000D01*
X68600000Y-67900000D02*
X71400000Y-67900000D01*
X69250000Y-67000000D02*
X69650000Y-67000000D01*
X69650000Y-67000000D02*
X69650000Y-66450000D01*
X69650000Y-67000000D02*
X69650000Y-67550000D01*
X69650000Y-67000000D02*
X70250000Y-67400000D01*
X70250000Y-66600000D02*
X69650000Y-67000000D01*
X70250000Y-67000000D02*
X70750000Y-67000000D01*
X70250000Y-67400000D02*
X70250000Y-66600000D01*
X71400000Y-66100000D02*
X68600000Y-66100000D01*
X71400000Y-67900000D02*
X71400000Y-66100000D01*
%TO.C,SW10*%
X77000000Y-72000000D02*
X77000000Y-86000000D01*
X77000000Y-86000000D02*
X91000000Y-86000000D01*
X78190000Y-72400000D02*
X78190000Y-78000000D01*
X78190000Y-78000000D02*
X88540000Y-78000000D01*
X88540000Y-72400000D02*
X78190000Y-72400000D01*
X88540000Y-78000000D02*
X88540000Y-72400000D01*
X91000000Y-72000000D02*
X77000000Y-72000000D01*
X91000000Y-86000000D02*
X91000000Y-72000000D01*
X82150000Y-90587500D02*
X82150000Y-91412500D01*
X82250000Y-91412500D02*
G75*
G02*
X82150000Y-91412500I-50000J0D01*
G01*
X82250000Y-91412500D02*
X82250000Y-90587500D01*
X82250000Y-90587500D02*
G75*
G03*
X82150000Y-90587500I-50000J0D01*
G01*
X82200000Y-91462500D02*
X83800000Y-91462500D01*
X83800000Y-91362500D02*
G75*
G02*
X83800000Y-91462500I0J-50000D01*
G01*
X83800000Y-91362500D02*
X82200000Y-91362500D01*
X82200000Y-91362500D02*
G75*
G03*
X82200000Y-91462500I0J-50000D01*
G01*
X82762742Y-90537500D02*
X83237258Y-90537500D01*
X83237258Y-90417500D02*
G75*
G02*
X83237258Y-90537500I0J-60000D01*
G01*
X83237258Y-90417500D02*
X82762742Y-90417500D01*
X82762742Y-90417500D02*
G75*
G03*
X82762742Y-90537500I0J-60000D01*
G01*
X82762742Y-91582500D02*
X83237258Y-91582500D01*
X83237258Y-91462500D02*
G75*
G02*
X83237258Y-91582500I0J-60000D01*
G01*
X83237258Y-91462500D02*
X82762742Y-91462500D01*
X82762742Y-91462500D02*
G75*
G03*
X82762742Y-91582500I0J-60000D01*
G01*
X83800000Y-90537500D02*
X82200000Y-90537500D01*
X82200000Y-90637500D02*
G75*
G02*
X82200000Y-90537500I0J50000D01*
G01*
X82200000Y-90637500D02*
X83800000Y-90637500D01*
X83800000Y-90637500D02*
G75*
G03*
X83800000Y-90537500I0J50000D01*
G01*
X83850000Y-91412500D02*
X83850000Y-90587500D01*
X83750000Y-90587500D02*
G75*
G02*
X83850000Y-90587500I50000J0D01*
G01*
X83750000Y-90587500D02*
X83750000Y-91412500D01*
X83750000Y-91412500D02*
G75*
G03*
X83850000Y-91412500I50000J0D01*
G01*
%TO.C,SW2*%
X57000000Y-30000000D02*
X57000000Y-44000000D01*
X57000000Y-44000000D02*
X71000000Y-44000000D01*
X58190000Y-30400000D02*
X58190000Y-36000000D01*
X58190000Y-36000000D02*
X68540000Y-36000000D01*
X68540000Y-30400000D02*
X58190000Y-30400000D01*
X68540000Y-36000000D02*
X68540000Y-30400000D01*
X71000000Y-30000000D02*
X57000000Y-30000000D01*
X71000000Y-44000000D02*
X71000000Y-30000000D01*
D14*
%TO.C,D10*%
X87640000Y-86000000D02*
X91650000Y-86000000D01*
X87640000Y-88000000D02*
X87640000Y-86000000D01*
X87640000Y-88000000D02*
X91650000Y-88000000D01*
D13*
X88600000Y-86100000D02*
X88600000Y-87900000D01*
X88600000Y-87900000D02*
X91400000Y-87900000D01*
X89250000Y-87000000D02*
X89650000Y-87000000D01*
X89650000Y-87000000D02*
X89650000Y-86450000D01*
X89650000Y-87000000D02*
X89650000Y-87550000D01*
X89650000Y-87000000D02*
X90250000Y-87400000D01*
X90250000Y-86600000D02*
X89650000Y-87000000D01*
X90250000Y-87000000D02*
X90750000Y-87000000D01*
X90250000Y-87400000D02*
X90250000Y-86600000D01*
X91400000Y-86100000D02*
X88600000Y-86100000D01*
X91400000Y-87900000D02*
X91400000Y-86100000D01*
%TO.C,R3*%
X26200000Y-18087500D02*
X26200000Y-18912500D01*
X26200000Y-18912500D02*
X27800000Y-18912500D01*
D14*
X26762742Y-17977500D02*
X27237258Y-17977500D01*
X26762742Y-19022500D02*
X27237258Y-19022500D01*
D13*
X27800000Y-18087500D02*
X26200000Y-18087500D01*
X27800000Y-18912500D02*
X27800000Y-18087500D01*
D14*
%TO.C,D7*%
X27640000Y-86000000D02*
X31650000Y-86000000D01*
X27640000Y-88000000D02*
X27640000Y-86000000D01*
X27640000Y-88000000D02*
X31650000Y-88000000D01*
D13*
X28600000Y-86100000D02*
X28600000Y-87900000D01*
X28600000Y-87900000D02*
X31400000Y-87900000D01*
X29250000Y-87000000D02*
X29650000Y-87000000D01*
X29650000Y-87000000D02*
X29650000Y-86450000D01*
X29650000Y-87000000D02*
X29650000Y-87550000D01*
X29650000Y-87000000D02*
X30250000Y-87400000D01*
X30250000Y-86600000D02*
X29650000Y-87000000D01*
X30250000Y-87000000D02*
X30750000Y-87000000D01*
X30250000Y-87400000D02*
X30250000Y-86600000D01*
X31400000Y-86100000D02*
X28600000Y-86100000D01*
X31400000Y-87900000D02*
X31400000Y-86100000D01*
D14*
%TO.C,D9*%
X67640000Y-86000000D02*
X71650000Y-86000000D01*
X67640000Y-88000000D02*
X67640000Y-86000000D01*
X67640000Y-88000000D02*
X71650000Y-88000000D01*
D13*
X68600000Y-86100000D02*
X68600000Y-87900000D01*
X68600000Y-87900000D02*
X71400000Y-87900000D01*
X69250000Y-87000000D02*
X69650000Y-87000000D01*
X69650000Y-87000000D02*
X69650000Y-86450000D01*
X69650000Y-87000000D02*
X69650000Y-87550000D01*
X69650000Y-87000000D02*
X70250000Y-87400000D01*
X70250000Y-86600000D02*
X69650000Y-87000000D01*
X70250000Y-87000000D02*
X70750000Y-87000000D01*
X70250000Y-87400000D02*
X70250000Y-86600000D01*
X71400000Y-86100000D02*
X68600000Y-86100000D01*
X71400000Y-87900000D02*
X71400000Y-86100000D01*
D14*
%TO.C,D4*%
X47640000Y-66000000D02*
X51650000Y-66000000D01*
X47640000Y-68000000D02*
X47640000Y-66000000D01*
X47640000Y-68000000D02*
X51650000Y-68000000D01*
D13*
X48600000Y-66100000D02*
X48600000Y-67900000D01*
X48600000Y-67900000D02*
X51400000Y-67900000D01*
X49250000Y-67000000D02*
X49650000Y-67000000D01*
X49650000Y-67000000D02*
X49650000Y-66450000D01*
X49650000Y-67000000D02*
X49650000Y-67550000D01*
X49650000Y-67000000D02*
X50250000Y-67400000D01*
X50250000Y-66600000D02*
X49650000Y-67000000D01*
X50250000Y-67000000D02*
X50750000Y-67000000D01*
X50250000Y-67400000D02*
X50250000Y-66600000D01*
X51400000Y-66100000D02*
X48600000Y-66100000D01*
X51400000Y-67900000D02*
X51400000Y-66100000D01*
D14*
%TO.C,D1*%
X47640000Y-44000000D02*
X51650000Y-44000000D01*
X47640000Y-46000000D02*
X47640000Y-44000000D01*
X47640000Y-46000000D02*
X51650000Y-46000000D01*
D13*
X48600000Y-44100000D02*
X48600000Y-45900000D01*
X48600000Y-45900000D02*
X51400000Y-45900000D01*
X49250000Y-45000000D02*
X49650000Y-45000000D01*
X49650000Y-45000000D02*
X49650000Y-44450000D01*
X49650000Y-45000000D02*
X49650000Y-45550000D01*
X49650000Y-45000000D02*
X50250000Y-45400000D01*
X50250000Y-44600000D02*
X49650000Y-45000000D01*
X50250000Y-45000000D02*
X50750000Y-45000000D01*
X50250000Y-45400000D02*
X50250000Y-44600000D01*
X51400000Y-44100000D02*
X48600000Y-44100000D01*
X51400000Y-45900000D02*
X51400000Y-44100000D01*
X11562500Y-10907500D02*
X12350000Y-10907500D01*
X12350000Y-10787500D02*
G75*
G02*
X12350000Y-10907500I0J-60000D01*
G01*
X12350000Y-10787500D02*
X11562500Y-10787500D01*
X11562500Y-10787500D02*
G75*
G03*
X11562500Y-10907500I0J-60000D01*
G01*
X12016250Y-11241250D02*
X12016250Y-10453750D01*
X11896250Y-10453750D02*
G75*
G02*
X12016250Y-10453750I60000J0D01*
G01*
X11896250Y-10453750D02*
X11896250Y-11241250D01*
X11896250Y-11241250D02*
G75*
G03*
X12016250Y-11241250I60000J0D01*
G01*
X12530000Y-6654437D02*
X12530000Y-7939999D01*
X12650000Y-7939999D02*
G75*
G02*
X12530000Y-7939999I-60000J0D01*
G01*
X12650000Y-7939999D02*
X12650000Y-6654437D01*
X12650000Y-6654437D02*
G75*
G03*
X12530000Y-6654437I-60000J0D01*
G01*
X12632426Y-6696862D02*
X13696862Y-5632426D01*
X13612010Y-5547574D02*
G75*
G02*
X13696862Y-5632426I42426J-42426D01*
G01*
X13612010Y-5547574D02*
X12547574Y-6612010D01*
X12547574Y-6612010D02*
G75*
G03*
X12632426Y-6696862I42426J-42426D01*
G01*
X12650000Y-11345562D02*
X12650000Y-10060000D01*
X12530000Y-10060000D02*
G75*
G02*
X12650000Y-10060000I60000J0D01*
G01*
X12530000Y-10060000D02*
X12530000Y-11345562D01*
X12530000Y-11345562D02*
G75*
G03*
X12650000Y-11345562I60000J0D01*
G01*
X12547574Y-11387989D02*
X13612010Y-12452425D01*
X13696862Y-12367573D02*
G75*
G02*
X13612010Y-12452425I-42426J-42426D01*
G01*
X13696862Y-12367573D02*
X12632426Y-11303137D01*
X12632426Y-11303137D02*
G75*
G03*
X12547574Y-11387989I-42426J-42426D01*
G01*
X12735355Y-6735355D02*
X13735355Y-5735355D01*
X13664645Y-5664645D02*
G75*
G02*
X13735355Y-5735355I35355J-35355D01*
G01*
X13664645Y-5664645D02*
X12664645Y-6664645D01*
X12664645Y-6664645D02*
G75*
G03*
X12735355Y-6735355I35355J-35355D01*
G01*
X12750000Y-11300000D02*
X12750000Y-6700000D01*
X12650000Y-6700000D02*
G75*
G02*
X12750000Y-6700000I50000J0D01*
G01*
X12650000Y-6700000D02*
X12650000Y-11300000D01*
X12650000Y-11300000D02*
G75*
G03*
X12750000Y-11300000I50000J0D01*
G01*
X12664645Y-11335355D02*
X13664645Y-12335355D01*
X13735355Y-12264645D02*
G75*
G02*
X13664645Y-12335355I-35355J-35355D01*
G01*
X13735355Y-12264645D02*
X12735355Y-11264645D01*
X12735355Y-11264645D02*
G75*
G03*
X12664645Y-11335355I-35355J-35355D01*
G01*
X13295162Y-10380000D02*
X13925162Y-10380000D01*
X13925162Y-10280000D02*
G75*
G02*
X13925162Y-10380000I0J-50000D01*
G01*
X13925162Y-10280000D02*
X13295162Y-10280000D01*
X13295162Y-10280000D02*
G75*
G03*
X13295162Y-10380000I0J-50000D01*
G01*
X13660162Y-10645000D02*
X13660162Y-10015000D01*
X13560162Y-10015000D02*
G75*
G02*
X13660162Y-10015000I50000J0D01*
G01*
X13560162Y-10015000D02*
X13560162Y-10645000D01*
X13560162Y-10645000D02*
G75*
G03*
X13660162Y-10645000I50000J0D01*
G01*
X13654437Y-5650000D02*
X19409999Y-5650000D01*
X19409999Y-5530000D02*
G75*
G02*
X19409999Y-5650000I0J-60000D01*
G01*
X19409999Y-5530000D02*
X13654437Y-5530000D01*
X13654437Y-5530000D02*
G75*
G03*
X13654437Y-5650000I0J-60000D01*
G01*
X13654437Y-12470000D02*
X19409999Y-12470000D01*
X19409999Y-12350000D02*
G75*
G02*
X19409999Y-12470000I0J-60000D01*
G01*
X19409999Y-12350000D02*
X13654437Y-12350000D01*
X13654437Y-12350000D02*
G75*
G03*
X13654437Y-12470000I0J-60000D01*
G01*
X13700000Y-5750000D02*
X19300000Y-5750000D01*
X19300000Y-5650000D02*
G75*
G02*
X19300000Y-5750000I0J-50000D01*
G01*
X19300000Y-5650000D02*
X13700000Y-5650000D01*
X13700000Y-5650000D02*
G75*
G03*
X13700000Y-5750000I0J-50000D01*
G01*
X13700000Y-12350000D02*
X19300000Y-12350000D01*
X19300000Y-12250000D02*
G75*
G02*
X19300000Y-12350000I0J-50000D01*
G01*
X19300000Y-12250000D02*
X13700000Y-12250000D01*
X13700000Y-12250000D02*
G75*
G03*
X13700000Y-12350000I0J-50000D01*
G01*
X19350000Y-12300000D02*
X19350000Y-5700000D01*
X19250000Y-5700000D02*
G75*
G02*
X19350000Y-5700000I50000J0D01*
G01*
X19250000Y-5700000D02*
X19250000Y-12300000D01*
X19250000Y-12300000D02*
G75*
G03*
X19350000Y-12300000I50000J0D01*
G01*
X19350000Y-5590000D02*
X19350000Y-7940000D01*
X19470000Y-7940000D02*
G75*
G02*
X19350000Y-7940000I-60000J0D01*
G01*
X19470000Y-7940000D02*
X19470000Y-5590000D01*
X19470000Y-5590000D02*
G75*
G03*
X19350000Y-5590000I-60000J0D01*
G01*
X19470000Y-12410000D02*
X19470000Y-10060000D01*
X19350000Y-10060000D02*
G75*
G02*
X19470000Y-10060000I60000J0D01*
G01*
X19350000Y-10060000D02*
X19350000Y-12410000D01*
X19350000Y-12410000D02*
G75*
G03*
X19470000Y-12410000I60000J0D01*
G01*
%TO.C,C2*%
X19150000Y-9000000D02*
G75*
G02*
X12850000Y-9000000I-3150000J0D01*
G01*
X12850000Y-9000000D02*
G75*
G02*
X19150000Y-9000000I3150000J0D01*
G01*
X19150000Y-9000000D02*
G75*
G02*
X12850000Y-9000000I-3150000J0D01*
G01*
X12850000Y-9000000D02*
G75*
G02*
X19150000Y-9000000I3150000J0D01*
G01*
%TD*%
X81495000Y-88245000D02*
X84505000Y-89755000D01*
X81495000Y-89755000D02*
X84505000Y-88245000D01*
X81495000Y-90245000D02*
X84505000Y-91755000D01*
X81495000Y-91755000D02*
X84505000Y-90245000D01*
X11275000Y-5425000D02*
X20725000Y-12575000D01*
X11275000Y-12575000D02*
X20725000Y-5425000D01*
M02*
