%TF.GenerationSoftware,KiCad,Pcbnew,9.0.2+dfsg-1*%
%TF.CreationDate,2026-10-02T13:14:14-04:00*%
%TF.ProjectId,macropad,6d616372-6f70-4616-942e-6b696361645f,rev?*%
%TF.SameCoordinates,Original*%
%TF.FileFunction,Paste,Bot*%
%TF.FilePolarity,Positive*%
%FSLAX46Y46*%
G04 Gerber Fmt 4.6, Leading zero omitted, Abs format (unit mm)*
G04 Created by KiCad (PCBNEW 9.0.2+dfsg-1) date 2026-10-02 13:14:14*
%MOMM*%
%LPD*%
G01*
G04 APERTURE LIST*
G04 Aperture macros list*
%AMRoundRect*
0 Rectangle with rounded corners*
0 $1 Rounding radius*
0 $2 $3 $4 $5 $6 $7 $8 $9 X,Y pos of 4 corners*
0 Add a 4 corners polygon primitive as box body*
4,1,4,$2,$3,$4,$5,$6,$7,$8,$9,$2,$3,0*
0 Add four circle primitives for the rounded corners*
1,1,$1+$1,$2,$3*
1,1,$1+$1,$4,$5*
1,1,$1+$1,$6,$7*
1,1,$1+$1,$8,$9*
0 Add four rect primitives between the rounded corners*
20,1,$1+$1,$2,$3,$4,$5,0*
20,1,$1+$1,$4,$5,$6,$7,0*
20,1,$1+$1,$6,$7,$8,$9,0*
20,1,$1+$1,$8,$9,$2,$3,0*%
G04 Aperture macros list end*
%ADD10R,2.550000X2.500000*%
%ADD11RoundRect,0.225000X-0.225000X-0.375000X0.225000X-0.375000X0.225000X0.375000X-0.225000X0.375000X0*%
%ADD12R,1.600000X3.200000*%
%ADD13RoundRect,0.200000X-0.200000X-0.275000X0.200000X-0.275000X0.200000X0.275000X-0.200000X0.275000X0*%
%ADD14RoundRect,0.225000X-0.225000X-0.250000X0.225000X-0.250000X0.225000X0.250000X-0.225000X0.250000X0*%
%ADD15RoundRect,0.150000X-0.512500X-0.150000X0.512500X-0.150000X0.512500X0.150000X-0.512500X0.150000X0*%
%ADD16RoundRect,0.250000X-1.500000X-0.550000X1.500000X-0.550000X1.500000X0.550000X-1.500000X0.550000X0*%
G04 APERTURE END LIST*
D10*
%TO.C,SW1*%
X36615000Y-34460000D03*
X50115000Y-31920000D03*
%TD*%
%TO.C,SW6*%
X76615000Y-56460000D03*
X90115000Y-53920000D03*
%TD*%
D11*
%TO.C,D13*%
X68350000Y-107000000D03*
X71650000Y-107000000D03*
%TD*%
D10*
%TO.C,SW13*%
X56615000Y-96460000D03*
X70115000Y-93920000D03*
%TD*%
D11*
%TO.C,D3*%
X28350000Y-67000000D03*
X31650000Y-67000000D03*
%TD*%
%TO.C,D2*%
X68350000Y-45000000D03*
X71650000Y-45000000D03*
%TD*%
D10*
%TO.C,SW9*%
X56615000Y-76460000D03*
X70115000Y-73920000D03*
%TD*%
D11*
%TO.C,D11*%
X28350000Y-107000000D03*
X31650000Y-107000000D03*
%TD*%
D12*
%TO.C,U1*%
X43370000Y-5810000D03*
X45910000Y-5810000D03*
X48450001Y-5810000D03*
X50990001Y-5810000D03*
X53530001Y-5810000D03*
X56070000Y-5810000D03*
X58610001Y-5810000D03*
X61150001Y-5810000D03*
X63690001Y-5810000D03*
X66230001Y-5810000D03*
X68769999Y-5810000D03*
X71310000Y-5810000D03*
X73850000Y-5810000D03*
X76390000Y-5810000D03*
X78930000Y-5810000D03*
X81470000Y-5810000D03*
X84010000Y-5810000D03*
X86550000Y-5810000D03*
X89090000Y-5810000D03*
X91630000Y-5810000D03*
X91630000Y-25190000D03*
X89090000Y-25190000D03*
X86550000Y-25190000D03*
X84010000Y-25190000D03*
X81470000Y-25190000D03*
X78930000Y-25190000D03*
X76390000Y-25190000D03*
X73850000Y-25190000D03*
X71310000Y-25190000D03*
X68769999Y-25190000D03*
X66230001Y-25190000D03*
X63690001Y-25190000D03*
X61150001Y-25190000D03*
X58610001Y-25190000D03*
X56070000Y-25190000D03*
X53530001Y-25190000D03*
X50990001Y-25190000D03*
X48450001Y-25190000D03*
X45910000Y-25190000D03*
X43370000Y-25190000D03*
%TD*%
D13*
%TO.C,R1*%
X82175000Y-89000000D03*
X83825000Y-89000000D03*
%TD*%
D10*
%TO.C,SW11*%
X16615000Y-96460000D03*
X30115000Y-93920000D03*
%TD*%
D11*
%TO.C,D6*%
X88350000Y-67000000D03*
X91650000Y-67000000D03*
%TD*%
%TO.C,D8*%
X48350000Y-87000000D03*
X51650000Y-87000000D03*
%TD*%
D10*
%TO.C,SW7*%
X16615000Y-76460000D03*
X30115000Y-73920000D03*
%TD*%
%TO.C,SW8*%
X36615000Y-76460000D03*
X50115000Y-73920000D03*
%TD*%
%TO.C,SW3*%
X16615000Y-56460000D03*
X30115000Y-53920000D03*
%TD*%
%TO.C,SW12*%
X36615000Y-96460000D03*
X50115000Y-93920000D03*
%TD*%
D13*
%TO.C,R4*%
X31675000Y-18500000D03*
X33325000Y-18500000D03*
%TD*%
D14*
%TO.C,C1*%
X30225000Y-11500000D03*
X31775000Y-11500000D03*
%TD*%
D10*
%TO.C,SW4*%
X36615000Y-56460000D03*
X50115000Y-53920000D03*
%TD*%
D11*
%TO.C,D12*%
X48350000Y-107000000D03*
X51650000Y-107000000D03*
%TD*%
D15*
%TO.C,U2*%
X29862500Y-15950000D03*
X29862500Y-15000000D03*
X29862500Y-14050000D03*
X32137500Y-14050000D03*
X32137500Y-15950000D03*
%TD*%
D10*
%TO.C,SW5*%
X56615000Y-56460000D03*
X70115000Y-53920000D03*
%TD*%
D11*
%TO.C,D5*%
X68350000Y-67000000D03*
X71650000Y-67000000D03*
%TD*%
D10*
%TO.C,SW10*%
X76615000Y-76460000D03*
X90115000Y-73920000D03*
%TD*%
D13*
%TO.C,R2*%
X82175000Y-91000000D03*
X83825000Y-91000000D03*
%TD*%
D10*
%TO.C,SW2*%
X56615000Y-34460000D03*
X70115000Y-31920000D03*
%TD*%
D11*
%TO.C,D10*%
X88350000Y-87000000D03*
X91650000Y-87000000D03*
%TD*%
D13*
%TO.C,R3*%
X26175000Y-18500000D03*
X27825000Y-18500000D03*
%TD*%
D11*
%TO.C,D7*%
X28350000Y-87000000D03*
X31650000Y-87000000D03*
%TD*%
%TO.C,D9*%
X68350000Y-87000000D03*
X71650000Y-87000000D03*
%TD*%
%TO.C,D4*%
X48350000Y-67000000D03*
X51650000Y-67000000D03*
%TD*%
%TO.C,D1*%
X48350000Y-45000000D03*
X51650000Y-45000000D03*
%TD*%
D16*
%TO.C,C2*%
X13300000Y-9000000D03*
X18700000Y-9000000D03*
%TD*%
M02*
