%TF.GenerationSoftware,KiCad,Pcbnew,9.0.2+dfsg-1*%
%TF.CreationDate,2026-10-02T13:14:14-04:00*%
%TF.ProjectId,macropad,6d616372-6f70-4616-942e-6b696361645f,rev?*%
%TF.SameCoordinates,Original*%
%TF.FileFunction,Copper,L2,Bot*%
%TF.FilePolarity,Positive*%
%FSLAX46Y46*%
G04 Gerber Fmt 4.6, Leading zero omitted, Abs format (unit mm)*
G04 Created by KiCad (PCBNEW 9.0.2+dfsg-1) date 2026-10-02 13:14:14*
%MOMM*%
%LPD*%
G01*
G04 APERTURE LIST*
G04 Aperture macros list*
%AMRoundRect*
0 Rectangle with rounded corners*
0 $1 Rounding radius*
0 $2 $3 $4 $5 $6 $7 $8 $9 X,Y pos of 4 corners*
0 Add a 4 corners polygon primitive as box body*
4,1,4,$2,$3,$4,$5,$6,$7,$8,$9,$2,$3,0*
0 Add four circle primitives for the rounded corners*
1,1,$1+$1,$2,$3*
1,1,$1+$1,$4,$5*
1,1,$1+$1,$6,$7*
1,1,$1+$1,$8,$9*
0 Add four rect primitives between the rounded corners*
20,1,$1+$1,$2,$3,$4,$5,0*
20,1,$1+$1,$4,$5,$6,$7,0*
20,1,$1+$1,$6,$7,$8,$9,0*
20,1,$1+$1,$8,$9,$2,$3,0*%
G04 Aperture macros list end*
%TA.AperFunction,ComponentPad*%
%ADD10R,1.700000X1.700000*%
%TD*%
%TA.AperFunction,ComponentPad*%
%ADD11C,1.700000*%
%TD*%
%TA.AperFunction,ComponentPad*%
%ADD12R,2.000000X2.000000*%
%TD*%
%TA.AperFunction,ComponentPad*%
%ADD13C,2.000000*%
%TD*%
%TA.AperFunction,ComponentPad*%
%ADD14R,3.200000X2.000000*%
%TD*%
%TA.AperFunction,ComponentPad*%
%ADD15C,2.300000*%
%TD*%
%TA.AperFunction,ComponentPad*%
%ADD16C,2.200000*%
%TD*%
%TA.AperFunction,SMDPad,CuDef*%
%ADD17R,2.550000X2.500000*%
%TD*%
%TA.AperFunction,SMDPad,CuDef*%
%ADD18RoundRect,0.225000X-0.225000X-0.375000X0.225000X-0.375000X0.225000X0.375000X-0.225000X0.375000X0*%
%TD*%
%TA.AperFunction,SMDPad,CuDef*%
%ADD19R,1.600000X3.200000*%
%TD*%
%TA.AperFunction,SMDPad,CuDef*%
%ADD20RoundRect,0.200000X-0.200000X-0.275000X0.200000X-0.275000X0.200000X0.275000X-0.200000X0.275000X0*%
%TD*%
%TA.AperFunction,SMDPad,CuDef*%
%ADD21RoundRect,0.225000X-0.225000X-0.250000X0.225000X-0.250000X0.225000X0.250000X-0.225000X0.250000X0*%
%TD*%
%TA.AperFunction,SMDPad,CuDef*%
%ADD22RoundRect,0.150000X-0.512500X-0.150000X0.512500X-0.150000X0.512500X0.150000X-0.512500X0.150000X0*%
%TD*%
%TA.AperFunction,SMDPad,CuDef*%
%ADD23RoundRect,0.250000X-1.500000X-0.550000X1.500000X-0.550000X1.500000X0.550000X-1.500000X0.550000X0*%
%TD*%
%TA.AperFunction,ViaPad*%
%ADD24C,0.600000*%
%TD*%
%TA.AperFunction,Conductor*%
%ADD25C,0.250000*%
%TD*%
%TA.AperFunction,Conductor*%
%ADD26C,0.200000*%
%TD*%
G04 APERTURE END LIST*
D10*
%TO.P,J3,1*%
%TO.N,/3V3*%
X20000000Y-23000000D03*
D11*
%TO.P,J3,2*%
%TO.N,/GND*%
X22540000Y-23000000D03*
%TO.P,J3,3*%
%TO.N,/MIC_BCLK*%
X25080000Y-23000000D03*
%TO.P,J3,4*%
%TO.N,/MIC_WS*%
X27620000Y-23000000D03*
%TO.P,J3,5*%
%TO.N,/MIC_DATA*%
X30160000Y-23000000D03*
%TO.P,J3,6*%
%TO.N,/GND*%
X32700000Y-23000000D03*
%TD*%
D12*
%TO.P,ENC1,A*%
%TO.N,/ENC_A*%
X16500000Y-34500000D03*
D13*
%TO.P,ENC1,B*%
%TO.N,/ENC_B*%
X16500000Y-39500000D03*
%TO.P,ENC1,C*%
%TO.N,/GND*%
X16500000Y-37000000D03*
D14*
%TO.P,ENC1,MP*%
X24000000Y-31400000D03*
X24000000Y-42600000D03*
D13*
%TO.P,ENC1,S1*%
%TO.N,/ENC_SW*%
X31000000Y-39500000D03*
%TO.P,ENC1,S2*%
%TO.N,/GND*%
X31000000Y-34500000D03*
%TD*%
D15*
%TO.P,JOY1,MP*%
%TO.N,/GND*%
X77675000Y-32000000D03*
X77675000Y-42000000D03*
X90325000Y-32000000D03*
X90325000Y-42000000D03*
D16*
%TO.P,JOY1,S1*%
%TO.N,/JOY_SW*%
X79700000Y-37000000D03*
%TO.P,JOY1,S2*%
%TO.N,/GND*%
X88300000Y-37000000D03*
D11*
%TO.P,JOY1,X1*%
%TO.N,/3V3*%
X92730000Y-39500000D03*
%TO.P,JOY1,X2*%
%TO.N,/JOY_X*%
X92730000Y-37000000D03*
%TO.P,JOY1,X3*%
%TO.N,/GND*%
X92730000Y-34500000D03*
%TO.P,JOY1,Y1*%
%TO.N,/3V3*%
X86500000Y-28270000D03*
%TO.P,JOY1,Y2*%
%TO.N,/JOY_Y*%
X84000000Y-28270000D03*
%TO.P,JOY1,Y3*%
%TO.N,/GND*%
X81500000Y-28270000D03*
%TD*%
D10*
%TO.P,J1,1*%
%TO.N,/3V3*%
X91000000Y-94000000D03*
D11*
%TO.P,J1,2*%
%TO.N,/GND*%
X93540000Y-94000000D03*
%TO.P,J1,3*%
%TO.N,/TOUCH_SDA*%
X96080000Y-94000000D03*
%TO.P,J1,4*%
%TO.N,/TOUCH_SCL*%
X98620000Y-94000000D03*
%TD*%
D10*
%TO.P,J2,1*%
%TO.N,/5V_USB*%
X19000000Y-15000000D03*
D11*
%TO.P,J2,2*%
%TO.N,/RGB_DOUT*%
X21540000Y-15000000D03*
%TO.P,J2,3*%
%TO.N,/GND*%
X24080000Y-15000000D03*
%TD*%
D17*
%TO.P,SW1,1*%
%TO.N,/COL1*%
X36615000Y-34460000D03*
%TO.P,SW1,2*%
%TO.N,/KEY1_A*%
X50115000Y-31920000D03*
%TD*%
%TO.P,SW6,1*%
%TO.N,/COL3*%
X76615000Y-56460000D03*
%TO.P,SW6,2*%
%TO.N,/KEY6_A*%
X90115000Y-53920000D03*
%TD*%
D18*
%TO.P,D13,1*%
%TO.N,/ROW3*%
X68350000Y-107000000D03*
%TO.P,D13,2*%
%TO.N,/KEY13_A*%
X71650000Y-107000000D03*
%TD*%
D17*
%TO.P,SW13,1*%
%TO.N,/COL2*%
X56615000Y-96460000D03*
%TO.P,SW13,2*%
%TO.N,/KEY13_A*%
X70115000Y-93920000D03*
%TD*%
D18*
%TO.P,D3,1*%
%TO.N,/ROW1*%
X28350000Y-67000000D03*
%TO.P,D3,2*%
%TO.N,/KEY3_A*%
X31650000Y-67000000D03*
%TD*%
%TO.P,D2,1*%
%TO.N,/ROW0*%
X68350000Y-45000000D03*
%TO.P,D2,2*%
%TO.N,/KEY2_A*%
X71650000Y-45000000D03*
%TD*%
D17*
%TO.P,SW9,1*%
%TO.N,/COL2*%
X56615000Y-76460000D03*
%TO.P,SW9,2*%
%TO.N,/KEY9_A*%
X70115000Y-73920000D03*
%TD*%
D18*
%TO.P,D11,1*%
%TO.N,/ROW3*%
X28350000Y-107000000D03*
%TO.P,D11,2*%
%TO.N,/KEY11_A*%
X31650000Y-107000000D03*
%TD*%
D19*
%TO.P,U1,1*%
%TO.N,/ROW0*%
X43370000Y-5810000D03*
%TO.P,U1,2*%
%TO.N,/ROW1*%
X45910000Y-5810000D03*
%TO.P,U1,3*%
%TO.N,/GND*%
X48450001Y-5810000D03*
%TO.P,U1,4*%
%TO.N,/ROW2*%
X50990001Y-5810000D03*
%TO.P,U1,5*%
%TO.N,/ROW3*%
X53530001Y-5810000D03*
%TO.P,U1,6*%
%TO.N,/COL0*%
X56070000Y-5810000D03*
%TO.P,U1,7*%
%TO.N,/COL1*%
X58610001Y-5810000D03*
%TO.P,U1,8*%
%TO.N,/GND*%
X61150001Y-5810000D03*
%TO.P,U1,9*%
%TO.N,/COL2*%
X63690001Y-5810000D03*
%TO.P,U1,10*%
%TO.N,/COL3*%
X66230001Y-5810000D03*
%TO.P,U1,11*%
%TO.N,/ENC_A*%
X68769999Y-5810000D03*
%TO.P,U1,12*%
%TO.N,/ENC_B*%
X71310000Y-5810000D03*
%TO.P,U1,13*%
%TO.N,/GND*%
X73850000Y-5810000D03*
%TO.P,U1,14*%
%TO.N,/ENC_SW*%
X76390000Y-5810000D03*
%TO.P,U1,15*%
%TO.N,/JOY_SW*%
X78930000Y-5810000D03*
%TO.P,U1,16*%
%TO.N,/TOUCH_SDA*%
X81470000Y-5810000D03*
%TO.P,U1,17*%
%TO.N,/TOUCH_SCL*%
X84010000Y-5810000D03*
%TO.P,U1,18*%
%TO.N,/GND*%
X86550000Y-5810000D03*
%TO.P,U1,19*%
%TO.N,unconnected-(U1-GP14-Pad19)*%
X89090000Y-5810000D03*
%TO.P,U1,20*%
%TO.N,/RGB_DATA*%
X91630000Y-5810000D03*
%TO.P,U1,21*%
%TO.N,/MIC_BCLK*%
X91630000Y-25190000D03*
%TO.P,U1,22*%
%TO.N,/MIC_WS*%
X89090000Y-25190000D03*
%TO.P,U1,23*%
%TO.N,/GND*%
X86550000Y-25190000D03*
%TO.P,U1,24*%
%TO.N,/MIC_DATA*%
X84010000Y-25190000D03*
%TO.P,U1,25*%
%TO.N,unconnected-(U1-GP19-Pad25)*%
X81470000Y-25190000D03*
%TO.P,U1,26*%
%TO.N,unconnected-(U1-GP20-Pad26)*%
X78930000Y-25190000D03*
%TO.P,U1,27*%
%TO.N,unconnected-(U1-GP21-Pad27)*%
X76390000Y-25190000D03*
%TO.P,U1,28*%
%TO.N,/GND*%
X73850000Y-25190000D03*
%TO.P,U1,29*%
%TO.N,unconnected-(U1-GP22-Pad29)*%
X71310000Y-25190000D03*
%TO.P,U1,30*%
%TO.N,unconnected-(U1-RUN-Pad30)*%
X68769999Y-25190000D03*
%TO.P,U1,31*%
%TO.N,/JOY_X*%
X66230001Y-25190000D03*
%TO.P,U1,32*%
%TO.N,/JOY_Y*%
X63690001Y-25190000D03*
%TO.P,U1,33*%
%TO.N,/GND*%
X61150001Y-25190000D03*
%TO.P,U1,34*%
%TO.N,unconnected-(U1-GP28{slash}ADC2-Pad34)*%
X58610001Y-25190000D03*
%TO.P,U1,35*%
%TO.N,unconnected-(U1-ADC_VREF-Pad35)*%
X56070000Y-25190000D03*
%TO.P,U1,36*%
%TO.N,/3V3*%
X53530001Y-25190000D03*
%TO.P,U1,37*%
%TO.N,unconnected-(U1-3V3_EN-Pad37)*%
X50990001Y-25190000D03*
%TO.P,U1,38*%
%TO.N,/GND*%
X48450001Y-25190000D03*
%TO.P,U1,39*%
%TO.N,unconnected-(U1-VSYS-Pad39)*%
X45910000Y-25190000D03*
%TO.P,U1,40*%
%TO.N,/5V_USB*%
X43370000Y-25190000D03*
%TD*%
D20*
%TO.P,R1,1*%
%TO.N,/3V3*%
X82175000Y-89000000D03*
%TO.P,R1,2*%
%TO.N,/TOUCH_SDA*%
X83825000Y-89000000D03*
%TD*%
D17*
%TO.P,SW11,1*%
%TO.N,/COL0*%
X16615000Y-96460000D03*
%TO.P,SW11,2*%
%TO.N,/KEY11_A*%
X30115000Y-93920000D03*
%TD*%
D18*
%TO.P,D6,1*%
%TO.N,/ROW1*%
X88350000Y-67000000D03*
%TO.P,D6,2*%
%TO.N,/KEY6_A*%
X91650000Y-67000000D03*
%TD*%
%TO.P,D8,1*%
%TO.N,/ROW2*%
X48350000Y-87000000D03*
%TO.P,D8,2*%
%TO.N,/KEY8_A*%
X51650000Y-87000000D03*
%TD*%
D17*
%TO.P,SW7,1*%
%TO.N,/COL0*%
X16615000Y-76460000D03*
%TO.P,SW7,2*%
%TO.N,/KEY7_A*%
X30115000Y-73920000D03*
%TD*%
%TO.P,SW8,1*%
%TO.N,/COL1*%
X36615000Y-76460000D03*
%TO.P,SW8,2*%
%TO.N,/KEY8_A*%
X50115000Y-73920000D03*
%TD*%
%TO.P,SW3,1*%
%TO.N,/COL0*%
X16615000Y-56460000D03*
%TO.P,SW3,2*%
%TO.N,/KEY3_A*%
X30115000Y-53920000D03*
%TD*%
%TO.P,SW12,1*%
%TO.N,/COL1*%
X36615000Y-96460000D03*
%TO.P,SW12,2*%
%TO.N,/KEY12_A*%
X50115000Y-93920000D03*
%TD*%
D20*
%TO.P,R4,1*%
%TO.N,/RGB_DATA*%
X31675000Y-18500000D03*
%TO.P,R4,2*%
%TO.N,/GND*%
X33325000Y-18500000D03*
%TD*%
D21*
%TO.P,C1,1*%
%TO.N,/5V_USB*%
X30225000Y-11500000D03*
%TO.P,C1,2*%
%TO.N,/GND*%
X31775000Y-11500000D03*
%TD*%
D17*
%TO.P,SW4,1*%
%TO.N,/COL1*%
X36615000Y-56460000D03*
%TO.P,SW4,2*%
%TO.N,/KEY4_A*%
X50115000Y-53920000D03*
%TD*%
D18*
%TO.P,D12,1*%
%TO.N,/ROW3*%
X48350000Y-107000000D03*
%TO.P,D12,2*%
%TO.N,/KEY12_A*%
X51650000Y-107000000D03*
%TD*%
D22*
%TO.P,U2,1*%
%TO.N,/GND*%
X29862500Y-15950000D03*
%TO.P,U2,2*%
%TO.N,/RGB_DATA*%
X29862500Y-15000000D03*
%TO.P,U2,3*%
%TO.N,/GND*%
X29862500Y-14050000D03*
%TO.P,U2,4*%
%TO.N,/RGB_5V*%
X32137500Y-14050000D03*
%TO.P,U2,5*%
%TO.N,/5V_USB*%
X32137500Y-15950000D03*
%TD*%
D17*
%TO.P,SW5,1*%
%TO.N,/COL2*%
X56615000Y-56460000D03*
%TO.P,SW5,2*%
%TO.N,/KEY5_A*%
X70115000Y-53920000D03*
%TD*%
D18*
%TO.P,D5,1*%
%TO.N,/ROW1*%
X68350000Y-67000000D03*
%TO.P,D5,2*%
%TO.N,/KEY5_A*%
X71650000Y-67000000D03*
%TD*%
D17*
%TO.P,SW10,1*%
%TO.N,/COL3*%
X76615000Y-76460000D03*
%TO.P,SW10,2*%
%TO.N,/KEY10_A*%
X90115000Y-73920000D03*
%TD*%
D20*
%TO.P,R2,1*%
%TO.N,/3V3*%
X82175000Y-91000000D03*
%TO.P,R2,2*%
%TO.N,/TOUCH_SCL*%
X83825000Y-91000000D03*
%TD*%
D17*
%TO.P,SW2,1*%
%TO.N,/COL2*%
X56615000Y-34460000D03*
%TO.P,SW2,2*%
%TO.N,/KEY2_A*%
X70115000Y-31920000D03*
%TD*%
D18*
%TO.P,D10,1*%
%TO.N,/ROW2*%
X88350000Y-87000000D03*
%TO.P,D10,2*%
%TO.N,/KEY10_A*%
X91650000Y-87000000D03*
%TD*%
D20*
%TO.P,R3,1*%
%TO.N,/RGB_5V*%
X26175000Y-18500000D03*
%TO.P,R3,2*%
%TO.N,/RGB_DOUT*%
X27825000Y-18500000D03*
%TD*%
D18*
%TO.P,D7,1*%
%TO.N,/ROW2*%
X28350000Y-87000000D03*
%TO.P,D7,2*%
%TO.N,/KEY7_A*%
X31650000Y-87000000D03*
%TD*%
%TO.P,D9,1*%
%TO.N,/ROW2*%
X68350000Y-87000000D03*
%TO.P,D9,2*%
%TO.N,/KEY9_A*%
X71650000Y-87000000D03*
%TD*%
%TO.P,D4,1*%
%TO.N,/ROW1*%
X48350000Y-67000000D03*
%TO.P,D4,2*%
%TO.N,/KEY4_A*%
X51650000Y-67000000D03*
%TD*%
%TO.P,D1,1*%
%TO.N,/ROW0*%
X48350000Y-45000000D03*
%TO.P,D1,2*%
%TO.N,/KEY1_A*%
X51650000Y-45000000D03*
%TD*%
D23*
%TO.P,C2,1*%
%TO.N,/5V_USB*%
X13300000Y-9000000D03*
%TO.P,C2,2*%
%TO.N,/GND*%
X18700000Y-9000000D03*
%TD*%
D24*
%TO.N,/3V3*%
X35000000Y-24250000D03*
X37375000Y-26375000D03*
X37375000Y-30250000D03*
X25625000Y-24500000D03*
X53530000Y-30139700D03*
X52875000Y-25250000D03*
X40875000Y-30250000D03*
X53530000Y-27291900D03*
%TO.N,/COL0*%
X37280000Y-61618800D03*
X54995000Y-7882000D03*
X16615000Y-78225000D03*
X16615000Y-58243800D03*
X16615000Y-94677900D03*
%TO.N,/COL1*%
X35570100Y-94680200D03*
X36615000Y-54668500D03*
X57208700Y-7796200D03*
X37435100Y-32687100D03*
X36615000Y-74668700D03*
%TO.N,/COL2*%
X62145000Y-7955000D03*
X60648500Y-30796900D03*
X56152100Y-74680700D03*
X56152100Y-94632500D03*
X56152100Y-58226500D03*
%TO.N,/COL3*%
X74818500Y-73702400D03*
X74818500Y-56460000D03*
X70979700Y-55672200D03*
X66417600Y-7914800D03*
%TO.N,/ENC_A*%
X62776000Y-29486600D03*
X67300600Y-7962700D03*
%TO.N,/ENC_B*%
X72516500Y-7736700D03*
%TO.N,/ENC_SW*%
X37625000Y-39500000D03*
X46625000Y-39500000D03*
X75375000Y-7250000D03*
X72375000Y-38375000D03*
%TO.N,/GND*%
X18700000Y-10315400D03*
X60215700Y-7925800D03*
X60907500Y-23045000D03*
X73601900Y-7984800D03*
X50300800Y-7913500D03*
X85255100Y-7680000D03*
%TO.N,/JOY_SW*%
X78683800Y-7982900D03*
%TO.N,/JOY_Y*%
X84000000Y-32298400D03*
%TO.N,/KEY10_A*%
X92482700Y-75496700D03*
X92482700Y-86167300D03*
%TO.N,/KEY11_A*%
X30824300Y-95703900D03*
X30824300Y-106174300D03*
%TO.N,/KEY12_A*%
X51650000Y-105875200D03*
X51650000Y-95675500D03*
%TO.N,/KEY13_A*%
X71650000Y-95680600D03*
X71650000Y-105884000D03*
%TO.N,/KEY1_A*%
X51298700Y-33672200D03*
X50824300Y-45825700D03*
%TO.N,/KEY2_A*%
X71650000Y-43881300D03*
X71650000Y-33676800D03*
%TO.N,/KEY3_A*%
X31650000Y-65837600D03*
X31650000Y-56270400D03*
%TO.N,/KEY4_A*%
X51650000Y-57031700D03*
X51650000Y-65887600D03*
%TO.N,/KEY5_A*%
X71650000Y-65861000D03*
X71650000Y-56419700D03*
%TO.N,/KEY6_A*%
X91650000Y-56851100D03*
X91650000Y-65843800D03*
%TO.N,/KEY7_A*%
X31058700Y-75972100D03*
X31058700Y-85906400D03*
%TO.N,/KEY8_A*%
X50831000Y-75702800D03*
X50831000Y-86181000D03*
%TO.N,/KEY9_A*%
X71650000Y-85879200D03*
X71650000Y-75700800D03*
%TO.N,/MIC_DATA*%
X80043600Y-23178700D03*
X76815800Y-29351700D03*
%TO.N,/MIC_WS*%
X85250000Y-32940500D03*
X88292300Y-27301000D03*
%TO.N,/RGB_DATA*%
X30325700Y-17880200D03*
X87804500Y-7680000D03*
%TO.N,/RGB_DOUT*%
X27068000Y-17743000D03*
%TO.N,/ROW0*%
X36454200Y-30607600D03*
X40200000Y-6610000D03*
%TO.N,/ROW1*%
X29185600Y-66164400D03*
X38212100Y-11789600D03*
%TO.N,/ROW2*%
X51181000Y-7927700D03*
X33747100Y-81602900D03*
%TO.N,/ROW3*%
X53977400Y-7935500D03*
X67501300Y-106151300D03*
%TO.N,/TOUCH_SCL*%
X82706000Y-7736700D03*
X84779800Y-91002000D03*
%TO.N,/TOUCH_SDA*%
X79676200Y-7928900D03*
X84729300Y-88613300D03*
%TD*%
D25*
%TO.N,/3V3*%
X82175000Y-91000000D02*
X82175000Y-91319400D01*
X53530000Y-27291900D02*
X53530000Y-25190000D01*
X82175000Y-89000000D02*
X82175000Y-91000000D01*
X74430800Y-39500000D02*
X69355600Y-34424800D01*
D26*
X25625000Y-24375000D02*
X25625000Y-24500000D01*
X35000000Y-24250000D02*
X37375000Y-24250000D01*
D25*
X61745200Y-30139700D02*
X53530000Y-30139700D01*
X69355600Y-34424800D02*
X66030300Y-34424800D01*
D26*
X20000000Y-23000000D02*
X21125000Y-23000000D01*
X52875000Y-25250000D02*
X53500000Y-25250000D01*
D25*
X66030300Y-34424800D02*
X61745200Y-30139700D01*
D26*
X21125000Y-23000000D02*
X21125000Y-24375000D01*
X21125000Y-24375000D02*
X25625000Y-24375000D01*
X53500000Y-25250000D02*
X53530000Y-25190000D01*
D25*
X92730000Y-39500000D02*
X74430800Y-39500000D01*
D26*
X37375000Y-30250000D02*
X40875000Y-30250000D01*
D25*
X84855600Y-94000000D02*
X91000000Y-94000000D01*
X82175000Y-91319400D02*
X84855600Y-94000000D01*
D26*
X37375000Y-24250000D02*
X37375000Y-26375000D01*
D25*
%TO.N,/5V_USB*%
X18123300Y-13823300D02*
X19000000Y-13823300D01*
X43370000Y-25190000D02*
X43370000Y-23263300D01*
X42338900Y-23089900D02*
X39277400Y-23089900D01*
X35174900Y-13791900D02*
X35174900Y-14274500D01*
X31294000Y-12569000D02*
X33952000Y-12569000D01*
X33952000Y-12569000D02*
X35174900Y-13791900D01*
X19000000Y-15000000D02*
X19000000Y-13823300D01*
X21323300Y-11500000D02*
X19000000Y-13823300D01*
X43196600Y-23089900D02*
X43370000Y-23263300D01*
X35174900Y-14274500D02*
X33499400Y-15950000D01*
X30225000Y-11500000D02*
X31294000Y-12569000D01*
X33499400Y-15950000D02*
X32137500Y-15950000D01*
X39277400Y-23089900D02*
X32137500Y-15950000D01*
X13300000Y-9000000D02*
X18123300Y-13823300D01*
X42338900Y-23089900D02*
X43196600Y-23089900D01*
X30225000Y-11500000D02*
X21323300Y-11500000D01*
%TO.N,/COL0*%
X16615000Y-78225000D02*
X16615000Y-76460000D01*
X56070000Y-7736700D02*
X55924700Y-7882000D01*
X56070000Y-5810000D02*
X56070000Y-7736700D01*
X16615000Y-94677900D02*
X16615000Y-96460000D01*
X55924700Y-7882000D02*
X54995000Y-7882000D01*
X16615000Y-58243800D02*
X16615000Y-58742600D01*
X16615000Y-58742600D02*
X19491200Y-61618800D01*
X16615000Y-56460000D02*
X16615000Y-58036700D01*
X16615000Y-58036700D02*
X16615000Y-58243800D01*
X19491200Y-61618800D02*
X37280000Y-61618800D01*
%TO.N,/COL1*%
X58610000Y-7736700D02*
X58550500Y-7796200D01*
X36811200Y-32687100D02*
X37435100Y-32687100D01*
X36615000Y-34460000D02*
X36615000Y-32883300D01*
X36615000Y-32883300D02*
X36811200Y-32687100D01*
X36615000Y-54668500D02*
X36615000Y-56460000D01*
X36615000Y-76460000D02*
X36615000Y-74883300D01*
X35773200Y-94883300D02*
X36615000Y-94883300D01*
X58610000Y-5810000D02*
X58610000Y-7736700D01*
X35570100Y-94680200D02*
X35773200Y-94883300D01*
X36615000Y-96460000D02*
X36615000Y-94883300D01*
X58550500Y-7796200D02*
X57208700Y-7796200D01*
X36615000Y-74883300D02*
X36615000Y-74668700D01*
%TO.N,/COL2*%
X56402900Y-94883300D02*
X56152100Y-94632500D01*
X56615000Y-94883300D02*
X56402900Y-94883300D01*
X56615000Y-96460000D02*
X56615000Y-94883300D01*
X63690000Y-5810000D02*
X63690000Y-7736700D01*
X56354700Y-74883300D02*
X56152100Y-74680700D01*
X56152100Y-58226500D02*
X56341900Y-58036700D01*
X56615000Y-74883300D02*
X56354700Y-74883300D01*
X63690000Y-7736700D02*
X62363300Y-7736700D01*
X62363300Y-7736700D02*
X62145000Y-7955000D01*
X56615000Y-76460000D02*
X56615000Y-74883300D01*
X58701400Y-30796900D02*
X60648500Y-30796900D01*
X56615000Y-34460000D02*
X56615000Y-32883300D01*
X56341900Y-58036700D02*
X56615000Y-58036700D01*
X56615000Y-56460000D02*
X56615000Y-58036700D01*
X56615000Y-32883300D02*
X58701400Y-30796900D01*
%TO.N,/COL3*%
X66239500Y-7736700D02*
X66417600Y-7914800D01*
X75434100Y-73702400D02*
X74818500Y-73702400D01*
X74818500Y-56460000D02*
X74030700Y-55672200D01*
X76615000Y-56460000D02*
X75013300Y-56460000D01*
X75013300Y-56460000D02*
X74818500Y-56460000D01*
X66230000Y-7736700D02*
X66239500Y-7736700D01*
X66230000Y-5810000D02*
X66230000Y-7736700D01*
X76615000Y-76460000D02*
X76615000Y-74883300D01*
X74030700Y-55672200D02*
X70979700Y-55672200D01*
X76615000Y-74883300D02*
X75434100Y-73702400D01*
%TO.N,/ENC_A*%
X68770000Y-7736700D02*
X67526600Y-7736700D01*
X17826700Y-34500000D02*
X22840100Y-29486600D01*
X16500000Y-34500000D02*
X17826700Y-34500000D01*
X67526600Y-7736700D02*
X67300600Y-7962700D01*
X22840100Y-29486600D02*
X62776000Y-29486600D01*
X68770000Y-5810000D02*
X68770000Y-7736700D01*
%TO.N,/ENC_B*%
X71310000Y-5810000D02*
X71310000Y-7736700D01*
X71310000Y-7736700D02*
X72516500Y-7736700D01*
D26*
%TO.N,/ENC_SW*%
X65500000Y-39000000D02*
X65500000Y-38875000D01*
X46625000Y-39500000D02*
X64375000Y-39500000D01*
X65875000Y-38500000D02*
X66000000Y-38500000D01*
X65125000Y-39250000D02*
X65125000Y-39125000D01*
X66000000Y-38375000D02*
X72375000Y-38375000D01*
X65750000Y-38750000D02*
X65875000Y-38750000D01*
X65500000Y-38875000D02*
X65750000Y-38875000D01*
X64375000Y-39375000D02*
X64875000Y-39375000D01*
X76375000Y-5750000D02*
X76390000Y-5810000D01*
X75375000Y-7250000D02*
X75375000Y-5750000D01*
X66000000Y-38500000D02*
X66000000Y-38375000D01*
X31000000Y-39500000D02*
X37625000Y-39500000D01*
X65875000Y-38750000D02*
X65875000Y-38500000D01*
X65375000Y-39000000D02*
X65500000Y-39000000D01*
X75375000Y-5750000D02*
X76375000Y-5750000D01*
X64375000Y-39500000D02*
X64375000Y-39375000D01*
X65125000Y-39125000D02*
X65375000Y-39125000D01*
X64875000Y-39375000D02*
X64875000Y-39250000D01*
X65750000Y-38875000D02*
X65750000Y-38750000D01*
X64875000Y-39250000D02*
X65125000Y-39250000D01*
X65375000Y-39125000D02*
X65375000Y-39000000D01*
D25*
%TO.N,/GND*%
X50174500Y-23072300D02*
X49983500Y-23263300D01*
X73850000Y-7736700D02*
X73601900Y-7984800D01*
X61150000Y-7736700D02*
X60404800Y-7736700D01*
X31149200Y-17699000D02*
X29862500Y-16412300D01*
X22073300Y-42573300D02*
X22073300Y-42600000D01*
X90325000Y-32000000D02*
X90325000Y-30433000D01*
X48450000Y-25190000D02*
X48450000Y-27116700D01*
X90325000Y-30433000D02*
X88464800Y-28572800D01*
X87595500Y-27158800D02*
X87595500Y-26235500D01*
X61150000Y-5810000D02*
X61150000Y-7736700D01*
D26*
X88464800Y-28572800D02*
X87595500Y-27703500D01*
D25*
X60907500Y-23072300D02*
X60907500Y-23045000D01*
X33325000Y-22375000D02*
X33325000Y-18500000D01*
X89535400Y-31210400D02*
X84440400Y-31210400D01*
X48450000Y-25190000D02*
X48450000Y-23263300D01*
X61150000Y-25190000D02*
X61150000Y-23263300D01*
X18700000Y-10315400D02*
X30590400Y-10315400D01*
X86550000Y-7736700D02*
X85255100Y-7680000D01*
X86550000Y-5810000D02*
X86550000Y-7736700D01*
X73850000Y-25190000D02*
X73850000Y-27116700D01*
X30926600Y-15344000D02*
X30320600Y-15950000D01*
X50174500Y-23072300D02*
X60907500Y-23072300D01*
X90325000Y-32000000D02*
X89535400Y-31210400D01*
X29862500Y-14050000D02*
X30301700Y-14050000D01*
X31000000Y-34500000D02*
X27900000Y-31400000D01*
X24000000Y-42600000D02*
X22073300Y-42600000D01*
X25030000Y-14050000D02*
X29862500Y-14050000D01*
X32551100Y-17726100D02*
X32551100Y-17699000D01*
X92730000Y-34405000D02*
X92730000Y-34500000D01*
X87595500Y-26235500D02*
X86550000Y-25190000D01*
X16500000Y-37000000D02*
X22073300Y-42573300D01*
X60959000Y-23072300D02*
X61150000Y-23263300D01*
X24080000Y-15000000D02*
X25030000Y-14050000D01*
X73850000Y-25190000D02*
X73850000Y-23263300D01*
X60907500Y-23072300D02*
X60959000Y-23072300D01*
X49983500Y-23263300D02*
X48450000Y-23263300D01*
X27900000Y-31400000D02*
X24000000Y-31400000D01*
X80346700Y-27116700D02*
X73850000Y-27116700D01*
D26*
X32551100Y-17699000D02*
X31149200Y-17699000D01*
D25*
X81500000Y-28270000D02*
X80346700Y-27116700D01*
X90325000Y-32000000D02*
X92730000Y-34405000D01*
X33325000Y-18500000D02*
X32551100Y-17726100D01*
X77675000Y-42000000D02*
X90325000Y-42000000D01*
D26*
X87595500Y-27703500D02*
X87595500Y-27158800D01*
D25*
X30926600Y-14674900D02*
X30926600Y-15344000D01*
X84440400Y-31210400D02*
X81500000Y-28270000D01*
X30590400Y-10315400D02*
X31775000Y-11500000D01*
X30320600Y-15950000D02*
X29862500Y-15950000D01*
X30301700Y-14050000D02*
X30926600Y-14674900D01*
X48450000Y-7736700D02*
X50124000Y-7736700D01*
X36816700Y-27116700D02*
X32700000Y-23000000D01*
X18700000Y-9000000D02*
X18700000Y-10315400D01*
X61150000Y-23263300D02*
X73850000Y-23263300D01*
X48450000Y-5810000D02*
X48450000Y-7736700D01*
X60404800Y-7736700D02*
X60215700Y-7925800D01*
X29862500Y-16412300D02*
X29862500Y-15950000D01*
X73850000Y-5810000D02*
X73850000Y-7736700D01*
X48450000Y-27116700D02*
X36816700Y-27116700D01*
X50124000Y-7736700D02*
X50300800Y-7913500D01*
X32700000Y-23000000D02*
X33325000Y-22375000D01*
%TO.N,/JOY_SW*%
X78930000Y-7736700D02*
X78683800Y-7982900D01*
X78930000Y-5810000D02*
X78930000Y-7736700D01*
%TO.N,/JOY_X*%
X92730000Y-37000000D02*
X87392100Y-31662100D01*
X66879800Y-27969600D02*
X66230000Y-27319800D01*
X82542500Y-31662100D02*
X78850000Y-27969600D01*
X66230000Y-27319800D02*
X66230000Y-25190000D01*
X78850000Y-27969600D02*
X66879800Y-27969600D01*
X87392100Y-31662100D02*
X82542500Y-31662100D01*
%TO.N,/JOY_Y*%
X63690000Y-25190000D02*
X63690000Y-27116700D01*
X76507300Y-28774000D02*
X69239800Y-28774000D01*
X78966500Y-28725000D02*
X76556300Y-28725000D01*
X68887100Y-28421300D02*
X64994600Y-28421300D01*
X76556300Y-28725000D02*
X76507300Y-28774000D01*
X64994600Y-28421300D02*
X63690000Y-27116700D01*
X69239800Y-28774000D02*
X68887100Y-28421300D01*
X84000000Y-32298400D02*
X82539900Y-32298400D01*
X82539900Y-32298400D02*
X78966500Y-28725000D01*
%TO.N,/KEY10_A*%
X92482700Y-86167300D02*
X91650000Y-87000000D01*
X90115000Y-75496700D02*
X92482700Y-75496700D01*
X90115000Y-73920000D02*
X90115000Y-75496700D01*
%TO.N,/KEY11_A*%
X30115000Y-93920000D02*
X30115000Y-95496700D01*
X30617100Y-95496700D02*
X30824300Y-95703900D01*
X30115000Y-95496700D02*
X30617100Y-95496700D01*
X30824300Y-106174300D02*
X31650000Y-107000000D01*
%TO.N,/KEY12_A*%
X51650000Y-105875200D02*
X51650000Y-107000000D01*
X50115000Y-93920000D02*
X50115000Y-95496700D01*
X51471200Y-95496700D02*
X51650000Y-95675500D01*
X50115000Y-95496700D02*
X51471200Y-95496700D01*
%TO.N,/KEY13_A*%
X70115000Y-95496700D02*
X71466100Y-95496700D01*
X71466100Y-95496700D02*
X71650000Y-95680600D01*
X70115000Y-93920000D02*
X70115000Y-95496700D01*
X71650000Y-105884000D02*
X71650000Y-107000000D01*
%TO.N,/KEY1_A*%
X50115000Y-31920000D02*
X50115000Y-33496700D01*
X51298700Y-33672200D02*
X51123200Y-33496700D01*
X50824300Y-45825700D02*
X51650000Y-45000000D01*
X51123200Y-33496700D02*
X50115000Y-33496700D01*
%TO.N,/KEY2_A*%
X71650000Y-43881300D02*
X71650000Y-45000000D01*
X70115000Y-33496700D02*
X71469900Y-33496700D01*
X71469900Y-33496700D02*
X71650000Y-33676800D01*
X70115000Y-31920000D02*
X70115000Y-33496700D01*
%TO.N,/KEY3_A*%
X30115000Y-55496700D02*
X30888700Y-56270400D01*
X31650000Y-65837600D02*
X31650000Y-67000000D01*
X30888700Y-56270400D02*
X31650000Y-56270400D01*
X30115000Y-53920000D02*
X30115000Y-55496700D01*
%TO.N,/KEY4_A*%
X50115000Y-55496700D02*
X51650000Y-57031700D01*
X50115000Y-53920000D02*
X50115000Y-55496700D01*
X51650000Y-65887600D02*
X51650000Y-67000000D01*
%TO.N,/KEY5_A*%
X70115000Y-55496700D02*
X70115000Y-55693700D01*
X70115000Y-55693700D02*
X70841000Y-56419700D01*
X71650000Y-65861000D02*
X71650000Y-67000000D01*
X70841000Y-56419700D02*
X71650000Y-56419700D01*
X70115000Y-53920000D02*
X70115000Y-55496700D01*
%TO.N,/KEY6_A*%
X90115000Y-53920000D02*
X90115000Y-55496700D01*
X91469400Y-56851100D02*
X91650000Y-56851100D01*
X90115000Y-55496700D02*
X91469400Y-56851100D01*
X91650000Y-65843800D02*
X91650000Y-67000000D01*
%TO.N,/KEY7_A*%
X31058700Y-85906400D02*
X31650000Y-86497700D01*
X30590400Y-75972100D02*
X31058700Y-75972100D01*
X30115000Y-73920000D02*
X30115000Y-75496700D01*
X30115000Y-75496700D02*
X30590400Y-75972100D01*
X31650000Y-86497700D02*
X31650000Y-87000000D01*
%TO.N,/KEY8_A*%
X50115000Y-75496700D02*
X50624900Y-75496700D01*
X50115000Y-73920000D02*
X50115000Y-75496700D01*
X50831000Y-86181000D02*
X51650000Y-87000000D01*
X50624900Y-75496700D02*
X50831000Y-75702800D01*
%TO.N,/KEY9_A*%
X71650000Y-85879200D02*
X71650000Y-87000000D01*
X71445900Y-75496700D02*
X71650000Y-75700800D01*
X70115000Y-73920000D02*
X70115000Y-75496700D01*
X70115000Y-75496700D02*
X71445900Y-75496700D01*
%TO.N,/MIC_BCLK*%
X93990900Y-37476700D02*
X93217600Y-38250000D01*
X91630000Y-27116700D02*
X93990900Y-29477600D01*
X76658700Y-35476600D02*
X71502100Y-30320000D01*
X71502100Y-30320000D02*
X68649300Y-30320000D01*
X91957500Y-38250000D02*
X89184100Y-35476600D01*
X91630000Y-25190000D02*
X91630000Y-27116700D01*
X68649300Y-30320000D02*
X68105700Y-29776400D01*
X93217600Y-38250000D02*
X91957500Y-38250000D01*
X62965300Y-28666900D02*
X62053200Y-28666900D01*
X93990900Y-29477600D02*
X93990900Y-37476700D01*
X62053200Y-28666900D02*
X61767000Y-28953100D01*
X68105700Y-29776400D02*
X64074800Y-29776400D01*
X89184100Y-35476600D02*
X76658700Y-35476600D01*
X61767000Y-28953100D02*
X31033100Y-28953100D01*
X64074800Y-29776400D02*
X62965300Y-28666900D01*
X31033100Y-28953100D02*
X25080000Y-23000000D01*
%TO.N,/MIC_DATA*%
X84010000Y-23263300D02*
X80128200Y-23263300D01*
X30160000Y-23000000D02*
X35189600Y-28029600D01*
X80128200Y-23263300D02*
X80043600Y-23178700D01*
X63339500Y-27763500D02*
X64449000Y-28873000D01*
X35189600Y-28029600D02*
X61187700Y-28029600D01*
X61187700Y-28029600D02*
X61453800Y-27763500D01*
X76722900Y-29258800D02*
X76815800Y-29351700D01*
X84010000Y-25190000D02*
X84010000Y-23263300D01*
X68700000Y-28873000D02*
X69085800Y-29258800D01*
X61453800Y-27763500D02*
X63339500Y-27763500D01*
X69085800Y-29258800D02*
X76722900Y-29258800D01*
X64449000Y-28873000D02*
X68700000Y-28873000D01*
%TO.N,/MIC_WS*%
X33116600Y-28496600D02*
X27620000Y-23000000D01*
X85250000Y-32940500D02*
X81570800Y-32940500D01*
X89090000Y-27116700D02*
X88476600Y-27116700D01*
X78608800Y-29978500D02*
X71799400Y-29978500D01*
X63152400Y-28215200D02*
X61640900Y-28215200D01*
X68964500Y-29776400D02*
X68512800Y-29324700D01*
X88476600Y-27116700D02*
X88292300Y-27301000D01*
X61359500Y-28496600D02*
X33116600Y-28496600D01*
X61640900Y-28215200D02*
X61359500Y-28496600D01*
X68512800Y-29324700D02*
X64261900Y-29324700D01*
X71597300Y-29776400D02*
X68964500Y-29776400D01*
X89090000Y-25190000D02*
X89090000Y-27116700D01*
X81570800Y-32940500D02*
X78608800Y-29978500D01*
X64261900Y-29324700D02*
X63152400Y-28215200D01*
X71799400Y-29978500D02*
X71597300Y-29776400D01*
%TO.N,/RGB_5V*%
X32137500Y-14050000D02*
X31435900Y-13348400D01*
X22888500Y-15473600D02*
X25914900Y-18500000D01*
X22888500Y-14526100D02*
X22888500Y-15473600D01*
X25914900Y-18500000D02*
X26175000Y-18500000D01*
X31435900Y-13348400D02*
X24066200Y-13348400D01*
X24066200Y-13348400D02*
X22888500Y-14526100D01*
%TO.N,/RGB_DATA*%
X28872700Y-15602200D02*
X29474900Y-15000000D01*
X91630000Y-7736700D02*
X88000000Y-7736700D01*
X91630000Y-5810000D02*
X91630000Y-7736700D01*
X30325700Y-17880200D02*
X28872700Y-16427200D01*
X29474900Y-15000000D02*
X29862500Y-15000000D01*
X31675000Y-18500000D02*
X30945500Y-18500000D01*
X30945500Y-18500000D02*
X30325700Y-17880200D01*
X88000000Y-7736700D02*
X88000000Y-7736700D01*
X28872700Y-16427200D02*
X28872700Y-15602200D01*
%TO.N,/RGB_DOUT*%
X27825000Y-18500000D02*
X27068000Y-17743000D01*
%TO.N,/ROW0*%
X34973600Y-32088200D02*
X36454200Y-30607600D01*
X48350000Y-45000000D02*
X48350000Y-44071800D01*
X43223700Y-44071800D02*
X34973600Y-35821700D01*
X67386200Y-44862600D02*
X66595400Y-44071800D01*
X66595400Y-44071800D02*
X48350000Y-44071800D01*
X68212600Y-44862600D02*
X68350000Y-45000000D01*
X41000000Y-5810000D02*
X40200000Y-6610000D01*
X48350000Y-44071800D02*
X43223700Y-44071800D01*
X67386200Y-44862600D02*
X68212600Y-44862600D01*
X34973600Y-35821700D02*
X34973600Y-32088200D01*
X43370000Y-5810000D02*
X41000000Y-5810000D01*
%TO.N,/ROW1*%
X85173500Y-65198600D02*
X87355300Y-67380400D01*
X29185600Y-66164400D02*
X30156600Y-65193400D01*
X68350000Y-65886200D02*
X69037600Y-65198600D01*
X87355300Y-67380400D02*
X87969600Y-67380400D01*
X48350000Y-65876400D02*
X48983400Y-65243000D01*
X30156600Y-65193400D02*
X47667000Y-65193400D01*
X42265000Y-7736700D02*
X38212100Y-11789600D01*
X47667000Y-65193400D02*
X48350000Y-65876400D01*
X48983400Y-65243000D02*
X67706800Y-65243000D01*
X45910000Y-7736700D02*
X42265000Y-7736700D01*
X45910000Y-5810000D02*
X45910000Y-7736700D01*
X68350000Y-65886200D02*
X68350000Y-67000000D01*
X87969600Y-67380400D02*
X88350000Y-67000000D01*
X69037600Y-65198600D02*
X85173500Y-65198600D01*
X67706800Y-65243000D02*
X68350000Y-65886200D01*
X48350000Y-67000000D02*
X48350000Y-65876400D01*
X29185600Y-66164400D02*
X28350000Y-67000000D01*
%TO.N,/ROW2*%
X48350000Y-87000000D02*
X49277600Y-87927600D01*
X49277600Y-87927600D02*
X67422400Y-87927600D01*
X87956900Y-87393100D02*
X88350000Y-87000000D01*
X67422400Y-87927600D02*
X68350000Y-87000000D01*
X50990000Y-5810000D02*
X50990000Y-7736700D01*
X28350000Y-87000000D02*
X33747100Y-81602900D01*
X69286600Y-87936600D02*
X68350000Y-87000000D01*
X87372900Y-87393100D02*
X87956900Y-87393100D01*
X51181000Y-7927700D02*
X50990000Y-7736700D01*
X86829400Y-87936600D02*
X69286600Y-87936600D01*
X87372900Y-87393100D02*
X86829400Y-87936600D01*
X33747100Y-81602900D02*
X42952900Y-81602900D01*
X42952900Y-81602900D02*
X48350000Y-87000000D01*
%TO.N,/ROW3*%
X49321000Y-107971000D02*
X48350000Y-107000000D01*
X29292100Y-107942100D02*
X28350000Y-107000000D01*
X48350000Y-107000000D02*
X47407900Y-107942100D01*
X53728800Y-7935500D02*
X53977400Y-7935500D01*
X67501300Y-106151300D02*
X65681600Y-107971000D01*
X53530000Y-7736700D02*
X53728800Y-7935500D01*
X67501300Y-106151300D02*
X68350000Y-107000000D01*
X47407900Y-107942100D02*
X29292100Y-107942100D01*
X65681600Y-107971000D02*
X49321000Y-107971000D01*
X53530000Y-5810000D02*
X53530000Y-7736700D01*
%TO.N,/TOUCH_SCL*%
X95622000Y-91002000D02*
X84779800Y-91002000D01*
X83827000Y-91002000D02*
X83825000Y-91000000D01*
X98620000Y-94000000D02*
X95622000Y-91002000D01*
X84010000Y-5810000D02*
X84010000Y-7736700D01*
X84010000Y-7736700D02*
X82706000Y-7736700D01*
X84779800Y-91002000D02*
X83827000Y-91002000D01*
%TO.N,/TOUCH_SDA*%
X84338800Y-92823300D02*
X83051600Y-91536100D01*
X81470000Y-7736700D02*
X79868400Y-7736700D01*
X83051600Y-91536100D02*
X83051600Y-89773400D01*
X84729300Y-88613300D02*
X84211700Y-88613300D01*
X81470000Y-5810000D02*
X81470000Y-7736700D01*
X79868400Y-7736700D02*
X79676200Y-7928900D01*
X84211700Y-88613300D02*
X83825000Y-89000000D01*
X94903300Y-92823300D02*
X84338800Y-92823300D01*
X96080000Y-94000000D02*
X94903300Y-92823300D01*
X83051600Y-89773400D02*
X83825000Y-89000000D01*
%TD*%
M02*
